<svg xmlns="http://www.w3.org/2000/svg" viewBox="0 0 24 24">
  <path d="M2.056,12.02938H4.06047l-.00025-.003A7.99406,7.99406,0,0,1,17.74827,6.40938L16.33482,7.82284a5.99519,5.99519,0,0,0-10.2746,4.20349l.00031.003H8.06437a.49487.49487,0,0,1,.34992.84479L5.41007,15.87832a.49481.49481,0,0,1-.69976,0L1.70616,12.87417A.49486.49486,0,0,1,2.056,12.02938Zm19.81187-.05876H19.86342l.00025.003a7.99406,7.99406,0,0,1-13.688,5.617l1.41345-1.41346a5.99519,5.99519,0,0,0,10.2746-4.20349l-.00031-.003H15.85952a.49487.49487,0,0,1-.34992-.84479l3.00422-3.00415a.49481.49481,0,0,1,.69976,0l3.00415,3.00415A.49486.49486,0,0,1,21.86788,11.97062Z" fill="#8f9dc9"/>
</svg>
