<svg xmlns="http://www.w3.org/2000/svg" viewBox="0 0 24 24">
  <path d="M8,11a1,1,0,1,1-1,1A1,1,0,0,1,8,11Zm4,0a1,1,0,1,1-1,1A1,1,0,0,1,12,11Zm4,0a1,1,0,1,1-1,1A1,1,0,0,1,16,11ZM6.749,15.707a.99963.99963,0,0,0,0-1.41406L4.45605,12,6.749,9.707A.99989.99989,0,1,0,5.335,8.293l-3,3a.99963.99963,0,0,0,0,1.41406l3,3a.99963.99963,0,0,0,1.41406,0Zm12,0,3-3a.99963.99963,0,0,0,0-1.41406l-3-3A.99989.99989,0,1,0,17.335,9.707L19.62793,12l-2.293,2.293A.99989.99989,0,1,0,18.749,15.707Z" fill="#8f9dc9"/>
</svg>
