<svg xmlns="http://www.w3.org/2000/svg" viewBox="0 0 24 24">
  <path d="M19.14985,13.22216v5.93751a.79052.79052,0,0,1-.24462.57818.69122.69122,0,0,1-.55595.22238h-4.7589v-4.7589h-3.18v4.7589H5.65146a.7543.7543,0,0,1-.556-.22238.86245.86245,0,0,1-.24461-.57818V13.1332l7.13835-5.87079,7.13836,5.87079A.12883.12883,0,0,1,19.14985,13.22216Zm2.75749-.86728-.75609.91175a.45993.45993,0,0,1-.26685.13343h-.04448a.50936.50936,0,0,1-.26685-.06671l-8.58382-7.1606-8.58382,7.1606a.58921.58921,0,0,1-.28909.089.60612.60612,0,0,1-.26685-.15567l-.77833-.91175a.37075.37075,0,0,1-.06671-.28909.38632.38632,0,0,1,.13342-.26686l8.91739-7.42745a1.4147,1.4147,0,0,1,.934-.33356,1.50255,1.50255,0,0,1,.95623.33356L15.96983,6.9066V4.48267a.38132.38132,0,0,1,.40028-.40028h2.37945a.38132.38132,0,0,1,.40029.40028v5.048l2.713,2.26826a.46.46,0,0,1,.13342.26686A.35765.35765,0,0,1,21.90734,12.35488Z" fill="#8f9dc9" />
  <path d="M24,24H0V0H24Z" fill="none"/>
</svg>
