<svg xmlns="http://www.w3.org/2000/svg" viewBox="0 0 64 64">
  <path d="M58,52H6a4,4,0,0,1-4-4V18a4,4,0,0,1,4-4H58a4,4,0,0,1,4,4V48A4,4,0,0,1,58,52Z" fill="#565d75" fill-rule="evenodd"/>
  <path d="M27,20H21a2,2,0,0,0-2,2V44a2,2,0,0,0,2,2h6a2,2,0,0,0,2-2V22A2,2,0,0,0,27,20ZM25,43H23a1,1,0,0,1,0-2h2a1,1,0,0,1,0,2Zm0-4H23a1,1,0,0,1,0-2h2a1,1,0,0,1,0,2Zm0-4H23a1,1,0,0,1,0-2h2a1,1,0,0,1,0,2Zm-1-7a2,2,0,1,1,2-2A2,2,0,0,1,24,28Zm16-8H34a2,2,0,0,0-2,2V44a2,2,0,0,0,2,2h6a2,2,0,0,0,2-2V22A2,2,0,0,0,40,20ZM38,43H36a1,1,0,0,1,0-2h2a1,1,0,0,1,0,2Zm0-4H36a1,1,0,0,1,0-2h2a1,1,0,0,1,0,2Zm0-4H36a1,1,0,0,1,0-2h2a1,1,0,0,1,0,2Zm-1-7a2,2,0,1,1,2-2A2,2,0,0,1,37,28Zm16-8H47a2,2,0,0,0-2,2V44a2,2,0,0,0,2,2h6a2,2,0,0,0,2-2V22A2,2,0,0,0,53,20ZM51,43H49a1,1,0,0,1,0-2h2a1,1,0,0,1,0,2Zm0-4H49a1,1,0,0,1,0-2h2a1,1,0,0,1,0,2Zm0-4H49a1,1,0,0,1,0-2h2a1,1,0,0,1,0,2Zm-1-7a2,2,0,1,1,2-2A2,2,0,0,1,50,28ZM11,24a2,2,0,1,1,2-2A2,2,0,0,1,11,24Zm0,7a2,2,0,1,1,2-2A2,2,0,0,1,11,31Zm0,15h0a2,2,0,0,1-2-2V37a2,2,0,0,1,2-2h0a2,2,0,0,1,2,2v7A2,2,0,0,1,11,46Z" fill="#fff" fill-rule="evenodd"/>
</svg>
