<svg xmlns="http://www.w3.org/2000/svg" viewBox="0 0 24 24">
  <path d="M12.66313,2.11173c2.96517,1.3488,6.00035,2.75011,8.95177,4.10016.16626.07625.375.125.375.34751s-.21126.26126-.375.33751c-2.95392,1.34881-5.95285,2.72886-8.93052,4.06641a1.47009,1.47009,0,0,1-1.37508,0C8.32162,9.61452,5.33394,8.24447,2.35752,6.88566,2.2,6.81941,2,6.76566,2,6.55315c0-.19626.2-.25.34377-.315,2.98893-1.375,6.0316-2.77886,9.03178-4.13766a2.01141,2.01141,0,0,1,1.28883.01125M12.00059,22a2.11134,2.11134,0,0,1-.68879-.19626C8.32412,20.45494,5.33645,19.08489,2.37,17.72608c-.155-.07625-.36627-.125-.36627-.34751s.21126-.26126.375-.33751c.48878-.22876.98881-.45627,1.47759-.685a1.71514,1.71514,0,0,1,1.47759.01125q2.98268,1.35381,5.94285,2.70761a1.69012,1.69012,0,0,0,1.46633,0q2.96518-1.37506,5.92035-2.71886a1.6551,1.6551,0,0,1,1.43258-.01125c.53254.22876,1.05507.47877,1.5776.71753a.91276.91276,0,0,1,.22251.125.22126.22126,0,0,1,0,.375,1.50824,1.50824,0,0,1-.28877.16251c-2.94392,1.375-5.9091,2.7076-8.87552,4.04515a1.94384,1.94384,0,0,1-.73254.21751m0-5.41521a3.66335,3.66335,0,0,1-.7113-.185c-2.97892-1.35755-5.95534-2.70885-8.913-4.07641-.155-.065-.375-.125-.375-.33751s.22251-.27126.38877-.34751c.5-.23876,1.00006-.46752,1.50009-.69628a1.64386,1.64386,0,0,1,1.44383.0325c1.97762.89129,3.97649,1.80507,5.97536,2.71886a1.63264,1.63264,0,0,0,1.38883,0q3.00016-1.38631,6.0091-2.75011a1.63264,1.63264,0,0,1,1.38883,0c.52253.23876,1.05506.47877,1.57759.71753a1.03876,1.03876,0,0,1,.21126.125.23751.23751,0,0,1-.01125.41377,1.165,1.165,0,0,1-.2.10875c-3.01017,1.39131-6.00035,2.75011-9.00053,4.11016a2.59115,2.59115,0,0,1-.67128.17876Z" fill="#8f9dc9"/>
</svg>
