<svg xmlns="http://www.w3.org/2000/svg" viewBox="0 0 24 24">
  <path d="M19.64073,12.97a7.55517,7.55517,0,0,0,.072-.96994A8.31787,8.31787,0,0,0,19.64073,11l2.16918-1.63a.49515.49515,0,0,0,.12329-.64l-2.056-3.4599a.512.512,0,0,0-.62709-.22l-2.56,1a7.49882,7.49882,0,0,0-1.73741-.97994L14.57237,2.42A.51584.51584,0,0,0,14.05846,2H9.94609a.51586.51586,0,0,0-.51392.42L9.05184,5.0701A7.49861,7.49861,0,0,0,7.31443,6.05l-2.56-1a.512.512,0,0,0-.62709.22L2.07134,8.73a.484.484,0,0,0,.12329.64L4.36382,11A8.31516,8.31516,0,0,0,4.292,12.00008a7.55339,7.55339,0,0,0,.07185.96994L2.19463,14.63a.48406.48406,0,0,0-.12329.64l2.056,3.46007a.52385.52385,0,0,0,.62709.22l2.56-1.01a7.18813,7.18813,0,0,0,1.73741.99L9.43217,21.58a.51586.51586,0,0,0,.51392.42h4.11237a.51584.51584,0,0,0,.51391-.42l.38034-2.64993a7.53669,7.53669,0,0,0,1.73741-.99l2.56,1.01a.52384.52384,0,0,0,.62709-.22L21.9332,15.27a.49518.49518,0,0,0-.12329-.64Zm-7.63846,2.52423a3.50136,3.50136,0,1,1,3.59811-3.49993A3.55,3.55,0,0,1,12.00227,15.49425Z" fill="#8f9dc9"/>
  <path d="M24,24H0V0H24Z" fill="none"/>
</svg>
