<svg xmlns="http://www.w3.org/2000/svg" viewBox="0 0 24 24">
  <path d="M1.68469,18.08354a.426.426,0,0,1-.54771-.43277V5.54693l-.568.13524a.77088.77088,0,0,0-.568.71V19.35478a.43277.43277,0,0,0,.568.43952,18.176,18.176,0,0,1,9.656,0,.52722.52722,0,0,0,.17581,0C7.10775,18.58392,5.16032,17.71839,1.68469,18.08354ZM10.90118,5.39142A13.92919,13.92919,0,0,0,2.99652,4.36359.67611.67611,0,0,0,2.53,4.99921V16.366a.36513.36513,0,0,0,.46655.40576A12.30705,12.30705,0,0,1,11.25958,18.212c.10822-.06086.10822-.62885.10822-.79792V6.03375A.67614.67614,0,0,0,10.90118,5.39142Zm-1.23175,7.85a.49869.49869,0,0,1-.627.32618A17.361,17.361,0,0,0,4.90137,13.048H4.898a.5.5,0,0,1-.00342-1,16.83282,16.83282,0,0,1,4.44922.56641A.49929.49929,0,0,1,9.66943,13.24139Zm0-2a.49869.49869,0,0,1-.627.32618A17.361,17.361,0,0,0,4.90137,11.048H4.898a.5.5,0,0,1-.00342-1,16.83282,16.83282,0,0,1,4.44922.56641A.49929.49929,0,0,1,9.66943,11.24139Zm0-2a.49869.49869,0,0,1-.627.32618A17.361,17.361,0,0,0,4.90137,9.048H4.898a.5.5,0,0,1-.00342-1,16.83282,16.83282,0,0,1,4.44922.56641A.49929.49929,0,0,1,9.66943,9.24139Zm12.64588,8.84215a.426.426,0,0,0,.54771-.43277V5.54693l.568.12172a.77087.77087,0,0,1,.568.71v12.9626a.43277.43277,0,0,1-.568.43953,18.176,18.176,0,0,0-9.656,0,.52775.52775,0,0,1-.17581,0C16.90577,18.58392,18.83292,17.71839,22.31531,18.08354ZM12.6076,6.03375V17.41406c0,.16907,0,.73706.10822.79792a12.30709,12.30709,0,0,1,8.26306-1.44025.36513.36513,0,0,0,.46655-.40576V4.99921a.67611.67611,0,0,0-.46655-.63562,13.92919,13.92919,0,0,0-7.90466,1.02783A.67614.67614,0,0,0,12.6076,6.03375Zm2.02405,6.58069a16.83282,16.83282,0,0,1,4.44922-.56641.5.5,0,0,1-.00342,1H19.074a17.36111,17.36111,0,0,0-4.14112.51954.49981.49981,0,0,1-.30127-.95313Zm0-2a16.83282,16.83282,0,0,1,4.44922-.56641.5.5,0,0,1-.00342,1H19.074a17.36111,17.36111,0,0,0-4.14112.51954.49981.49981,0,0,1-.30127-.95313Zm0-2A16.83282,16.83282,0,0,1,19.08087,8.048a.5.5,0,0,1-.00342,1H19.074a17.36111,17.36111,0,0,0-4.14112.51954.49981.49981,0,0,1-.30127-.95313Z" fill="#8f9dc9"/>
</svg>
