<svg xmlns="http://www.w3.org/2000/svg" viewBox="0 0 24 24">
    <path d="M5.874,16.364h-3.1c-.181,0-.433-.085-.611-.491A2.19012,2.19012,0,0,1,2,15.055c0-.437.787-.962,1.309-1.309a5.15824,5.15824,0,0,1,1.768-.714,2.171,2.171,0,0,0,2.573,0,6.0042,6.0042,0,0,1,.973.3,6.30017,6.30017,0,0,0-.841.47c-.782.521-1.964,1.309-1.964,1.963a3.442,3.442,0,0,0,.059.6ZM6.361,12A2.182,2.182,0,0,1,4.174,9.823V9.818A2.182,2.182,0,0,1,6.356,7.636h0A2.182,2.182,0,0,1,8.538,9.818h0A2.184,2.184,0,0,1,6.356,12Z M18,8.99908a3,3,0,0,1-3,3h0a3,3,0,0,1-3-3v0a3,3,0,0,1,6,0ZM16.929,13.004a3.256,3.256,0,0,1-3.858,0C12.12869,13.195,8,15.345,8,16s.107,2,1,2H21c.893,0,1-1.346,1-2S17.87131,13.195,16.929,13.004Z" fill="#8f9dc9"/>
</svg>
