<svg xmlns="http://www.w3.org/2000/svg" viewBox="0 0 24 24">
  <path d="M18,6H16V5a3.00328,3.00328,0,0,0-3-3H6A3.00328,3.00328,0,0,0,3,5V15a3.00328,3.00328,0,0,0,3,3H8v1a3.00328,3.00328,0,0,0,3,3h7a3.00328,3.00328,0,0,0,3-3V9A3.00328,3.00328,0,0,0,18,6ZM8,9v7H6a1.00067,1.00067,0,0,1-1-1V5A1.00067,1.00067,0,0,1,6,4h7a1.00067,1.00067,0,0,1,1,1V6H11A3.00328,3.00328,0,0,0,8,9ZM19,19a1.00067,1.00067,0,0,1-1,1H11a1.00067,1.00067,0,0,1-1-1V9a1.00067,1.00067,0,0,1,1-1h7a1.00067,1.00067,0,0,1,1,1Z" fill="#8f9dc9"/>
</svg>
