<svg xmlns="http://www.w3.org/2000/svg" viewBox="0 0 24 24">
  <path d="M17.90845,9.09155a4.99069,4.99069,0,0,0-9.53693-.96887A3.46877,3.46877,0,0,0,4.09918,12.2959,3.498,3.498,0,0,0,5.5,19H17a4.99546,4.99546,0,0,0,.90845-9.90845ZM17,17H12.99976V13.68616l1.82855,1.82855,1.41424-1.41419-2.82843-2.82843L11.99988,9.85785l-1.41419,1.41424L7.75726,14.10052l1.41419,1.41419L11,13.68616V17H5.5a1.498,1.498,0,0,1-.59845-2.87207,2,2,0,0,0,1.14526-2.2868A1.52581,1.52581,0,0,1,6,11.5,1.50172,1.50172,0,0,1,7.5,10a1.5505,1.5505,0,0,1,.372.05933,1.99849,1.99849,0,0,0,2.35254-1.18415,2.99071,2.99071,0,0,1,5.717.57856,2.00008,2.00008,0,0,0,1.60473,1.60473A2.99546,2.99546,0,0,1,17,17Z" fill="#8f9dc9"/>
</svg>
