<svg xmlns="http://www.w3.org/2000/svg" viewBox="0 0 24 24">
  <path d="M15.34851,9.92279a5.62571,5.62571,0,0,0,.05041-.70051A6.19375,6.19375,0,0,0,15.34851,8.5l1.51843-1.17719a.36516.36516,0,0,0,.0863-.46223L15.514,4.36173a.35308.35308,0,0,0-.439-.15889l-1.792.72219a5.20782,5.20782,0,0,0-1.21618-.70774l-.26624-1.914A.36418.36418,0,0,0,11.44092,2H8.56226a.36418.36418,0,0,0-.35974.30333l-.26623,1.914A5.20789,5.20789,0,0,0,6.7201,4.925l-1.792-.72219a.35308.35308,0,0,0-.439.15889L3.04994,6.86055a.35683.35683,0,0,0,.0863.46223L4.65467,8.5a6.19546,6.19546,0,0,0-.05029.72231,5.62765,5.62765,0,0,0,.05029.70051L3.13624,11.12166a.35685.35685,0,0,0-.0863.46223l1.43921,2.49894a.36118.36118,0,0,0,.439.15889l1.792-.72942a4.994,4.994,0,0,0,1.21619.715l.26623,1.91383a.36419.36419,0,0,0,.35974.30334h2.87866a.36419.36419,0,0,0,.35974-.30334l.26624-1.91383a5.23588,5.23588,0,0,0,1.21618-.715l1.792.72942a.36118.36118,0,0,0,.439-.15889l1.43921-2.49894a.36519.36519,0,0,0-.0863-.46223Zm-5.34692,1.823a2.52781,2.52781,0,1,1,2.51867-2.52773A2.52318,2.52318,0,0,1,10.00159,11.74584ZM18.11008,21.832l.148-1.06006a2.91364,2.91364,0,0,0,.67595-.396l.9961.404a.20108.20108,0,0,0,.244-.08789l.8-1.38412a.20186.20186,0,0,0-.048-.256l-.84392-.6639a3.11893,3.11893,0,0,0,.028-.388,3.4334,3.4334,0,0,0-.028-.40007l.84392-.65185a.20186.20186,0,0,0,.048-.256l-.8-1.38412a.19657.19657,0,0,0-.244-.08789l-.9961.3999A2.90026,2.90026,0,0,0,18.258,15.228l-.148-1.06006a.20234.20234,0,0,0-.2-.168H16.30994a.202.202,0,0,0-.19987.168L15.962,15.228a2.90046,2.90046,0,0,0-.676.39192l-.99593-.3999a.19672.19672,0,0,0-.24415.08789l-.8,1.38412a.19735.19735,0,0,0,.048.256l.84408.65185a3.39664,3.39664,0,0,0-.028.40007,3.08666,3.08666,0,0,0,.028.388l-.84408.6639a.19735.19735,0,0,0-.048.256l.8,1.38412a.20123.20123,0,0,0,.24415.08789l.99593-.404a2.777,2.777,0,0,0,.676.396l.14811,1.06006a.202.202,0,0,0,.19987.168H17.91A.20234.20234,0,0,0,18.11008,21.832ZM15.71,17.99772a1.4,1.4,0,1,1,1.40007,1.3999A1.4,1.4,0,0,1,15.71,17.99772Z" fill="#8f9dc9"/>
</svg>
