<svg xmlns="http://www.w3.org/2000/svg" viewBox="0 0 24 24">
  <path d="M6,7H3A1,1,0,0,1,3,5H6A1,1,0,0,1,6,7ZM22,6a.99974.99974,0,0,0-1-1H10a1,1,0,0,0,0,2H21A.99974.99974,0,0,0,22,6ZM7,10A.99974.99974,0,0,0,6,9H3a1,1,0,0,0,0,2H6A.99974.99974,0,0,0,7,10Zm15,0a.99974.99974,0,0,0-1-1H10a1,1,0,0,0,0,2H21A.99974.99974,0,0,0,22,10ZM7,14a.99974.99974,0,0,0-1-1H3a1,1,0,0,0,0,2H6A.99974.99974,0,0,0,7,14Zm15,0a.99974.99974,0,0,0-1-1H10a1,1,0,0,0,0,2H21A.99974.99974,0,0,0,22,14ZM7,18a.99974.99974,0,0,0-1-1H3a1,1,0,0,0,0,2H6A.99974.99974,0,0,0,7,18Zm15,0a.99974.99974,0,0,0-1-1H10a1,1,0,0,0,0,2H21A.99974.99974,0,0,0,22,18Z" fill="#8f9dc9"/>
</svg>
