<svg xmlns="http://www.w3.org/2000/svg" width="24" height="24" viewBox="0 0 24 24"><path d="M9.50037,13.50037l7.87194-8.379L19.87195,7.621,12,16l-2.347.52277a.66661.66661,0,0,1-.66656-.66657ZM21.80505,4.75476,20.24524,3.195a.66381.66381,0,0,0-.93988,0L18.07892,4.41479l2.49963,2.49964,1.2265-1.21985A.66374.66374,0,0,0,21.80505,4.75476ZM19,11.167V19a1.001,1.001,0,0,1-1,1H5a1.001,1.001,0,0,1-1-1V10A1.001,1.001,0,0,1,5,9h5.89685l2-2H5a3.00328,3.00328,0,0,0-3,3v9a3.00328,3.00328,0,0,0,3,3H18a3.00328,3.00328,0,0,0,3-3V10a2.96813,2.96813,0,0,0-.10089-.73212Z" fill="#8f9dc9"/><path d="M24,24H0V0H24Z" fill="none"/></svg>