<svg xmlns="http://www.w3.org/2000/svg" viewBox="0 0 24 24">
  <path d="M3,7h9a1,1,0,0,1,1,1h0a1,1,0,0,1-1,1H3A1,1,0,0,1,2,8H2A1,1,0,0,1,3,7Z" fill="#8f9dc9"/>
  <path d="M3,11h7a1,1,0,0,1,1,1h0a1,1,0,0,1-1,1H3a1,1,0,0,1-1-1H2A1,1,0,0,1,3,11Z" fill="#8f9dc9"/>
  <path d="M3,15h9a1,1,0,0,1,1,1h0a1,1,0,0,1-1,1H3a1,1,0,0,1-1-1H2A1,1,0,0,1,3,15Z" fill="#8f9dc9"/>
  <path d="M21,11H18.5V8.5a1,1,0,0,0-2,0V11H14a1,1,0,0,0,0,2h2.5v2.5a1,1,0,0,0,2,0V13H21a1,1,0,0,0,0-2Z" fill="#8f9dc9"/>
  <rect width="24" height="24" fill="none"/>
</svg>
