<svg xmlns="http://www.w3.org/2000/svg" viewBox="0 0 24 24">
  <path d="M10.47444,13.52556a1.05321,1.05321,0,0,1,0,1.53638,1.09056,1.09056,0,0,1-1.53638,0,5.41353,5.41353,0,0,1,0-7.64944h0l3.83013-3.83014a5.409,5.409,0,0,1,7.64945,7.64945l-1.61212,1.61212a7.47394,7.47394,0,0,0-.43279-2.61834l.50853-.51934a3.24386,3.24386,0,0,0-4.58751-4.58751L10.47444,8.93806a3.22608,3.22608,0,0,0,0,4.5875m3.05112-4.5875a1.09056,1.09056,0,0,1,1.53638,0,5.41353,5.41353,0,0,1,0,7.64944h0l-3.83013,3.83014a5.409,5.409,0,0,1-7.64945-7.64945l1.61212-1.61212a7.5748,7.5748,0,0,0,.43279,2.62916l-.50853.50852a3.24386,3.24386,0,0,0,4.58751,4.58751l3.81931-3.81932a3.22608,3.22608,0,0,0,0-4.5875A1.05321,1.05321,0,0,1,13.52556,8.93806Z" fill="#8f9dc9"/>
</svg>
