<svg xmlns="http://www.w3.org/2000/svg" viewBox="0 0 24 24">
  <path d="M12,4a8,8,0,1,1-8,8,8.00907,8.00907,0,0,1,8-8m0-2A10,10,0,1,0,22,12,10,10,0,0,0,12,2Z M11.09131,12.21191a2.06061,2.06061,0,0,1,.7207-1.01171,3.8618,3.8618,0,0,0,.75879-.73536,1.16334,1.16334,0,0,0,.25293-.69336.98232.98232,0,0,0-.19824-.68359.79394.79394,0,0,0-.6084-.21191.75207.75207,0,0,0-.58789.26269,1.25076,1.25076,0,0,0-.25293.79688H8.71533a2.83276,2.83276,0,0,1,.919-2.29,3.66213,3.66213,0,0,1,2.38281-.73145,3.71024,3.71024,0,0,1,2.40625.70117,2.46774,2.46774,0,0,1,.86133,2.03321,2.1227,2.1227,0,0,1-.168.875,2.43365,2.43365,0,0,1-.43359.666q-.26661.29151-.76563.74219l-.2666.23926a1.96934,1.96934,0,0,0-.544.68066,2.52512,2.52512,0,0,0-.167.89844H10.88916A4.75194,4.75194,0,0,1,11.09131,12.21191Zm1.53418,2.49121a1.21937,1.21937,0,0,1,.64941,1.1045,1.26445,1.26445,0,0,1-.1709.65332,1.21853,1.21853,0,0,1-.47851.457,1.42743,1.42743,0,0,1-.69727.168,1.44426,1.44426,0,0,1-.70019-.168,1.23993,1.23993,0,0,1-.48633-.457,1.2572,1.2572,0,0,1-.17383-.65332,1.23582,1.23582,0,0,1,.17383-.64942,1.26608,1.26608,0,0,1,.48242-.45508,1.55349,1.55349,0,0,1,1.40137,0Z" fill="#8f9dc9"/>
</svg>
