<svg xmlns="http://www.w3.org/2000/svg" width="24" height="24.001" viewBox="0 0 24 24.001" >
    <path data-name="al-ico-model-endpoints" d="m15 19 3 3h-2v1a1 1 0 0 1-2 0v-1h-2zM11.933 7.85a1.705 1.705 0 0 0 0 3.409 1.705 1.705 0 0 0 0-3.409M10 21v-1a1 1 0 0 0-2 0v1H6l3 3 3-3zm13.992-9.878A6.349 6.349 0 0 1 17.737 17H15.97l-.97-.942-.979.942H10a1 1 0 0 0-2 0H4.385a4.5 4.5 0 0 1-4.367-4.011 4.2 4.2 0 0 1 2.5-4.234 4.153 4.153 0 0 1 5.128-5.008A5.989 5.989 0 0 1 19.09 4.91a5.993 5.993 0 0 1 4.9 6.212M17 8.885l-1.555-.556-.223-.555.667-1.445-.778-.777-1.444.666L13.111 6l-.556-1.56h-1.11L10.889 6l-.556.222-1.444-.67-.778.777.667 1.445-.222.555L7 8.885V10l1.555.556.223.555-.667 1.445.778.778 1.445-.667.555.222.556 1.555h1.11l.556-1.555c.222-.111.334-.111.556-.222l1.444.666.778-.777-.667-1.445.223-.555L17 10z" style="fill:#8f9dc9"/>
    <path data-name="al-ico-model-endpoints" transform="translate(0 .001)" style="fill:none" d="M0 0h24v24H0z"/>
</svg>
