<svg xmlns="http://www.w3.org/2000/svg" viewBox="0 0 64 64">
  <g>
    <path d="M38.34,43.5c-1.07-.18-1.88-1.12-1.88-2.27,0-1.28,1-2.31,2.24-2.31h3.8c1.87-1.21,4.1-1.92,6.5-1.92,1.9,0,3.69,.45,5.29,1.24-.28-.94-1.12-1.62-2.13-1.63H11.83c-1.24,0-2.24,1.03-2.24,2.31v4.62c0,1.27,1,2.3,2.24,2.31h4.48v2.31h8.96v-2.31h12.16c.22-.82,.53-1.61,.91-2.35Zm-22.05,.04c-1.24,0-2.24-1.03-2.24-2.31s1-2.31,2.24-2.31,2.24,1.03,2.24,2.31-1,2.31-2.24,2.31Zm8.97,0c-1.24,0-2.24-1.03-2.24-2.31s1-2.31,2.24-2.31,2.24,1.03,2.24,2.31-1.01,2.31-2.24,2.31Z" fill="#8492c2"/>
    <path d="M11.83,18.17H52.17c1.24,0,2.24-1.03,2.24-2.31v-4.62c0-1.27-1-2.3-2.24-2.31H11.83c-1.24,0-2.24,1.03-2.24,2.31v4.62c0,1.27,1,2.3,2.24,2.31Zm26.89-6.94h8.96c1.24,0,2.24,1.03,2.24,2.31s-1,2.31-2.24,2.31h-8.96c-1.24,0-2.24-1.03-2.24-2.31s1-2.31,2.24-2.31Zm-13.45,0c1.24,0,2.24,1.03,2.24,2.31s-1,2.3-2.24,2.31c-1.24,0-2.24-1.03-2.24-2.31s1-2.31,2.24-2.31Zm-8.96,0c1.24,0,2.24,1.03,2.24,2.31s-1,2.3-2.24,2.31c-1.24,0-2.24-1.03-2.24-2.31s1-2.31,2.24-2.31Z" fill="#8492c2"/>
    <path d="M11.83,32.01H52.17c1.24,0,2.24-1.03,2.24-2.31v-4.62c0-1.27-1-2.3-2.24-2.31H11.83c-1.24,0-2.24,1.03-2.24,2.31v4.62c0,1.27,1,2.3,2.24,2.31Zm26.88-6.94h8.96c1.24,0,2.24,1.03,2.24,2.31s-1,2.31-2.24,2.31h-8.96c-1.24,0-2.24-1.03-2.24-2.31s1-2.31,2.24-2.31Zm-13.45,0c1.24,0,2.24,1.03,2.24,2.31s-1,2.3-2.24,2.31c-1.24,0-2.24-1.03-2.24-2.31s1-2.31,2.24-2.31Zm-8.96,0c1.24,0,2.24,1.03,2.24,2.31s-1,2.3-2.24,2.31c-1.24,0-2.24-1.03-2.24-2.31s1-2.31,2.24-2.31Z" fill="#8492c2"/>
  </g>
  <path d="M49,39c-5.52,0-10,4.48-10,10s4.48,10,10,10,10-4.48,10-10-4.48-10-10-10Zm-1.99,14.99l-3.5-3.5,1.41-1.41,2.09,2.09,6.08-6.08,1.41,1.41-7.5,7.5h.01Z" fill="#21b553"/>
</svg>