<svg xmlns="http://www.w3.org/2000/svg" viewBox="0 0 24 24">
  <path d="M18.572,17.0368v-.86225l-2.734,1.367,2.734,1.388v-.82019c0,.021.7571.29443.82019.52576.08412.31546-.12618.46267-.33649.63092a3.05278,3.05278,0,0,1-1.17771.42061,24.95753,24.95753,0,0,1-5.8675.4837c-5.489,0-7.1714-.715-7.42377-1.2408.06309-1.26183,4.795-2.31336,4.795-2.31336C6.43743,16.78444,2,17.35226,2,19.05573c0,2.52366,6.16193,2.98633,9.96845,2.98633C15.22818,22.04206,22,21.57939,22,19.05573c0-1.05152-1.55626-1.66141-3.428-2.01893m-7.50789.29443c-1.21977.10515-2.082.44164-2.082.84122,0,.50473,1.367.90431,3.0284.90431s3.00736-.39958,3.00736-.90431c0-.39958-.88328-.715-2.061-.84122V12.78864h1.82965l-2.776-2.83911L9.21346,12.78864h1.85068Zm3.5121-10.8307H11.71609v-.021c.33649-.33649.65194-.715.9674-1.09359l1.76656-2.29232V1.95794H9.613V3.4511h2.60778v.021c-.33649.35752-.58885.673-.92534,1.07256L9.42376,6.94217V8.01472h5.15248Z" fill="#8f9dc9" />
  <path d="M24,24H0V0H24Z" fill="none"/>
</svg>
