<svg xmlns="http://www.w3.org/2000/svg" viewBox="0 0 64 64">
  <g>
    <path d="M27.88,43.04l-5,5-5-5h3.33v-1.67c0-.92.75-1.67,1.67-1.67s1.67.75,1.67,1.67v1.67h3.33ZM27.88,44.71h3.33v1.67c0,.92.75,1.67,1.67,1.67s1.67-.75,1.67-1.67v-1.67h3.33l-5-5-5,5ZM28.84,22.31c-.26-.15-.55-.23-.84-.23h0c-.28,0-.56.07-.81.21l-.08.05h0c-.51.32-.82.88-.81,1.49,0,.62.33,1.2.86,1.51h.01c.83.48,1.87.18,2.34-.66.47-.84.17-1.9-.65-2.38ZM47.87,26.58c-.28,5.38-5.03,9.8-10.42,9.8H15.19c-3.67,0-6.95-3.03-7.28-6.68-.28-3.14,1.52-5.89,4.17-7.06-.12-.51-.2-1.04-.2-1.59,0-3.87,3.13-7,7-7,.61,0,1.18.1,1.74.25,1.49-3.66,5.06-6.25,9.26-6.25,4.9,0,8.96,3.53,9.82,8.18,4.82.89,8.44,5.22,8.17,10.35ZM35.47,22.89c-.51-.3-1.16-.12-1.45.4l-.1.17h-3.5l-.06-.26s0,0,0,0c0,0,0,0,0,0,0,0,0-.02,0-.02l-.07-.25,3.02-1.77.16.1c.33.19.73.19,1.06,0,.51-.3.68-.96.39-1.47-.19-.33-.54-.54-.92-.54-.59,0-1.06.48-1.06,1.08v.19l-.16.1-2.87,1.69-.18-.2s0,0,0,0c0,0,0,0,0,0h0s0,0,0,0h0s0,0,0,0l-.17-.18,1.74-3.07h.19c.59,0,1.06-.48,1.06-1.08,0-.6-.47-1.08-1.06-1.08-.19,0-.37.05-.53.15-.51.3-.68.96-.39,1.47l.09.17-1.74,3.08-.24-.07h0s0,0,0,0c0,0-.01,0-.02,0l-.25-.06v-3.55l.16-.1c.16-.09.3-.23.39-.39.29-.52.12-1.17-.39-1.47-.51-.3-1.15-.12-1.45.39-.29.52-.12,1.17.39,1.47l.16.1v3.56l-.25.06s0,0,0,0c0,0-.02,0-.02,0l-.25.08-1.75-3.08.09-.17c.19-.33.19-.74,0-1.08-.29-.52-.94-.69-1.45-.39-.51.3-.68.96-.39,1.47.19.33.54.54.92.54h.19l1.74,3.08-.19.19h0s-.01.02-.01.02l-.18.19-3.03-1.78v-.19c0-.39-.2-.74-.53-.93,0,0-.02-.01-.03-.01-.51-.29-1.16-.1-1.44.42-.29.52-.1,1.18.41,1.47.33.19.73.19,1.06,0l.16-.1,3.01,1.77-.06.24s0,.03-.01.05h0s-.07.26-.07.26h-3.49l-.1-.17c-.19-.33-.54-.54-.92-.54-.38,0-.73.21-.92.54-.29.52-.12,1.17.39,1.47.51.3,1.16.12,1.45-.4l.1-.17h3.5l.06.26s0,0,0,0c0,0,0,0,0,.01l.07.26-3.02,1.78-.16-.1c-.16-.1-.34-.15-.53-.14-.48,0-.9.33-1.03.8-.07.28-.03.57.11.82.19.33.54.54.92.54.59,0,1.06-.48,1.06-1.08v-.19l.16-.1,2.85-1.68.18.17h0s0,0,0,0c.01.01.02.02.04.03l.18.18-.13.22-1.62,2.85h-.19c-.38,0-.73.21-.92.54-.29.52-.12,1.18.39,1.47.33.19.74.19,1.06,0,.51-.3.68-.96.38-1.47l-.09-.17,1.74-3.07.26.07h.01s0,0,0,0h0s.25.07.25.07v3.55l-.16.1c-.33.19-.53.55-.53.93,0,.6.47,1.08,1.06,1.08h0c.38,0,.73-.21.92-.54.29-.52.12-1.18-.38-1.48l-.16-.1v-3.55l.26-.07h.02l.25-.08,1.75,3.08-.09.17c-.19.33-.19.75,0,1.08,0,0,0,0,0,0,.29.51.94.69,1.45.39.51-.3.68-.96.39-1.47-.19-.33-.54-.54-.92-.54h-.19l-1.75-3.08.19-.18h0s0,0,0,0h0s.01-.02.02-.02h0s.18-.18.18-.18l.21.13,2.8,1.65v.19c0,.38.2.74.53.93.33.19.73.19,1.06,0,.51-.3.68-.96.39-1.47-.29-.52-.94-.69-1.45-.4l-.16.1-.16-.1-2.86-1.68.07-.25s0-.02,0-.02c0,0,0-.02,0-.03l.07-.24h3.49l.1.17c.09.16.23.3.39.4.51.3,1.16.12,1.45-.4.29-.52.12-1.18-.39-1.47Z" fill="#afe61e"/>
  </g>
  <path d="m49,39c-5.52,0-10,4.48-10,10s4.48,10,10,10,10-4.48,10-10-4.48-10-10-10Z" fill="#50beff"/>
  <path id="idle-s" d="m50.44,49.24v-4.48c0-.67-.55-1.22-1.22-1.22s-1.22.55-1.22,1.22v4.88s.01.04.01.05c-.01.33.1.66.35.91l4.31,3.61c.12.09.34.25.56.25.43,0,.77-.35.77-.77,0-.21-.1-.39-.23-.55l-3.33-3.91Z" fill="#fff"/>
</svg>