<svg xmlns="http://www.w3.org/2000/svg" viewBox="0 0 24 24">
  <rect width="24" height="24" fill="none"/>
  <path d="M8.08777,4.041a.61783.61783,0,1,1,.61786.61786A.61783.61783,0,0,1,8.08777,4.041ZM6.92651,3.0879c.01331.00049.02668.00049.04,0a.54416.54416,0,1,0-.04,0ZM9.60938,16.96936H3.87292A1.87365,1.87365,0,0,1,2,15.095L5.27948,9.71814a1.92154,1.92154,0,0,1,.0249-.24713V6.85083a.74067.74067,0,0,1,.15991-1.46374h.24787a.88744.88744,0,0,1,1.75116,0H9.53644a.74067.74067,0,0,1,.15991,1.46374V9.471a2.10762,2.10762,0,0,1,.02344.24713l1.49212,2.14319a5.49119,5.49119,0,0,0-1.60253,5.108ZM5.972,13.26874a.77963.77963,0,0,0-.77906-.78009H5.192a.77954.77954,0,1,0,.78.78009Zm2.15759,1.50757a.68824.68824,0,1,0-.68823.68823A.68824.68824,0,0,0,8.12958,14.77631Zm.88879-3.41956a1.14877,1.14877,0,1,0-1.14874,1.14881A1.14878,1.14878,0,0,0,9.01837,11.35675ZM22,16.5A5.5,5.5,0,1,1,16.5,11,5.5,5.5,0,0,1,22,16.5Zm-3.70392-4.11249A8.39787,8.39787,0,0,1,19.18805,16h1.769A4.49438,4.49438,0,0,0,18.29608,12.38751Zm-3.58484,8.22522A8.39871,8.39871,0,0,1,13.81921,17h-1.769A4.49445,4.49445,0,0,0,14.71124,20.61273Zm0-8.22522A4.49449,4.49449,0,0,0,12.05023,16h1.769A8.397,8.397,0,0,1,14.71124,12.38751ZM18.19153,17h-3.3758c.119,2.41241,1.05054,3.99121,1.68793,3.99121S18.07257,19.41241,18.19153,17Zm0-1c-.11908-2.41235-1.05054-3.99091-1.68787-3.99091S14.93481,13.58765,14.81573,16Zm2.7655,1h-1.769a8.39874,8.39874,0,0,1-.892,3.61273A4.49448,4.49448,0,0,0,20.957,17Z"/>
</svg>
