<svg xmlns="http://www.w3.org/2000/svg" viewBox="0 0 24 24">
  <rect width="24" height="24" fill="none"/>
  <path d="M8.08777,4.041a.61783.61783,0,1,1,.61786.61786A.61783.61783,0,0,1,8.08777,4.041ZM6.40271,2.52418a.54416.54416,0,1,1,.56378.56372c-.0133.00049-.02667.00049-.04,0A.54419.54419,0,0,1,6.40271,2.52418ZM9.4942,15.84754a5.47946,5.47946,0,0,1,1.71771-3.98621L9.71979,9.71814A2.10762,2.10762,0,0,0,9.69635,9.471V6.85083a.74067.74067,0,0,0-.15991-1.46374H7.46332a.88744.88744,0,0,0-1.75116,0H5.46429a.74067.74067,0,0,0-.15991,1.46374V9.471a1.92154,1.92154,0,0,0-.0249.24713L2,15.095a1.87365,1.87365,0,0,0,1.87292,1.87439H9.60938A5.522,5.522,0,0,1,9.4942,15.84754ZM5.19293,14.04773a.77954.77954,0,1,1-.001-1.55908h.001a.77954.77954,0,0,1,0,1.55908Zm2.24842,1.41681a.68823.68823,0,1,1,.68823-.68823A.6882.6882,0,0,1,7.44135,15.46454Zm.42828-2.959a1.14878,1.14878,0,1,1,1.14874-1.14881A1.14881,1.14881,0,0,1,7.86963,12.50556ZM14,16l4,1.45972L22,16v2l-4,1.63413L14,18Zm9.49512-2.50977a.49085.49085,0,0,0-.39246.204L18,12l-6.00507,1.99048L18,15.981l4.99512-1.65851v2.18927a.5.5,0,0,0,1,0V13.99023A.49972.49972,0,0,0,23.49512,13.49023Z"/>
</svg>
