<svg xmlns="http://www.w3.org/2000/svg" viewBox="0 0 24 24">
  <path d="M10.93211,13.06789a.73725.73725,0,0,1,0,1.07547.76341.76341,0,0,1-1.07547,0,3.78948,3.78948,0,0,1,0-5.35461h0l2.68109-2.6811a3.78629,3.78629,0,0,1,5.35462,5.35462l-1.12849,1.12848a5.23153,5.23153,0,0,0-.303-1.83284l.356-.36354a2.2707,2.2707,0,1,0-3.21125-3.21125L10.93211,9.85664a2.25825,2.25825,0,0,0,0,3.21125m2.13578-3.21125a.76341.76341,0,0,1,1.07547,0,3.78948,3.78948,0,0,1,0,5.35461h0l-2.68109,2.6811a3.78629,3.78629,0,0,1-5.35462-5.35462l1.12849-1.12848a5.3021,5.3021,0,0,0,.303,1.84041l-.356.356a2.2707,2.2707,0,0,0,3.21125,3.21125l2.67352-2.67352a2.25825,2.25825,0,0,0,0-3.21125A.73725.73725,0,0,1,13.06789,9.85664Z" fill="#8f9dc9"/>
</svg>
