<svg xmlns="http://www.w3.org/2000/svg" viewBox="0 0 24 24">
    <path d="M22.40732,16.36364H19.30478a3.38648,3.38648,0,0,0,.05912-.60006c0-.653-1.17933-1.44034-1.95943-1.96129l-.00426-.00266a6.56894,6.56894,0,0,0-.84162-.47008,6.00715,6.00715,0,0,1,.97373-.2975,2.1689,2.1689,0,0,0,2.57226,0,5.16284,5.16284,0,0,1,1.76793.71351c.52149.347,1.309.87278,1.309,1.309a2.19354,2.19354,0,0,1-.16353.81818.70166.70166,0,0,1-.61044.49086ZM18.81818,12A2.18182,2.18182,0,1,1,21,9.81818,2.18193,2.18193,0,0,1,18.81818,12Z M15.27273,8.72727A3.27273,3.27273,0,1,1,12,5.45455,3.27273,3.27273,0,0,1,15.27273,8.72727Zm1.30909,5.89091a7.86248,7.86248,0,0,0-2.65255-1.06964,3.25551,3.25551,0,0,1-3.85854,0,7.86248,7.86248,0,0,0-2.65255,1.06964c-.77018.51327-1.96363,1.30909-1.96363,1.96364s.26836,1.96363,1.16181,1.96363H17.38364c.89345,0,1.16181-1.30909,1.16181-1.96363S17.352,15.13145,16.58182,14.61818Z M4.69549,16.36364H1.593c-.18057,0-.43333-.085-.61071-.49086a2.19374,2.19374,0,0,1-.16353-.81818c0-.43626.78756-.96147,1.309-1.309a5.16174,5.16174,0,0,1,1.76873-.71351,2.16892,2.16892,0,0,0,2.57227,0,6.03,6.03,0,0,1,.97346.2975,6.46735,6.46735,0,0,0-.84136.47008c-.782.52148-1.96369,1.309-1.96369,1.96369a3.38732,3.38732,0,0,0,.05913.6ZM5.18208,12a2.182,2.182,0,1,0-.00026,0Z" fill="#8f9dc9"/>
</svg>
