<svg xmlns="http://www.w3.org/2000/svg" viewBox="0 0 24 24">
  <path d="M20.76,10.74,17,13.24a2.47694,2.47694,0,0,0-.88-1.88,4.37251,4.37251,0,1,0-5.3-.62H8.52a3.6836,3.6836,0,0,0,.98-2.5,3.75,3.75,0,1,0-6.2,2.82A2.533,2.533,0,0,0,2,13.24v5a2.50526,2.50526,0,0,0,2.5,2.52h10A2.50526,2.50526,0,0,0,17,18.24l3.76,2.52A1.25059,1.25059,0,0,0,22,19.5V12A1.25059,1.25059,0,0,0,20.76,10.74Zm-15,0a2.5,2.5,0,1,1,2.5-2.5A2.50091,2.50091,0,0,1,5.76,10.74Zm8.12.02A3.13,3.13,0,1,1,17,7.62,3.13257,3.13257,0,0,1,13.88,10.76Z" fill="#8f9dc9" />
  <path d="M24,24H0V0H24Z" fill="none"/>
</svg>
