<svg xmlns="http://www.w3.org/2000/svg" viewBox="0 0 24 24">
  <path d="M21,4H3A1,1,0,0,0,2,5V7A1,1,0,0,0,3,8H21a1,1,0,0,0,1-1V5A1,1,0,0,0,21,4ZM5,7A1,1,0,1,1,6,6,1,1,0,0,1,5,7ZM9,7a1,1,0,1,1,1-1A1,1,0,0,1,9,7ZM19,7H15a1,1,0,0,1,0-2h4a1,1,0,0,1,0,2Zm2,3H3a1,1,0,0,0-1,1v2a1,1,0,0,0,1,1H21a1,1,0,0,0,1-1V11A1,1,0,0,0,21,10ZM5,13a1,1,0,1,1,1-1A1,1,0,0,1,5,13Zm4,0a1,1,0,1,1,1-1A1,1,0,0,1,9,13Zm10,0H15a1,1,0,0,1,0-2h4a1,1,0,0,1,0,2Zm2,3H3a1,1,0,0,0-1,1v2a1,1,0,0,0,1,1H5v1H9V20h6v1h4V20h2a1,1,0,0,0,1-1V17A1,1,0,0,0,21,16ZM4,18a1,1,0,1,1,1,1A1,1,0,0,1,4,18Zm5,1a1,1,0,1,1,1-1A1,1,0,0,1,9,19Zm10,0H15a1,1,0,0,1,0-2h4a1,1,0,0,1,0,2Z" fill="#8f9dc9"/>
</svg>
