<svg xmlns="http://www.w3.org/2000/svg" viewBox="0 0 24 24">
  <path d="M21.99645,11.74487A9.00009,9.00009,0,0,1,13,21a8.88655,8.88655,0,0,1-4.7854-1.38617l1.46045-1.46045A6.92411,6.92411,0,0,0,13,19a7,7,0,0,0,6.99926-7.09967,7.09385,7.09385,0,0,0-6.89959-6.89959A7,7,0,0,0,6,12H7.98367a.5.5,0,0,1,.3961.80513L5.67334,16.31842a.99992.99992,0,0,1-1.41949-.00708L1.60468,12.8012A.5.5,0,0,1,2.00378,12H4a9.00009,9.00009,0,0,1,9.25513-8.99645A9.099,9.099,0,0,1,21.99645,11.74487ZM13,10a2,2,0,1,0,2,2A2,2,0,0,0,13,10Z" fill="#8f9dc9"/>
</svg>
