<svg xmlns="http://www.w3.org/2000/svg" viewBox="0 0 24 24">
  <polygon points="16.828 20 24 12.828 24 7.172 11.172 20 16.828 20" fill="transparent"/>
  <path d="M11.17157,20H2a2,2,0,0,1-2-2V6A2,2,0,0,1,2,4H22a2,2,0,0,1,2,2V7.17157Zm5.65686,0H22a2,2,0,0,0,2-2V12.82843Zm-2.32452-1.78711.77441-.77441.19824.19824-.542.541.32715.32813.46289-.46289.19141.19336-.46094.46094.32715.32812.542-.541.19726.19726-.77441.77539Zm2.1289-.89062,1.041.209-.27539.27344-.69922-.168.166.70312-.25585.25391L16.418,17.57227l-1.05176-.22168.2666-.26661.7168.17383-.16992-.7207.2539-.25391Zm.26758-1.50586.24414-.24414,1.69922.78808-.24609.24707-.41993-.2041-.46289.46387.20313.41992-.23535.23437Zm1.01758.46093-.64453-.31054.31445.64062Zm-.17383-1.30468.2168-.2168.0039.00391,1.15039.28906-.29882-1.14844.21484-.21484,1.24414,1.24414-.22656.22656-.83985-.83984.248.9414-.15234.15235-.92188-.2461.82813.82813-.22364.22461Zm1.56055-1.56055.39843-.39844a.58681.58681,0,0,1,.88184-.04785.60421.60421,0,0,1-.0459.88574l-.16406.16406.40625.40626-.23242.23437Zm.42578-.041.45117.45118.11914-.11915c.17969-.17968.18555-.3623.05469-.49316-.1543-.15332-.32422-.13965-.50781.04395Zm.62109-1.00586.23242-.23242,1.043,1.043.501-.501.20019.2002-.73339.73438Zm.89649-.89648.77343-.77344.19825.19727-.541.541.32715.32813.46289-.46289.19141.19336-.46094.46093.32715.32813.541-.541.19824.19825-.77441.77441Z" fill="#8f9dc9"/>
</svg>
