<svg xmlns="http://www.w3.org/2000/svg" viewBox="0 0 24 23.99995">
  <rect width="24" height="23.99995" fill="none"/>
  <path d="M17.91491,21.769l.20914-1.45758a4.14639,4.14639,0,0,0,.95549-.54449l1.40806.55546a.28808.28808,0,0,0,.34488-.12085l1.13081-1.90316a.27246.27246,0,0,0-.06787-.352l-1.19294-.91286A4.17306,4.17306,0,0,0,20.74206,16.5a4.59336,4.59336,0,0,0-.03958-.55009l1.19294-.8963a.27246.27246,0,0,0,.06787-.352l-1.13081-1.90316a.28156.28156,0,0,0-.34488-.12085l-1.40806.54987a4.12867,4.12867,0,0,0-.95549-.5389L17.91491,11.231A.2839.2839,0,0,0,17.63215,11H15.37029a.28347.28347,0,0,0-.28253.231l-.20937,1.45758a4.12867,4.12867,0,0,0-.95549.5389l-1.40783-.54987a.28176.28176,0,0,0-.34511.12085l-1.13081,1.90316a.26648.26648,0,0,0,.06787.352l1.19316.8963a4.54822,4.54822,0,0,0-.03957.55009,4.13352,4.13352,0,0,0,.03957.53353l-1.19316.91286a.26648.26648,0,0,0-.06787.352L12.17,20.20158a.28828.28828,0,0,0,.34511.12085L13.9229,19.767a3.95186,3.95186,0,0,0,.95549.54449l.20937,1.45758a.28347.28347,0,0,0,.28253.231h2.26186A.2839.2839,0,0,0,17.91491,21.769Zm-3.39267-5.27217a1.97974,1.97974,0,1,1,1.97909,1.92486A1.95257,1.95257,0,0,1,14.52224,16.49687ZM8.08777,4.041a.61783.61783,0,1,1,.61786.61786A.61783.61783,0,0,1,8.08777,4.041ZM9.42,15.46456a4.39963,4.39963,0,0,1,1.69532-3.4588L9.71979,9.71817A2.108,2.108,0,0,0,9.69635,9.471V6.85086a.74068.74068,0,0,0-.15991-1.46375H7.46332a.88744.88744,0,0,0-1.75116,0H5.46429a.74068.74068,0,0,0-.15991,1.46375V9.471a1.92152,1.92152,0,0,0-.0249.24714L2,15.095a1.87366,1.87366,0,0,0,1.87292,1.87439H9.7002A4.38767,4.38767,0,0,1,9.42,15.46456Zm-4.22711-1.4168a.77955.77955,0,1,1-.001-1.55909h.001a.77955.77955,0,0,1,0,1.55909Zm2.24842,1.4168a.68823.68823,0,1,1,.68823-.68823A.6882.6882,0,0,1,7.44135,15.46456Zm.42828-2.959a1.14878,1.14878,0,1,1,1.14874-1.1488A1.14881,1.14881,0,0,1,7.86963,12.50558ZM6.40271,2.52418a.54416.54416,0,1,1,.56378.56372c-.0133.00049-.02667.00049-.04,0A.54419.54419,0,0,1,6.40271,2.52418Z"/>
</svg>
