<svg xmlns="http://www.w3.org/2000/svg" viewBox="0 0 64 64">
  <g>
    <path d="M11.15,12.41l-4,2v35.1l4,2,0,0v-39l0,0" fill="#8c3123"/>
    <path d="M32.58,46.4,11.15,51.5V12.41l21.43,5v29" fill="#e05243"/>
    <path d="M22.91,38.43,32,39.58l.06-.13,0-14.88L32,24.45l-9.09,1.14V38.43" fill="#8c3123"/>
    <path d="M32,46.46l20.85,5,0,0v-39l0,0L32,17.45v29" fill="#8c3123"/>
    <path d="M41.09,38.43,32,39.58V24.45l9.09,1.14V38.43" fill="#e05243"/>
    <path d="M41.09,19.38,32,21l-9.09-1.65L32,17l9.1,2.38" fill="#5e1f18"/>
    <path d="M41.09,44.62,32,43l-9.09,1.67L32,47.15l9.1-2.53" fill="#f2b0a9"/>
    <path d="M22.91,19.38,32,17.13l.07,0v-15L32,2,22.91,6.54V19.38" fill="#8c3123"/>
    <path d="M41.09,19.38,32,17.13V2l9.09,4.54V19.38" fill="#e05243"/>
    <path d="M32,62l-9.09-4.54V44.62L32,46.87l.13.15,0,14.72L32,62" fill="#8c3123"/>
    <path d="M32,62l9.09-4.54V44.62L32,46.87V62" fill="#e05243"/>
    <path d="M52.85,12.41l4,2v35.1l-4,2V12.41" fill="#e05243"/>
  </g>
</svg>
