<svg xmlns="http://www.w3.org/2000/svg" width="20" height="20" viewBox="0 0 20 20">
    <path d="M20 20H0V0h20z" style="fill:none"/>
    <path d="M-697.167-195.666a1.667 1.667 0 0 1-1.667-1.667v-2.5a1.667 1.667 0 0 1 1.667-1.667H-693a1.667 1.667 0 0 1 1.667 1.667v2.5a1.667 1.667 0 0 1-1.667 1.667zm-9.167 0a1.667 1.667 0 0 1-1.666-1.668v-2.5a1.667 1.667 0 0 1 1.667-1.667h4.166a1.667 1.667 0 0 1 1.667 1.667v2.5a1.667 1.667 0 0 1-1.667 1.667zm9.167-7.5a1.667 1.667 0 0 1-1.667-1.667v-2.5a1.667 1.667 0 0 1 1.667-1.667H-693a1.667 1.667 0 0 1 1.667 1.667v2.5a1.667 1.667 0 0 1-1.667 1.667zm-9.167 0a1.667 1.667 0 0 1-1.666-1.668v-2.5a1.667 1.667 0 0 1 1.667-1.666h4.166a1.667 1.667 0 0 1 1.667 1.667v2.5a1.667 1.667 0 0 1-1.667 1.667z" transform="translate(709.667 212.333)" style="fill:#707ba3"/>
</svg>
