<svg xmlns="http://www.w3.org/2000/svg" viewBox="0 0 24 24">
  <path d="M7,7H6V6H7ZM17,6V7h1V6Zm0,12h1V17H17ZM6,17v1H7M20,6V18h2v4H18V20H6v2H2V18H4V6H2V2H6V4H18V2h4V6ZM6,17H5v2H7V18M19,5H17V6H7V5H5V7H6v8.75043a8.74954,8.74954,0,0,1,.87537-.304L9.81964,7.29919l.001-.00329a.47224.47224,0,0,1,.44427-.31214l.02667.0008h.00049a.46166.46166,0,0,1,.43781.34833l.3371,1.19122.56189-.60687.00048-.00061a.45985.45985,0,0,1,.35-.16114.45207.45207,0,0,1,.15515.02692l.00336.00092a.47307.47307,0,0,1,.32251.40362l.11236,1.33728.01264.00287A1.81521,1.81521,0,0,1,13.8988,10.929l2.1352.86529v-.00006l.003.00116a.47218.47218,0,0,1,.28113.43182.46552.46552,0,0,1-.0481.20758v.05616l-.01.02179a3.81035,3.81035,0,0,1-3.36127,2.09088h-.43829V18H17v1h2V17H18V7h1Z" fill="#8f9dc9"/>
</svg>
