<svg xmlns="http://www.w3.org/2000/svg" width="24" height="24" viewBox="0 0 24 24">
    <path d="M23.25964,11.53656c.33075,.19293,.33075,.67084,0,.86377l-10.75525,6.27417c-.3114,.18164-.69641,.18164-1.00775,0L.74133,12.40033c-.33075-.19293-.33075-.67084,0-.86377l1.57904-.92114c.1557-.09082,.34821-.09082,.50391,0l8.67236,5.05908c.31134,.18164,.69635,.18164,1.00775,0l8.6723-5.05908c.1557-.09082,.34821-.09082,.50391,0l1.57904,.92114Zm-11.76349,2.01184c.31134,.18158,.69635,.18158,1.00775,0l10.75574-6.27423c.33075-.19293,.33075-.67084,0-.86377L12.50391,.13623c-.3114-.18164-.69641-.18164-1.00775,0L.74042,6.4104c-.33075,.19293-.33075,.67084,0,.86377l10.75574,6.27423Zm10.18445,2.25629c-.1557-.09082-.34821-.09082-.50391,0l-8.6723,5.05908c-.3114,.18164-.69641,.18164-1.00775,0L2.82428,15.80469c-.1557-.09082-.34821-.09082-.50391,0l-1.57904,.92114c-.33075,.19293-.33075,.67084,0,.86377l10.75531,6.27417c.31134,.18164,.69635,.18164,1.00775,0l10.75525-6.27417c.33075-.19293,.33075-.67084,0-.86377l-1.57904-.92114Z" fill="#8f9dc9"/>
</svg>