<svg xmlns="http://www.w3.org/2000/svg" viewBox="0 0 24 24">
  <path d="M15.40054,14.14381a.62025.62025,0,0,1-.35642-1.126,1.78939,1.78939,0,0,0,.74687-1.18606c.00265-.618-.7136-1.12749-.72116-1.13391a.62025.62025,0,0,1,.69206-1.02922,2.91311,2.91311,0,0,1,1.26923,2.16691,2.99242,2.99242,0,0,1-1.27,2.19222A.6199.6199,0,0,1,15.40054,14.14381Z"  fill="#8f9dc9"/>
  <path d="M16.92073,16.53485a.62025.62025,0,0,1-.4101-1.08326A5.62627,5.62627,0,0,0,18.275,11.842a5.43069,5.43069,0,0,0-1.73035-3.57143.62025.62025,0,0,1,.82057-.92981,6.62458,6.62458,0,0,1,2.14989,4.50616,6.78055,6.78055,0,0,1-2.17974,4.53072A.61835.61835,0,0,1,16.92073,16.53485Z"  fill="#8f9dc9"/>
  <path d="M18.44131,18.9274a.62025.62025,0,0,1-.378-1.10973,7.20933,7.20933,0,0,0,1.3535-1.5527,7.91543,7.91543,0,0,0,1.34255-4.41166,7.80061,7.80061,0,0,0-1.30513-4.395,7.04784,7.04784,0,0,0-1.33953-1.54023.62.62,0,0,1,.76048-.97932h0a9.01534,9.01534,0,0,1,3.12429,6.9195,9.17675,9.17675,0,0,1-3.17494,6.93839A.61953.61953,0,0,1,18.44131,18.9274Z"  fill="#8f9dc9"/>
  <path d="M3,8H5v8H3a1.21342,1.21342,0,0,1-1-.97628V8.97621A1.21335,1.21335,0,0,1,3,8Z" fill="#8f9dc9"/>
  <path d="M2,15V8.998A.998.998,0,0,1,2.998,8H5v8H3A1,1,0,0,1,2,15Z" fill="#8f9dc9"/>
  <path d="M7,8l5.55279-3.27639A1,1,0,0,1,14,5.618V18.382a1,1,0,0,1-1.44721.89442L7,16Z" fill="#8f9dc9"/>
</svg>
