<svg xmlns="http://www.w3.org/2000/svg" viewBox="0 0 24 24" class="icon">
  <path d="M15,6V0l6,6Zm6,1V22a2,2,0,0,1-2,2H5a2,2,0,0,1-2-2V2A2,2,0,0,1,5,0h9V7ZM8.83,14.28a2.78,2.78,0,0,0-.57-.21A2.67,2.67,0,0,0,7.62,14a2.18,2.18,0,0,0-1.8.78A3.57,3.57,0,0,0,5.2,17a3.54,3.54,0,0,0,.62,2.24,2.18,2.18,0,0,0,1.8.78A2.59,2.59,0,0,0,8.25,20a2.66,2.66,0,0,0,.58-.21V18.49a2.42,2.42,0,0,1-.58.4,1.44,1.44,0,0,1-.57.13,1.06,1.06,0,0,1-1-.51A2.8,2.8,0,0,1,6.4,17a2.82,2.82,0,0,1,.32-1.49,1.05,1.05,0,0,1,1-.5,1.42,1.42,0,0,1,.57.12,2.42,2.42,0,0,1,.58.4Zm4.93,4a1.72,1.72,0,0,0-.33-1.08,2.27,2.27,0,0,0-1-.68l-.49-.19a2,2,0,0,1-.68-.35.52.52,0,0,1-.16-.4.55.55,0,0,1,.22-.48,1.06,1.06,0,0,1,.64-.17,2.31,2.31,0,0,1,.76.14,3,3,0,0,1,.75.4V14.36a4,4,0,0,0-.8-.27,3.57,3.57,0,0,0-.8-.09,2,2,0,0,0-1.4.45,1.61,1.61,0,0,0-.5,1.25,1.44,1.44,0,0,0,.31,1,2.87,2.87,0,0,0,1.17.7l.57.21a1,1,0,0,1,.45.31.72.72,0,0,1,.16.46.67.67,0,0,1-.23.54,1,1,0,0,1-.66.2,2.61,2.61,0,0,1-.86-.16,4,4,0,0,1-.89-.49v1.19a3.71,3.71,0,0,0,1.71.41,2.44,2.44,0,0,0,1.58-.43A1.64,1.64,0,0,0,13.76,18.3Zm5.07-4.19H17.67l-1,4.87-1-4.87H14.46l1.39,5.83h1.6Z" fill="#8f9dc9"/>
</svg>
