<svg xmlns="http://www.w3.org/2000/svg" viewBox="0 0 24 24">
  <path d="M17,19H6c-2.39258,0-4-2.35254-4-4.5498a4.14875,4.14875,0,0,1,1.8042-3.4209c-.00293-.05957-.0044-.12012-.0044-.17969A4.12319,4.12319,0,0,1,8.1665,6.707,5.49061,5.49061,0,0,1,18.1416,7.8584,5.49238,5.49238,0,0,1,22,13.09961C22,16,20.12988,19,17,19ZM7.9502,8.7002a2.12471,2.12471,0,0,0-2.08692,2.64062l.1875.80859-.76074.333A2.14928,2.14928,0,0,0,4,14.4502C4,15.6543,4.85547,17,6,17H17c1.87793,0,3-1.9834,3-3.90039A3.49353,3.49353,0,0,0,17.13574,9.666L16.459,9.541l-.125-.67676a3.4913,3.4913,0,0,0-6.67285-.67774l-.33008.8125-.84814-.2207A2.088,2.088,0,0,0,7.9502,8.7002Zm6.636.886-3.58636,3.58637L9.37079,11.5434,7.95673,12.95746l3.04315,3.04321,5.00043-5.00043Z" fill="#8f9dc9"/>
</svg>
