<svg xmlns="http://www.w3.org/2000/svg" viewBox="0 0 24 24">
  <path d="M19.198,21H4.8028a2.77962,2.77962,0,0,1-2.41287-1.36478,2.71814,2.71814,0,0,1-.0332-2.74887L9.55725,4.41694A2.769,2.769,0,0,1,12.00039,3h.001a2.77163,2.77163,0,0,1,2.447,1.42273l7.18978,12.45395a2.72176,2.72176,0,0,1-.02734,2.75852A2.77962,2.77962,0,0,1,19.198,21ZM12.00039,4.97811a.7864.7864,0,0,0-.69818.40567l-.00586.01062L4.09876,17.858a.76361.76361,0,0,0,.01563.77463.78515.78515,0,0,0,.68841.38925H19.198a.78515.78515,0,0,0,.68841-.38925.76838.76838,0,0,0,.00977-.78429L12.70638,5.3944A.794.794,0,0,0,12.00039,4.97811Zm-1.57212-.07437h0Zm1.57212,11.23131a.98689.98689,0,1,0,.99766.98683A.99229.99229,0,0,0,12.00039,16.13505Zm.49928-2.56733.50063-4.53488a.99745.99745,0,0,0-.99991-.98905h0a.99745.99745,0,0,0-.99991.98905l.5012,4.53488C11.50168,14.11169,12.49967,14.11169,12.49967,13.56772Z" fill="#8f9dc9"/>
</svg>
