<svg xmlns="http://www.w3.org/2000/svg" width="24" height="24" viewBox="0 0 24 24">
    <path style="fill:none" d="M0 0h24v24H0z"/>
    <path d="M7.08 6.11a5 5 0 1 1 7.7 5.04.5.5 0 0 1-.78-.42v-1.3a.486.486 0 0 1 .15-.34 3 3 0 0 0-3.1-4.93 2.93 2.93 0 0 0-1.9 1.9 3 3 0 0 0 .7 3.03.509.509 0 0 1 .15.35v1.3a.5.5 0 0 1-.77.43 4.99 4.99 0 0 1-2.15-5.04zm7.7 6.74a.5.5 0 0 0-.78.42v1.3a.529.529 0 0 0 .15.35 2.989 2.989 0 0 1 .7 3.03 2.909 2.909 0 0 1-1.9 1.9 3 3 0 0 1-3.1-4.93.486.486 0 0 0 .15-.34v-1.31a.5.5 0 0 0-.77-.43 5 5 0 1 0 5.55 0z" transform="rotate(-90 12.002 11.999)" style="fill:#8492c2"/>
</svg>
