<svg xmlns="http://www.w3.org/2000/svg" viewBox="0 0 24 24">
  <path d="M20.95323,5.179c-.106-.0848-.1908-.1484-.2968-.2332-7.611-5.57573-12.29628.65721-12.29628.65721L6.1977,5.00944l1.22962,8.48019c0-.0212.0212-.0212.0424-.0424a61.09835,61.09835,0,0,1,7.44137-5.27892s-1.31443-.57241-2.12-.89042c1.86564-1.75964,4.7065-3.87969,7.35656-2.58646a6.85726,6.85726,0,0,1,.93283.57241A.4434.4434,0,0,1,20.95323,5.179Zm.76322,6.975s1.35683-4.85491-1.86564-6.27534a4.33668,4.33668,0,0,0-3.71009.2332,11.07832,11.07832,0,0,1,5.27892,5.63933,5.03565,5.03565,0,0,1,.23321.65722,7.044,7.044,0,0,0,.2332-.67842C21.78005,12.0056,21.71645,12.154,21.71645,12.154ZM5.28608,17.22092a5.86982,5.86982,0,0,0,4.19769.67841c-2.56526-1.696-4.2189-7.33537-4.2189-7.33537l-2.03524.318L2,11.13638S3.166,15.92769,5.28608,17.22092ZM18.07,14.40125l-6.72056,2.94687a3.13168,3.13168,0,0,0,.40281.29681c.14841.106.50881.318.50881.318a6.7763,6.7763,0,0,1-8.247-.0848,8.90288,8.90288,0,0,0,11.36346,2.37446l.65721.46641,2.12-6.339Zm-6.31775,3.24368q.19081.1272.50881.318S11.90063,17.75093,11.75222,17.64493Z" fill="#8f9dc9" />
  <path d="M24,24H0V0H24Z" fill="none"/>
</svg>
