<svg xmlns="http://www.w3.org/2000/svg" viewBox="0 0 24 24">
  <path d="M17.60027,4.9H1.30092c-.01821-.001-.03952-.0015-.06094-.0015A1.24,1.24,0,0,0,.00105,6.08759L.001,6.09V22.3L0,22.35675a1.65016,1.65016,0,0,0,1.49436,1.64276L1.50092,24H17.40029a1.74047,1.74047,0,0,0,1.6999-1.69795l0-.00207V6.3a1.501,1.501,0,0,0-1.49661-1.4h-.00333ZM4.9008,8.5a1.5,1.5,0,0,1,0,3h0a1.54044,1.54044,0,0,1-1.4999-1.498l0-.002-.00014-.02053a1.48,1.48,0,0,1,1.438-1.47943l.002,0ZM1.70091,20.3l4.59982-6,2.19992,2.8,3.39987-4.8,5.59977,8ZM21.8001,0H6.90071c-.5,0-.9.6-.9,1.4s.4,1.4.9,1.4H19.00023a2.22018,2.22018,0,0,1,2.1999,2.19893V17c0,.5.6,1,1.39993,1S24,17.6,24,17V2.2A2.22017,2.22017,0,0,0,21.80116,0H21.8001Z" fill="#8f9dc9"/>
</svg>
