<svg xmlns="http://www.w3.org/2000/svg" xmlns:xlink="http://www.w3.org/1999/xlink" viewBox="0 0 64 64">
  <defs>
    <symbol id="a" data-name="A 3" viewBox="0 0 33.33 64">
      <g>
        <path d="M24.92,60.89,33.3,47.18a.17.17,0,0,0,0-.19.16.16,0,0,0-.22,0L22.26,58.32Z" fill="#c72e49"/>
        <path d="M6.4,24a37.44,37.44,0,0,0,7.39,10.5,38.59,38.59,0,0,0,3.65,3.24v-8ZM0,16.6l17.47,8.9V5.17L21.41,0V27.53l2.43,1.22A11.85,11.85,0,0,1,29.1,44.66a12.24,12.24,0,0,1-2,2.84l-9,9.4A2,2,0,0,0,21,59.6l1.22-1.32,2.69,2.59c-3.18,4.13-7.09,3.65-9.35,1.55a5.74,5.74,0,0,1-.25-8.1l9.07-9.45a8.1,8.1,0,0,0-1.75-12.5l-1.22-.64V44.58A41.12,41.12,0,0,1,0,16.6" fill="#c72e49"/>
      </g>
    </symbol>
  </defs>
  <use width="33.33" height="64" transform="matrix(0.94, 0, 0, -0.94, 16.37, 62)" xlink:href="#a"/>
</svg>
