<svg xmlns="http://www.w3.org/2000/svg" viewBox="0 0 24 24">
  <path d="M3,7H5A1,1,0,0,1,6,8H6A1,1,0,0,1,5,9H3A1,1,0,0,1,2,8H2A1,1,0,0,1,3,7Z M3,11H6a1,1,0,0,1,1,1H7a1,1,0,0,1-1,1H3a1,1,0,0,1-1-1H2A1,1,0,0,1,3,11Z M9,7h2a1,1,0,0,1,1,1h0a1,1,0,0,1-1,1H9A1,1,0,0,1,8,8H8A1,1,0,0,1,9,7Z M10,11H21a1,1,0,0,1,1,1h0a1,1,0,0,1-1,1H10a1,1,0,0,1-1-1H9A1,1,0,0,1,10,11Z M3,15H8a1,1,0,0,1,1,1H9a1,1,0,0,1-1,1H3a1,1,0,0,1-1-1H2A1,1,0,0,1,3,15Z M12,15h9a1,1,0,0,1,1,1h0a1,1,0,0,1-1,1H12a1,1,0,0,1-1-1h0A1,1,0,0,1,12,15Z M15,7h6a1,1,0,0,1,1,1h0a1,1,0,0,1-1,1H15a1,1,0,0,1-1-1h0A1,1,0,0,1,15,7Z" fill="#8f9dc9"/>
</svg>
