<svg xmlns="http://www.w3.org/2000/svg" viewBox="0 0 24 24">
  <path d="M14.83212,14.75a.5.5,0,0,1-.7071,0l-2.45709-2.45715a.49724.49724,0,0,1-.14551-.35871l-.001-.00494V8.74414a.5.5,0,0,1,1,0v2.988l2.31067,2.31073A.5.5,0,0,1,14.83212,14.75ZM12,4a8,8,0,0,0-8,8H2.056a.49486.49486,0,0,0-.34985.84479l3.00415,3.00415a.49481.49481,0,0,0,.69977,0l3.00421-3.00415A.49487.49487,0,0,0,8.06439,12H6a6,6,0,1,1,6,6,5.94648,5.94648,0,0,1-2.6048-.60107L7.92358,18.87054A7.99529,7.99529,0,1,0,12,4Z" fill="#8f9dc9"/>
</svg>
