<svg xmlns="http://www.w3.org/2000/svg" viewBox="0 0 24 24">
  <path d="M.51688,7.99H.51678A.5083.5083,0,0,0,0,8.48939l.00012.01051v6.18176l-.0001.01a.5083.5083,0,0,0,.51679.49937H23.48322A.5083.5083,0,0,0,24,14.69165l-.00012-.01051V8.48941L24,8.47932A.49341.49341,0,0,0,23.48363,8M3.99508,12.69414l-.02.00018a1.11861,1.11861,0,1,1,1.11861-1.11879h0v.00018a1.11858,1.11858,0,0,1-1.09756,1.1184l-.00106,0Zm4.21472,0a1.11861,1.11861,0,1,1,1.11861-1.11861h0v.00018A1.11861,1.11861,0,0,1,8.2098,12.69432l-.021-.00018.00105,0Zm12.764-.27964a.25967.25967,0,0,1-.25967.25967H15.72042a.25967.25967,0,0,1-.25967-.25967h0V10.7366a.2598.2598,0,0,1,.25948-.2497h4.99414a.25966.25966,0,0,1,.25946.24918l0,.0005ZM23.48307,0H.51678A.5083.5083,0,0,0,0,.49939L.00012.5099V6.70163L0,6.71163A.5083.5083,0,0,0,.51681,7.211H23.48322A.50829.50829,0,0,0,24,6.71163l-.00012-.01051V.51936L24,.50927A.51807.51807,0,0,0,23.48363,0H23.4831ZM3.99508,4.72411l-.02.00018A1.11861,1.11861,0,1,1,5.09372,3.6055h0v.00018a1.11858,1.11858,0,0,1-1.09756,1.1184l-.00106,0Zm4.21472,0-.02.00018A1.11861,1.11861,0,1,1,9.30844,3.6055h0A1.12873,1.12873,0,0,1,8.19037,4.72411H8.2098Zm12.764-.27964a.25967.25967,0,0,1-.25967.25967H15.72042a.25967.25967,0,0,1-.25967-.25967h0V2.76657a.25981.25981,0,0,1,.25948-.2497h4.99414a.25966.25966,0,0,1,.25946.24919l0,.00049ZM.51688,15.98H.51678A.5083.5083,0,0,0,0,16.47941l.00012.01051v6.18176l-.0001.01a.5083.5083,0,0,0,.51679.49937h2.9665v.55929A.26431.26431,0,0,0,3.752,24h4a.26431.26431,0,0,0,.26872-.25967V23.181H15.9793v.55948A.26387.26387,0,0,0,16.23717,24l.00051,0H20.248a.264.264,0,0,0,.25841-.25948v-.00021h0V23.181h2.97682A.5083.5083,0,0,0,24,22.68165l-.00012-.01051V16.45942L24,16.44933A.47042.47042,0,0,0,23.48363,16M3.99508,20.66416l-.02.00019a1.11861,1.11861,0,1,1,1.11861-1.11879h0v.00018a1.11858,1.11858,0,0,1-1.09756,1.1184l-.00106,0Zm4.21472,0a1.11861,1.11861,0,1,1,1.11861-1.1186h0v.00018A1.11861,1.11861,0,0,1,8.2098,20.66435l-.021-.00019.00105,0Zm12.764-.27963a.25967.25967,0,0,1-.25967.25967H15.72042a.25967.25967,0,0,1-.25967-.25967h0v-1.6779a.25981.25981,0,0,1,.25948-.2497h4.99414a.25966.25966,0,0,1,.25946.24919l0,.00049Z" fill="#8f9dc9"/>
</svg>
