<svg xmlns="http://www.w3.org/2000/svg" viewBox="0 0 24 24">
  <path d="M4.69433,13.27748a1.31273,1.31273,0,0,1-1.16092-.74069L3.53,12.529H0a3.53815,3.53815,0,0,0,2.637,2.998l.02439.00521a3.60674,3.60674,0,0,0-.10793.88673A3.69633,3.69633,0,0,0,4.599,19.72709l.02136.00967a3.63213,3.63213,0,0,0,6.81947,1.673l.00949-.01894V15.42132H8.86194v1.534a1.25918,1.25918,0,0,1,.7486,1.14944l-.00009.0157v-.0008l0,.00938a1.229,1.229,0,0,1-1.20961,1.22888l-.001,0a1.2476,1.2476,0,0,1-1.23826-1.23777v-.00049a1.3408,1.3408,0,0,1,.74075-1.16083l.00775-.00351V14.40487H11.551V9.94158H8.63093v-2.033H7.39267a1.24071,1.24071,0,0,1-1.13741.74879L6.22694,8.6571l.00139,0L6.196,8.65754a1.23869,1.23869,0,0,1-.034-2.47692l.00167,0h.06468a1.32211,1.32211,0,0,1,1.16089.74071l.00345.0078H9.61045V8.962h1.92209V2.61361A3.76616,3.76616,0,0,0,8.31992.70082l-.00318,0C8.29462.70029,8.26853.7,8.24239.7A3.62242,3.62242,0,0,0,4.62045,4.26482l0,.00289a3.63612,3.63612,0,0,0-1.9161,4.23l-.006-.02549A3.70781,3.70781,0,0,0,.00283,11.45439L0,11.47549H3.604a1.25,1.25,0,0,1,1.14343-.74868l.022.0002-.00111,0,.00939,0a1.229,1.229,0,0,1,1.22888,1.20962l0,.001a1.3309,1.3309,0,0,1-1.31121,1.31218h-.001Zm16.6334-4.80523a3.60714,3.60714,0,0,0,.112-.90308A3.6961,3.6961,0,0,0,19.4265,4.2774l-.02083-.00969a3.63213,3.63213,0,0,0-6.81947-1.673l-.00949.01894V5.32115h2.47652a1.25,1.25,0,0,1,1.14344-.74868l.022.0002-.0011,0,.01852-.00013A1.21977,1.21977,0,0,1,17.45583,5.7827v.00049a1.257,1.257,0,0,1-1.23729,1.23826l-.001,0a1.3221,1.3221,0,0,1-1.1609-.74071L15.05323,6.273H12.50278V18.286h1.91284v-2.3102h2.29171a1.25675,1.25675,0,1,1,1.23215,1.72789l-.00314.00013h-.06467a1.31273,1.31273,0,0,1-1.16092-.74069l-.00342-.00781H15.39514v2.36565H12.50278V21.3077a3.5725,3.5725,0,0,0,3.16037,1.91315l.04863-.00033-.00245,0h.00075a3.64089,3.64089,0,0,0,3.64005-3.56307l.00006-.00387A3.61773,3.61773,0,0,0,21.248,15.46069l.00585.02532c.15709,0,.268-.1109.41583-.14785V13.31442H17.5575V10.80093a1.266,1.266,0,1,1,1.70025-1.23107l0,.002v.06468a1.3225,1.3225,0,0,1-.768,1.16094l-.00819.0034v1.497h4.1676v2.4026A3.30774,3.30774,0,0,0,24,12.03352q0-.05553-.00181-.11059l.00013.00534a3.69971,3.69971,0,0,0-2.64443-3.44942l-.02616-.00664Z" fill="#8f9dc9"/>
</svg>
