<svg xmlns="http://www.w3.org/2000/svg" width="20" height="20" viewBox="0 0 20 20">
    <path style="fill:none" d="M0 0h20v20H0z"/>
    <path data-name="al-ico-flat-view" d="M7.333 4.833V6.5a.834.834 0 0 1-.833.833H4.833A.834.834 0 0 1 4 6.5V4.833A.834.834 0 0 1 4.833 4H6.5a.834.834 0 0 1 .833.833M6.5 9H4.833A.834.834 0 0 0 4 9.833V11.5a.834.834 0 0 0 .833.833H6.5a.834.834 0 0 0 .833-.833V9.833A.834.834 0 0 0 6.5 9m0 5H4.833a.834.834 0 0 0-.833.833V16.5a.834.834 0 0 0 .833.833H6.5a.834.834 0 0 0 .833-.833v-1.667A.834.834 0 0 0 6.5 14m5-10H9.833A.834.834 0 0 0 9 4.833V6.5a.834.834 0 0 0 .833.833H11.5a.834.834 0 0 0 .833-.833V4.833A.834.834 0 0 0 11.5 4m0 5H9.833A.834.834 0 0 0 9 9.833V11.5a.834.834 0 0 0 .833.833H11.5a.834.834 0 0 0 .833-.833V9.833A.834.834 0 0 0 11.5 9m0 5H9.833a.834.834 0 0 0-.833.833V16.5a.834.834 0 0 0 .833.833H11.5a.834.834 0 0 0 .833-.833v-1.667A.834.834 0 0 0 11.5 14m5-10h-1.667a.834.834 0 0 0-.833.833V6.5a.834.834 0 0 0 .833.833H16.5a.834.834 0 0 0 .833-.833V4.833A.834.834 0 0 0 16.5 4m0 5h-1.667a.834.834 0 0 0-.833.833V11.5a.834.834 0 0 0 .833.833H16.5a.834.834 0 0 0 .833-.833V9.833A.834.834 0 0 0 16.5 9m0 5h-1.667a.834.834 0 0 0-.833.833V16.5a.834.834 0 0 0 .833.833H16.5a.834.834 0 0 0 .833-.833v-1.667A.834.834 0 0 0 16.5 14" transform="translate(-.667 -.667)" style="fill:#8492c2"/>
</svg>
