<svg xmlns="http://www.w3.org/2000/svg" viewBox="0 0 24 24">
    <path d="M21,4.7764V4.5a3.00344,3.00344,0,0,0-3-3H3a3.00344,3.00344,0,0,0-3,3V15a3.00344,3.00344,0,0,0,3,3h.27649A4.49249,4.49249,0,0,0,7.5,21h12A4.50491,4.50491,0,0,0,24,16.5V9A4.49261,4.49261,0,0,0,21,4.7764ZM6.75,4.5A2.25,2.25,0,1,1,4.5,6.75,2.25,2.25,0,0,1,6.75,4.5Zm-.1095,7.51648,1.95008,2.037,4.22992-5.805,4.49249,6.7425H3.82654ZM22.5,16.5a3.00344,3.00344,0,0,1-3,3H7.5A2.99011,2.99011,0,0,1,4.91739,18H18a3.00344,3.00344,0,0,0,3-3V6.4173A2.99058,2.99058,0,0,1,22.5,9Z" fill="#8f9dc9"/>
</svg>
