<svg xmlns="http://www.w3.org/2000/svg" viewBox="0 0 24 24">
  <path d="M15.027,12.11225a2.87014,2.87014,0,0,0-.032-.337V8.20235a1.01,1.01,0,0,0-.218-1.99595H11.95a1.21018,1.21018,0,0,0-2.388,0H9.224a1.01,1.01,0,0,0-.218,1.99595v3.57291a2.61594,2.61594,0,0,0-.034.337L4.5,19.44407A2.555,2.555,0,0,0,7.054,22h9.89A2.556,2.556,0,0,0,19.5,19.44407h0ZM8.854,18.0161a1.063,1.063,0,1,1-.00136-2.12594H8.854a1.063,1.063,0,0,1,0,2.12594ZM11.92,19.948a.93848.93848,0,1,1,.9385-.93848A.93849.93849,0,0,1,11.92,19.948Zm.584-4.03489a1.56646,1.56646,0,1,1,1.5665-1.56646A1.56648,1.56648,0,0,1,12.504,15.91316Zm1.14-12.38469a.84248.84248,0,1,1-.8425.84248A.84249.84249,0,0,1,13.644,3.52847Zm-2.426-1.528a.742.742,0,1,1,.05447,1.483q-.02722.001-.05447,0a.742.742,0,0,1,0-1.483Z" fill="#8f9dc9"/>
</svg>
