<svg xmlns="http://www.w3.org/2000/svg" width="24" height="24" viewBox="0 0 24 24"><path d="M21.82843,19.82843a1.00007,1.00007,0,0,1-1.41422,0L19,18.41421l-1.41421,1.41422a1,1,0,0,1-1.41422-1.41422L17.58579,17l-1.41422-1.41421a1,1,0,0,1,1.41422-1.41422L19,15.58579l1.41421-1.41422a1,1,0,0,1,1.41422,1.41422L20.41421,17l1.41422,1.41421A1.00007,1.00007,0,0,1,21.82843,19.82843Z" fill="#ed8a83"/><path d="M19.80975,5.54242,14,12v7a.97112.97112,0,0,1-1.73755.6189L10,17V12L4.19025,5.54242C3.48883,4.518,4.54529,4,5.00543,4H18.99457C19.45471,4,20.51117,4.518,19.80975,5.54242Z" fill="#8f9dc9"/><path d="M24,24H0V0H24Z" fill="none"/></svg>