<svg xmlns="http://www.w3.org/2000/svg" viewBox="0 0 24 24">
  <path d="M6.375,15A1.375,1.375,0,1,1,5,16.375,1.37655,1.37655,0,0,1,6.375,15m0-2A3.375,3.375,0,1,0,9.75,16.375,3.375,3.375,0,0,0,6.375,13Z" fill="#8f9dc9"/>
  <path d="M15.044,16.82031a2.68083,2.68083,0,0,1-.7627-.1123l.42773-1.4375a1.17094,1.17094,0,0,0,.60059.01855l.3457,1.459A2.65427,2.65427,0,0,1,15.044,16.82031Zm1.80566-.70312-.98828-1.12891a2.19186,2.19186,0,0,0,.457-.583l1.30859.73438A3.7047,3.7047,0,0,1,16.84961,16.11719Zm-3.71191-.04785a3.95921,3.95921,0,0,1-.78418-.94532l1.28515-.77539a2.44727,2.44727,0,0,0,.4834.58985Zm4.93554-2.00782-1.43945-.42382a5.73594,5.73594,0,0,0,.1787-.86426l1.48634.19531A7.24348,7.24348,0,0,1,18.07324,14.06152ZM11.873,14.05273a6.48353,6.48353,0,0,1-.24121-1.10449l1.48828-.19336a4.92718,4.92718,0,0,0,.18457.84668ZM7.44336,11.94922h-1.5a8.55517,8.55517,0,0,1,.06738-1.09375l1.48828.19336A6.99521,6.99521,0,0,0,7.44336,11.94922ZM18.375,11.88965l-1.5-.02735.001-.14355h1.5Zm-6.80664-.02735a5.39891,5.39891,0,0,0-.07813-.875l1.47852-.25585a7.01263,7.01263,0,0,1,.09961,1.11328Zm-3.8877-1.6621L6.249,9.75293a4.79175,4.79175,0,0,1,.4834-1.0791L8.00977,9.459A3.30913,3.30913,0,0,0,7.68066,10.2002Zm3.585-.03516a3.16966,3.16966,0,0,0-.3789-.71289l1.2207-.873A4.759,4.759,0,0,1,12.666,9.626Zm-.90527-1.25488a1.738,1.738,0,0,0-.6289-.29688l.34375-1.46094a3.24052,3.24052,0,0,1,1.16992.54688ZM8.49121,8.90137,7.55566,7.72949a2.98427,2.98427,0,0,1,1.18653-.582L9.084,8.6084A1.49353,1.49353,0,0,0,8.49121,8.90137Z" fill="#8f9dc9"/>
  <path d="M17.625,4A3.375,3.375,0,1,1,14.25,7.375,3.375,3.375,0,0,1,17.625,4Z" fill="#8f9dc9"/>
</svg>
