<svg xmlns="http://www.w3.org/2000/svg" viewBox="0 0 24 24">
  <rect width="24" height="24" fill="none"/>
  <path d="M18.45548,15.54055a.89782.89782,0,0,1-.37836-.08915.88378.88378,0,0,1-.62365.25615,1.12538,1.12538,0,0,1-.27834-.04436.69554.69554,0,0,1-.568.30052h-.03349a3.76414,3.76414,0,0,0-.34532,1.603.214.214,0,0,1-.267.20049l-.13351-.03348a.21564.21564,0,0,1-.167-.22267,8.00914,8.00914,0,0,0-.12264-1.35817.78772.78772,0,0,1-.6567-.768c0-.05567.01131-.1.01131-.15569a.78089.78089,0,0,1-.36749-.668.80214.80214,0,0,1,.568-.75716.83052.83052,0,0,1,.8237-.79065.87733.87733,0,0,1,.38967.1.80875.80875,0,0,1,.7015-.37836.81948.81948,0,0,1,.69018.3675.95123.95123,0,0,1,.25616-.04436.83236.83236,0,0,1,.8237.74585.90005.90005,0,0,1-.3227,1.73656ZM21.929,16.8209l-1.002-1.52517a.67943.67943,0,0,1-.08915-.30052A3.92636,3.92636,0,0,0,13,15.34013a4.54344,4.54344,0,0,0,1.58084,3.37354.52586.52586,0,0,1,.18918.38967v2.24885a.34924.34924,0,0,0,.31182.34531l3.37355.30052a.33911.33911,0,0,0,.36749-.34532l-.00043-1.603a.19519.19519,0,0,1,.18918-.18918H20.192a.65091.65091,0,0,0,.65669-.6567l.00044-1.58128a.13517.13517,0,0,1,.13351-.13351h.57885a.431.431,0,0,0,.36749-.668ZM8.08777,4.041a.61783.61783,0,1,1,.61786.61786A.61783.61783,0,0,1,8.08777,4.041ZM6.92651,3.0879c.01331.00049.02668.00049.04,0a.54416.54416,0,1,0-.04,0ZM9.94827,17.00235l-6.07388-.033H3.87292A1.87365,1.87365,0,0,1,2,15.095L5.27948,9.71814a1.92154,1.92154,0,0,1,.0249-.24713V6.85083a.74067.74067,0,0,1,.15991-1.46374h.24787a.88744.88744,0,0,1,1.75116,0H9.53644a.74067.74067,0,0,1,.15991,1.46374V9.471a2.10762,2.10762,0,0,1,.02344.24713l1.93778,2.78742A5.64121,5.64121,0,0,0,9.94827,17.00235ZM5.972,13.26874a.77963.77963,0,0,0-.77906-.78009H5.192a.77954.77954,0,1,0,.78.78009Zm2.15759,1.50757a.68824.68824,0,1,0-.68823.68823A.68824.68824,0,0,0,8.12958,14.77631Zm.88879-3.41956a1.14877,1.14877,0,1,0-1.14874,1.14881A1.14878,1.14878,0,0,0,9.01837,11.35675Z"/>
</svg>
