<svg xmlns="http://www.w3.org/2000/svg" viewBox="0 0 64 64">
  <defs>
    <mask data-name="mask" x="8.58" y="6.61" width="44" height="43.75" maskUnits="userSpaceOnUse">
      <g data-name="mask0">
        <path d="m39.79,50.17c.69.27,1.48.25,2.18-.08l9.05-4.36c.95-.46,1.56-1.42,1.56-2.48V13.72c0-1.06-.6-2.02-1.56-2.48l-9.05-4.36c-.92-.44-1.99-.33-2.8.25-.11.08-.22.18-.33.28l-17.33,15.81-7.55-5.73c-.7-.53-1.69-.49-2.34.1l-2.42,2.2c-.8.73-.8,1.98,0,2.71l6.55,5.97-6.55,5.97c-.8.73-.8,1.98,0,2.71l2.42,2.2c.65.59,1.64.64,2.34.1l7.55-5.73,17.33,15.81c.27.27.6.48.94.62Zm1.8-31.67l-13.15,9.98,13.15,9.98v-19.96Z" fill="#fff" fill-rule="evenodd" stroke-width="0"/>
      </g>
    </mask>
    <linearGradient x1="30.57" y1="59.39" x2="30.57" y2="15.64" gradientTransform="translate(0 66) scale(1 -1)" gradientUnits="userSpaceOnUse">
      <stop offset="0" stop-color="#fff"/>
      <stop offset="1" stop-color="#fff" stop-opacity="0"/>
    </linearGradient>
  </defs>
  <g>
    <g mask="url(#b)">
      <g>
        <path d="m51.02,11.25l-9.06-4.36c-1.05-.5-2.3-.29-3.13.53l-29.66,27.04c-.8.73-.8,1.98,0,2.71l2.42,2.2c.65.59,1.64.64,2.34.1L49.66,12.38c1.2-.91,2.92-.05,2.92,1.45v-.11c0-1.06-.6-2.02-1.56-2.48Z" fill="#0065a9" stroke-width="0"/>
        <path d="m51.02,45.72l-9.06,4.36c-1.05.51-2.3.29-3.13-.53L9.18,22.51c-.8-.73-.8-1.98,0-2.71l2.42-2.2c.65-.59,1.64-.64,2.34-.1l35.72,27.1c1.2.91,2.92.05,2.92-1.45v.11c0,1.06-.6,2.02-1.56,2.48Z" fill="#007acc" stroke-width="0"/>
        <path d="m41.96,50.09c-1.05.5-2.3.29-3.13-.53,1.01,1.01,2.75.3,2.75-1.14V8.55c0-1.43-1.73-2.15-2.75-1.14.82-.82,2.08-1.04,3.13-.53l9.06,4.36c.95.46,1.56,1.42,1.56,2.48v29.54c0,1.06-.61,2.02-1.56,2.48l-9.06,4.36Z" fill="#1f9cf0" stroke-width="0"/>
        <g opacity=".25">
          <path d="m39.76,50.17c.69.27,1.48.25,2.18-.08l9.05-4.36c.95-.46,1.56-1.42,1.56-2.48V13.72c0-1.06-.6-2.02-1.56-2.48l-9.05-4.36c-.92-.44-1.99-.33-2.8.25-.11.08-.22.18-.33.28l-17.33,15.81-7.55-5.73c-.7-.53-1.69-.49-2.34.1l-2.42,2.2c-.8.73-.8,1.98,0,2.71l6.55,5.97-6.55,5.97c-.8.73-.8,1.98,0,2.71l2.42,2.2c.65.59,1.64.64,2.34.1l7.55-5.73,17.33,15.81c.27.27.6.48.94.62Zm1.8-31.67l-13.15,9.98,13.15,9.98v-19.96Z" fill="url(#d)" fill-rule="evenodd" stroke-width="0"/>
        </g>
      </g>
    </g>
  </g>
  <g>
    <circle cx="49" cy="49" r="12" fill="#0d0e15" stroke-width="0"/>
    <path d="m49,39c-5.52,0-10,4.48-10,10s4.48,10,10,10,10-4.48,10-10-4.48-10-10-10Z" fill="#d3ff00"/>
  </g>
</svg>