<svg xmlns="http://www.w3.org/2000/svg" viewBox="0 0 64 64">
  <path d="M48.18,8.05,60.85,30a4,4,0,0,1,0,4L48.18,56a4.1,4.1,0,0,1-3.53,2H19.35a4.1,4.1,0,0,1-3.53-2L3.15,34a4,4,0,0,1,0-4L15.85,8a4,4,0,0,1,3.46-2H44.65A4.1,4.1,0,0,1,48.18,8.05Z" fill="#0078d7"/>
  <path d="M41.05,15.5H21a4,4,0,0,0-4,4v25a4,4,0,0,0,4,4H43a4,4,0,0,0,4-4v-23Zm4,29a2,2,0,0,1-2,2H21a2,2,0,0,1-2-2v-25a2,2,0,0,1,2-2H40v5h5ZM27.19,23.78l-2.11.62V22.77l4.06-1.4h.19v9.24H27.19Zm8.12-2.54a2.9,2.9,0,0,0-2.37,1,4.43,4.43,0,0,0-.85,2.89v1.69a4.41,4.41,0,0,0,.85,2.88,3.3,3.3,0,0,0,4.76,0,4.42,4.42,0,0,0,.84-2.89V25.15a4.36,4.36,0,0,0-.85-2.88A2.91,2.91,0,0,0,35.31,21.24Zm1.09,5.92a3.25,3.25,0,0,1-.27,1.46.84.84,0,0,1-.8.47.87.87,0,0,1-.83-.48,3.35,3.35,0,0,1-.26-1.51V24.74a3.07,3.07,0,0,1,.27-1.39.85.85,0,0,1,.8-.45.87.87,0,0,1,.83.49,3.31,3.31,0,0,1,.26,1.49Zm-8.62,6.08a2.9,2.9,0,0,0-2.37,1,4.42,4.42,0,0,0-.84,2.89v1.69a4.41,4.41,0,0,0,.84,2.88,2.93,2.93,0,0,0,2.39,1,2.9,2.9,0,0,0,2.37-1A4.38,4.38,0,0,0,31,38.84V37.15a4.41,4.41,0,0,0-.84-2.88A3,3,0,0,0,27.78,33.24Zm1.09,5.92a3,3,0,0,1-.27,1.46.84.84,0,0,1-.8.47.88.88,0,0,1-.83-.48,3.35,3.35,0,0,1-.26-1.51V36.74A3.07,3.07,0,0,1,27,35.35a.93.93,0,0,1,1.63,0,3.31,3.31,0,0,1,.26,1.49Zm7.79-5.79h.2v9.24H34.72V35.78l-2.11.62V34.77Z" fill="#fff"/>
</svg>
