<svg xmlns="http://www.w3.org/2000/svg" viewBox="0 0 64 64">
  <g>
    <path d="m30.67,6.82l21.91,12.02v7l-21.91-12.02v-7Z" fill="rgba(255, 124, 0, .75)"/>
    <path d="m52.58,18.84l-22,12.06v7.05l22-12.06v-7.05Z" fill="#ff7c00"/>
    <path d="m8.58,18.84l22,12.06v7.05l-22-12.06v-7.05Z" fill="rgba(255, 124, 0, .75)"/>
    <path d="m30.67,6.78l-22.08,12.06v7.05l22.08-12.06v-7.05Z" fill="#ff7c00"/>
    <path d="m52.58,37.54v-6.55l-21.91-12.02v7l20.46,11.22c.5.09.99.2,1.46.35Z" fill="rgba(255, 124, 0, .75)"/>
    <path d="m49,37c1.25,0,2.45.19,3.58.54v-6.55l-22,12.06v7.05l6.7-3.68c1.18-5.39,5.97-9.43,11.72-9.43Z" fill="#ff7c00"/>
    <polygon points="8.58 38.04 30.58 50.11 30.58 43.06 8.58 31 8.58 38.04" fill="rgba(255, 124, 0, .75)"/>
    <path d="m30.67,18.93l-22.08,12.06v7.05l22.08-12.06v-7.05Z" fill="#ff7c00"/>
  </g>
  <path d="m49,39c-5.52,0-10,4.48-10,10s4.48,10,10,10,10-4.48,10-10-4.48-10-10-10Z" fill="#50beff"/>
  <path id="idle-s" d="m50.44,49.24v-4.48c0-.67-.55-1.22-1.22-1.22s-1.22.55-1.22,1.22v4.88s.01.04.01.05c-.01.33.1.66.35.91l4.31,3.61c.12.09.34.25.56.25.43,0,.77-.35.77-.77,0-.21-.1-.39-.23-.55l-3.33-3.91Z" fill="#fff"/>
</svg>