<svg xmlns="http://www.w3.org/2000/svg" viewBox="0 0 64 64">
    <path d="M30.67 6.81999L52.58 18.84V25.84L30.67 13.82V6.81999Z" fill="#FF7C00" fill-opacity="0.75"/>
    <path d="M52.58 18.84L30.58 30.9V37.95L52.58 25.89V18.84Z" fill="#FF7C00"/>
    <path d="M8.57999 18.84L30.58 30.9V37.95L8.57999 25.89V18.84Z" fill="#FF7C00" fill-opacity="0.75"/>
    <path d="M30.67 6.78L8.59 18.84V25.89L30.67 13.83V6.78Z" fill="#FF7C00"/>
    <path d="M52.58 37.54V30.99L30.67 18.97V25.97L51.13 37.19C51.63 37.28 52.12 37.39 52.59 37.54H52.58Z" fill="#FF7C00" fill-opacity="0.75"/>
    <path d="M49 37C50.25 37 51.45 37.19 52.58 37.54V30.99L30.58 43.05V50.1L37.28 46.42C38.46 41.03 43.25 36.99 49 36.99V37Z" fill="#FF7C00"/>
    <path d="M8.57999 38.04L30.58 50.11V43.06L8.57999 31V38.04Z" fill="#FF7C00" fill-opacity="0.75"/>
    <path d="M30.67 18.93L8.59 30.99V38.04L30.67 25.98V18.93Z" fill="#FF7C00"/>
    <path d="M49 39C43.48 39 39 43.48 39 49C39 54.52 43.48 59 49 59C54.52 59 59 54.52 59 49C59 43.48 54.52 39 49 39Z" fill="#50BEFF"/>
    <rect x="45" y="45" width="8" height="8" rx="1" fill="white"/>
</svg>
