<svg xmlns="http://www.w3.org/2000/svg" viewBox="0 0 24 24">
  <path d="M22,0H2C.9,0,0,.9,0,2V22c0,1.1,.9,2,2,2H22c1.1,0,2-.9,2-2V2c0-1.1-.9-2-2-2Zm-7.25,15.98l-3.13,3.1c-.92,.95-2.14,1.42-3.36,1.42s-2.44-.47-3.34-1.42c-1.88-1.83-1.88-4.85,0-6.72l1.91-1.93v.85c-.03,.71,.09,1.42,.31,2.04l.07,.21-.57,.58c-.44,.43-.68,1.01-.68,1.62s.24,1.18,.68,1.62c.86,.88,2.37,.88,3.23,0l3.12-3.1c.43-.44,.68-1.02,.68-1.63s-.26-1.18-.68-1.62c-.24-.23-.37-.54-.37-.88s.13-.64,.37-.88c.47-.47,1.29-.45,1.76,0,.89,.91,1.39,2.1,1.39,3.37s-.5,2.47-1.39,3.36Zm4.34-4.35l-1.9,1.93v-.85c.01-.71-.1-1.42-.33-2.04l-.07-.2,.57-.6c.44-.43,.68-1.01,.68-1.62s-.24-1.18-.68-1.62c-.86-.88-2.38-.86-3.23,0l-3.12,3.12c-.43,.43-.68,1.01-.68,1.62s.26,1.18,.68,1.62c.24,.23,.37,.54,.37,.88s-.13,.65-.37,.88c-.24,.24-.55,.35-.88,.35s-.64-.11-.88-.35c-1.86-1.86-1.86-4.87,0-6.73l3.13-3.1c1.86-1.88,4.87-1.87,6.7,0,.92,.88,1.42,2.07,1.42,3.34s-.5,2.47-1.42,3.37Z" fill="#8f9dc9"/>
</svg>