<svg width="24" height="24" viewBox="0 0 24 24" fill="none" xmlns="http://www.w3.org/2000/svg">
<path d="M3.995 6.995H2.005V2.005H6.995V3.995H3.995V6.995ZM3.995 20.005V17.005H2.005V21.995H6.995V20.005H3.995ZM20.005 20.005H17.005V21.995H21.995V17.005H20.005V20.005ZM20.005 3.995V6.995H21.995V2.005H17.005V3.995H20.005ZM7.01501 6.01501H17.015C17.2802 6.01501 17.5346 6.12036 17.7221 6.3079C17.9096 6.49543 18.015 6.74979 18.015 7.01501V17.015C18.015 17.2802 17.9096 17.5346 17.7221 17.7221C17.5346 17.9096 17.2802 18.015 17.015 18.015H7.01501C6.74979 18.015 6.49543 17.9096 6.3079 17.7221C6.12036 17.5346 6.01501 17.2802 6.01501 17.015V7.01501C6.01501 6.74979 6.12036 6.49543 6.3079 6.3079C6.49543 6.12036 6.74979 6.01501 7.01501 6.01501ZM16.005 8.005H8.005V16.005H16.005V8.005Z" fill="#8f9dc9"/>
</svg>
