<svg xmlns="http://www.w3.org/2000/svg" viewBox="0 0 64 64">
  <g>
    <path d="M52.17,36.62h-.13l2.37,3.92v-1.62c0-1.27-1-2.3-2.24-2.31Z" fill="#8492c2"/>
    <path d="M38.72,48.15h1.27l2.78-4.61h-4.06c-1.24,0-2.24-1.03-2.24-2.31s1-2.31,2.24-2.31h6.84l1.39-2.31H11.83c-1.24,0-2.24,1.03-2.24,2.31v4.62c0,1.27,1,2.3,2.24,2.31h4.48v2.31h8.96v-2.31h13.45v2.31Zm-22.41-4.61c-1.24,0-2.24-1.03-2.24-2.31,0-1.27,1-2.31,2.24-2.31s2.24,1.03,2.24,2.31-1,2.31-2.24,2.31Zm8.96,0c-1.24,0-2.24-1.03-2.24-2.31s1-2.31,2.24-2.31,2.24,1.03,2.24,2.31c0,1.27-1,2.31-2.24,2.31Z" fill="#8492c2"/>
    <path d="M11.83,32H52.17c1.24,0,2.24-1.03,2.24-2.31v-4.62c0-1.27-1-2.3-2.24-2.31H11.83c-1.24,0-2.24,1.03-2.24,2.31v4.62c0,1.27,1,2.3,2.24,2.31Zm26.89-6.92h8.96c1.24,0,2.24,1.03,2.24,2.31s-1,2.31-2.24,2.31h-8.96c-1.24,0-2.24-1.03-2.24-2.31s1-2.31,2.24-2.31Zm-13.45,0c1.24,0,2.24,1.03,2.24,2.31,0,1.27-1,2.3-2.24,2.31-1.24,0-2.24-1.03-2.24-2.31s1-2.31,2.24-2.31Zm-8.96,0c1.24,0,2.24,1.03,2.24,2.31,0,1.27-1,2.3-2.24,2.31-1.24,0-2.24-1.03-2.24-2.31s1-2.31,2.24-2.31Z" fill="#8492c2"/>
    <path d="M11.83,18.16H52.17c1.24,0,2.24-1.03,2.24-2.31v-4.62c0-1.27-1-2.3-2.24-2.31H11.83c-1.24,0-2.24,1.03-2.24,2.31v4.62c0,1.27,1,2.3,2.24,2.31Zm26.89-6.92h8.96c1.24,0,2.24,1.03,2.24,2.31s-1,2.31-2.24,2.31h-8.96c-1.24,0-2.24-1.03-2.24-2.31s1-2.31,2.24-2.31Zm-13.45,0c1.24,0,2.24,1.03,2.24,2.31,0,1.27-1,2.3-2.24,2.31-1.24,0-2.24-1.03-2.24-2.31s1-2.31,2.24-2.31Zm-8.96,0c1.24,0,2.24,1.03,2.24,2.31,0,1.27-1,2.3-2.24,2.31-1.24,0-2.24-1.03-2.24-2.31s1-2.31,2.24-2.31Z" fill="#8492c2"/>
  </g>
  <path id="alert" d="M59.22,52.89l-8-14c-.76-1.37-2.73-1.37-3.5,0l-8,14c-.74,1.33,.22,2.97,1.75,2.97h16c1.52,0,2.49-1.64,1.75-2.97Zm-9.75,.15c-.55,0-1-.45-1-1s.45-1,1-1,1,.45,1,1-.45,1-1,1Zm.5-4.59c0,.55-1,.55-1,0l-.5-4.59c0-.55,.45-1,1-1s1,.45,1,1l-.5,4.59Z" fill="#fd8934"/>
</svg>