<svg xmlns="http://www.w3.org/2000/svg" viewBox="0 0 24 24">
  <rect width="24" height="24" fill="none"/>
  <path d="M8.70563,4.6589A.61783.61783,0,1,0,8.08777,4.041.61783.61783,0,0,0,8.70563,4.6589ZM6.92651,3.0879c.01331.00049.02668.00049.04,0a.54416.54416,0,1,0-.04,0ZM9.60938,16.96936H3.87292A1.87365,1.87365,0,0,1,2,15.095L5.27948,9.71814a1.92154,1.92154,0,0,1,.0249-.24713V6.85083a.74067.74067,0,0,1,.15991-1.46374h.24787a.88744.88744,0,0,1,1.75116,0H9.53644a.74067.74067,0,0,1,.15991,1.46374V9.471a2.10762,2.10762,0,0,1,.02344.24713l1.49212,2.14319a5.49119,5.49119,0,0,0-1.60253,5.108ZM5.972,13.26874a.77963.77963,0,0,0-.77906-.78009H5.192a.77954.77954,0,1,0,.78.78009Zm2.15759,1.50757a.68824.68824,0,1,0-.68823.68823A.68824.68824,0,0,0,8.12958,14.77631Zm.88879-3.41956a1.14877,1.14877,0,1,0-1.14874,1.14881A1.14878,1.14878,0,0,0,9.01837,11.35675ZM16.6,22.72953l-2.617-8.6818L11.74414,19.9939H8v-2h2.25586l3.34252-9.772a.3969.3969,0,0,1,.7569.01852l2.67421,9.27745,1.9334-4.58148a.50275.50275,0,0,1,.9038-.09293l2.75147,5.15045H24v2H21.38184l-1.79422-3.29-2.16071,6.04562A.43525.43525,0,0,1,16.6,22.72953Z"/>
</svg>
