<svg xmlns="http://www.w3.org/2000/svg" viewBox="0 0 24 24" class="icon">
  <path d="M21,6H15V0ZM14,7h7V22a2,2,0,0,1-2,2H5a2,2,0,0,1-2-2V2A2,2,0,0,1,5,0h9Zm1.34,13.22h.58a2.09,2.09,0,0,0,1.3-.28,1.59,1.59,0,0,0,.32-1.16v-.84a1.14,1.14,0,0,1,.22-.81,1,1,0,0,1,.76-.23h.24v-.74h-.24a1,1,0,0,1-.76-.23,1.14,1.14,0,0,1-.22-.81v-.84a1.55,1.55,0,0,0-.32-1.15,2.08,2.08,0,0,0-1.3-.29h-.58v.74h.47a.71.71,0,0,1,.55.17,1.25,1.25,0,0,1,.14.72v.82a1.54,1.54,0,0,0,.19.9.94.94,0,0,0,.68.34,1,1,0,0,0-.68.35,1.56,1.56,0,0,0-.19.9v.8a1.27,1.27,0,0,1-.14.73.72.72,0,0,1-.55.17h-.47ZM9.11,12.84H8.53a2.12,2.12,0,0,0-1.31.29,1.5,1.5,0,0,0-.33,1.15v.84a1.29,1.29,0,0,1-.2.82,1.08,1.08,0,0,1-.76.22H5.69v.74h.24a1,1,0,0,1,.76.23,1.26,1.26,0,0,1,.2.81v.84a1.54,1.54,0,0,0,.33,1.16,2.13,2.13,0,0,0,1.31.28h.58v-.74H8.63a.68.68,0,0,1-.54-.17A1.27,1.27,0,0,1,8,18.58v-.8a1.56,1.56,0,0,0-.19-.9,1,1,0,0,0-.68-.35,1,1,0,0,0,.68-.34,1.54,1.54,0,0,0,.19-.9v-.82a1.25,1.25,0,0,1,.14-.72.68.68,0,0,1,.54-.17h.48Zm4,1.7H10.83v.88H12v3.33a1.21,1.21,0,0,1-.16.73.61.61,0,0,1-.54.22h-.91v.88h1.23a1.44,1.44,0,0,0,1.17-.42,2.17,2.17,0,0,0,.36-1.41Zm0-2.12H12v1.33h1.15Z" fill="#8f9dc9"/>
</svg>
