<svg xmlns="http://www.w3.org/2000/svg" viewBox="0 0 64 64">
  <path d="M62,47.53v2.89A1.54,1.54,0,0,1,60.5,52H3.5A1.54,1.54,0,0,1,2,50.42V47.53A.52.52,0,0,1,2.5,47H28.84v1.67h6.32V47H61.5A.52.52,0,0,1,62,47.53ZM5.16,41.16V16a4,4,0,0,1,4-4H54.84a4,4,0,0,1,4,4V41.16a4,4,0,0,1-4,4H9.16A4,4,0,0,1,5.16,41.16Z" fill="#565d75"/>
  <g>
    <path d="M54.89,18.87H9.11a.5.5,0,0,0-.5.5.5.5,0,0,0,.5.5H54.89a.5.5,0,0,0,.5-.5A.5.5,0,0,0,54.89,18.87Z" fill="#fff"/>
    <path d="M29.78,28.68h-18a1,1,0,0,0-1,1v2a1,1,0,0,0,1,1h2v1h4v-1h6v1h4v-1h2a1,1,0,0,0,1-1v-2A1,1,0,0,0,29.78,28.68Zm-16,3a1,1,0,1,1,1-1A1,1,0,0,1,13.78,31.68Zm4,0a1,1,0,1,1,1-1A1,1,0,0,1,17.78,31.68Zm10,0h-4a1,1,0,0,1,0-2h4a1,1,0,0,1,0,2Z" fill="#fff"/>
    <path d="M51.78,28.68h-18a1,1,0,0,0-1,1v2a1,1,0,0,0,1,1h2v1h4v-1h6v1h4v-1h2a1,1,0,0,0,1-1v-2A1,1,0,0,0,51.78,28.68Zm-16,3a1,1,0,1,1,1-1A1,1,0,0,1,35.78,31.68Zm4,0a1,1,0,1,1,1-1A1,1,0,0,1,39.78,31.68Zm10,0h-4a1,1,0,0,1,0-2h4a1,1,0,0,1,0,2Z" fill="#fff"/>
    <path d="M29.78,35.68h-18a1,1,0,0,0-1,1v2a1,1,0,0,0,1,1h2v1h4v-1h6v1h4v-1h2a1,1,0,0,0,1-1v-2A1,1,0,0,0,29.78,35.68Zm-16,3a1,1,0,1,1,1-1A1,1,0,0,1,13.78,38.68Zm4,0a1,1,0,1,1,1-1A1,1,0,0,1,17.78,38.68Zm10,0h-4a1,1,0,0,1,0-2h4a1,1,0,1,1,0,2Z" fill="#fff"/>
    <path d="M51.78,35.68h-18a1,1,0,0,0-1,1v2a1,1,0,0,0,1,1h2v1h4v-1h6v1h4v-1h2a1,1,0,0,0,1-1v-2A1,1,0,0,0,51.78,35.68Zm-16,3a1,1,0,1,1,1-1A1,1,0,0,1,35.78,38.68Zm4,0a1,1,0,1,1,1-1A1,1,0,0,1,39.78,38.68Zm10,0h-4a1,1,0,0,1,0-2h4a1,1,0,0,1,0,2Z" fill="#fff"/>
  </g>
  <path d="M55,13H9a3,3,0,0,0-3,3V41a3,3,0,0,0,3,3H55a3,3,0,0,0,3-3V16A3,3,0,0,0,55,13Zm2,28a2,2,0,0,1-2,2H9a2,2,0,0,1-2-2V16a2,2,0,0,1,2-2H31a1,1,0,0,0,2,0H55a2,2,0,0,1,2,2Z" fill="#fff" opacity="0.5"/>
</svg>
