<svg xmlns="http://www.w3.org/2000/svg" width="48" height="48" viewBox="0 0 48 48">
    <path d="M7.66 46.4a.75.75 0 0 1-.75-.75 18.8 18.8 0 0 1 12.053-17.787c1.335-.5 2.572.54 3.652 1.44a4.445 4.445 0 0 0 2.25 1.328c.66 0 1.455-.675 2.25-1.328 1.087-.9 2.31-1.935 3.653-1.44a17.129 17.129 0 0 1 3.345 1.657.75.75 0 0 1-.8 1.267 10.471 10.471 0 0 0-2.513-1.2L25.548 38.9a.75.75 0 0 1-1.305 0l-5.363-9.38A17.3 17.3 0 0 0 8.425 44.9h23.61a.75.75 0 1 1 0 1.5zm17.2-9.375 4.147-7.313c-.308.218-.63.487-.945.75a5.4 5.4 0 0 1-3.2 1.673 5.3 5.3 0 0 1-3.2-1.673 16.024 16.024 0 0 0-.945-.75zm-7.785-18.7a6.446 6.446 0 0 0-.517-.8c-1.808-1.875-.915-3.787-.27-4.943-1.575-.45-1.583-1.83-1.583-2.64 0-.255 0-.922 1.973-2.34 1.823-1.328 5.55-3.3 8.033-2.46a2.377 2.377 0 0 0 2.76-.54 1.5 1.5 0 0 1 1-.518c.33 0 1.343 0 4.5 3.233a1.265 1.265 0 0 1 .173.24l1 2.033a.751.751 0 0 1 0 .667 6.822 6.822 0 0 1-1.118 1.642c.938 1.193 1.83 3.938.577 5.25l-.247.233-.135.142c-.06 5.25-4.725 10.088-8.347 10.088-4.35 0-7.733-4.965-7.785-9.285zm7.783 7.775c2.625 0 6.052-3.472 6.75-7.365a1.5 1.5 0 0 1-.75.21h-3.735a1.5 1.5 0 0 1-1.5-1.5V16.4H24.34v1.02a1.5 1.5 0 0 1-1.5 1.5H19.1a1.514 1.514 0 0 1-.5-.1c.315 4.072 3.548 7.253 6.255 7.253zm1.5-11.1v2.423a.75.75 0 0 0 .75.75h3.7a.75.75 0 0 0 .75-.75v-1.77a.75.75 0 0 0-.75-.75h-4.33a.127.127 0 0 0-.12.127zm-8.01.653v1.875a2.26 2.26 0 0 1 .173.39.75.75 0 0 0 .585.277h3.7a.75.75 0 0 0 .75-.75V15a.127.127 0 0 0-.12-.128h-4.32a.75.75 0 0 0-.75.75zm-.615-2.633c-.75 1.26-1.155 2.25-.15 3.345v-.75a1.5 1.5 0 0 1 1.5-1.5h4.4a.885.885 0 0 1 .87.878v.652H25.6v-.652a.87.87 0 0 1 .87-.87h4.365a1.545 1.545 0 0 1 1.5 1.5v.615l.142-.127a1.718 1.718 0 0 0 .142-1.357 4.409 4.409 0 0 0-.892-2.07 1.534 1.534 0 0 1-.263 0c-1.08 0-3.315 0-4.5-1.238a2.918 2.918 0 0 0-2.464-.796c-.173 0-.187.045-.218.1a2.2 2.2 0 0 1-1.02 1.125l-1.125.57a2.132 2.132 0 0 1-.975.24h-3.234l-.195.337zm10.245-2.61c.75.75 2.377.795 3.292.795a1.209 1.209 0 0 1 .36-.083 4.344 4.344 0 0 0 .975-1.215l-.75-1.583a12.323 12.323 0 0 0-3.277-2.714l-.12.112a3.862 3.862 0 0 1-4.23.84c-2.445-.825-7.5 2.453-8.025 3.457 0 .938.038 1.2 1.252 1.2h3.668a.764.764 0 0 0 .292-.075l1.125-.57a.706.706 0 0 0 .322-.368 1.649 1.649 0 0 1 1.6-1.027 4.358 4.358 0 0 1 3.518 1.23" transform="translate(-1.728 -1.019)" style="fill:#5a658e"/>
    <path d="M51.535 44.618V39.78h.54a.75.75 0 0 0 .75-.75v-1.2a.75.75 0 0 0-.75-.75H45.67a.75.75 0 0 0-.75.75v1.2a.75.75 0 0 0 .75.75h.548v4.845c-1.936 1.643-3.518 4.628-3.518 6.645a2.857 2.857 0 0 0 2.3 2.873 30.38 30.38 0 0 0 7.74 0 2.85 2.85 0 0 0 2.3-2.873c0-2-1.612-5.032-3.51-6.652m-4.275 1.05h.015a.7.7 0 0 0 .21-.278l.165-.368a.754.754 0 0 0 .067-.3V39.78h2.318v4.935a1.323 1.323 0 0 0 0 .173l.067.292a.785.785 0 0 0 .27.42 9.07 9.07 0 0 1 1.957 2.318 7.323 7.323 0 0 0-3.4 1.042 2.62 2.62 0 0 1-2.79.263c-.36-.105-.75-.217-1.275-.323a9.889 9.889 0 0 1 2.4-3.232" transform="translate(-10.675 -9.269)" style="fill:#4d66ff"/>
    <path d="M48.5 24.4a1.125 1.125 0 1 1-1.125 1.125A1.125 1.125 0 0 1 48.5 24.4" transform="translate(-11.842 -6.099)" style="fill:rgba(77,102,255,.5)"/>
    <path data-name="c" d="M44.525 27.72a1.875 1.875 0 1 1-1.875 1.875 1.875 1.875 0 0 1 1.875-1.875" transform="translate(-10.663 -6.929)" style="fill:#4d66ff"/>
    <path data-name="c" d="M47.055 33.01a1.125 1.125 0 1 1-1.125 1.125 1.125 1.125 0 0 1 1.125-1.125" transform="translate(-11.482 -8.254)" style="fill:rgba(77,102,255,.5)"/>
    <path data-name="c" style="fill:none" d="M0 0h48v48H0z"/>
</svg>
