<svg xmlns="http://www.w3.org/2000/svg" width="48" height="48" viewBox="0 0 48 48">
    <path d="m-16432.4 16847.408-.041-.018a6.871 6.871 0 0 1-3.8-6.152 6.686 6.686 0 0 1 .2-1.652l-.047-.008a6.582 6.582 0 0 1-4.9-5.576v-1.957l.006-.041a6.9 6.9 0 0 1 5.016-5.549l-.187-.961a4.846 4.846 0 0 1-.041-.783 6.69 6.69 0 0 1 3.8-6.074 6.738 6.738 0 0 1 6.738-6.633H-16425.515a6.72 6.72 0 0 1 5.807 3.555l.012 34.93-.012.035a6.769 6.769 0 0 1-5.934 3.518 6.759 6.759 0 0 1-6.758-6.634zm-7.1-13.506a5.1 5.1 0 0 0 3.75 4.213l.016.006 1.525.328-.387 1.512a5.261 5.261 0 0 0-.154 1.277 5.343 5.343 0 0 0 2.953 4.8l.008.006.863.391.021.949a5.281 5.281 0 0 0 5.252 5.156 5.252 5.252 0 0 0 4.449-2.453l-.01-14.086h-4.488v3.844a3 3 0 0 1 2.248 2.906 3 3 0 0 1-3 3 3 3 0 0 1-3-3 3 3 0 0 1 2.254-2.906v-5.344h5.99l-.006-9.75h-3.082a3 3 0 0 1-2.9 2.25 3 3 0 0 1-3-3 3 3 0 0 1 3-3 3 3 0 0 1 2.9 2.25h3.082l-.006-7.27a5.142 5.142 0 0 0-4.324-2.48h-.117a5.258 5.258 0 0 0-5.238 5.156l-.014.914-.824.41a5.164 5.164 0 0 0-2.969 4.711c0 .324.016.469.021.516v.006l.182.961.262 1.365-1.34.363a5.416 5.416 0 0 0-3.914 4.254v.094h3.391a3 3 0 0 1 2.9-2.25 3 3 0 0 1 3 3 3 3 0 0 1-3 3 3 3 0 0 1-2.9-2.25h-3.391zm11.547 8.848a1.5 1.5 0 0 0 1.5 1.5 1.5 1.5 0 0 0 1.506-1.5 1.5 1.5 0 0 0-1.506-1.5 1.5 1.5 0 0 0-1.5 1.5zm-5.254-8.25a1.5 1.5 0 0 0 1.506-1.5 1.5 1.5 0 0 0-1.506-1.5 1.5 1.5 0 0 0-1.5 1.5 1.5 1.5 0 0 0 1.5 1.5zm4.506-10.5a1.5 1.5 0 0 0 1.5 1.5 1.5 1.5 0 0 0 1.5-1.5 1.5 1.5 0 0 0-1.5-1.5 1.5 1.5 0 0 0-1.499 1.5z" transform="translate(16444.453 -16809)" style="fill:#5a658e;stroke:transparent"/>
    <path d="M48.762 45.577a4.457 4.457 0 0 1-.3.531l.792 1.52a.308.308 0 0 1-.1.4l-2.088 1.414a.331.331 0 0 1-.415-.047l-1.184-1.249a4.822 4.822 0 0 1-1.255.094l-.913 1.4a.332.332 0 0 1-.406.106l-2.333-1.1a.331.331 0 0 1-.178-.38l.5-1.6a4.631 4.631 0 0 1-.729-1.025l-1.717-.114a.33.33 0 0 1-.3-.289l-.245-2.509a.309.309 0 0 1 .238-.334l1.675-.361a4.027 4.027 0 0 1 .518-1.1l-.792-1.52a.311.311 0 0 1 .105-.4l2.088-1.414a.324.324 0 0 1 .419.039l1.18 1.256a4.36 4.36 0 0 1 1.254-.094l.917-1.409a.332.332 0 0 1 .4-.1l2.333 1.1a.333.333 0 0 1 .181.372l-.5 1.606a4.517 4.517 0 0 1 .729 1.025l1.72.1a.325.325 0 0 1 .3.3l.245 2.51a.31.31 0 0 1-.238.333l-1.675.361a4.5 4.5 0 0 1-.218.571m-3.495-3.94a2.089 2.089 0 1 0 1 2.78 2.082 2.082 0 0 0-1-2.78" transform="translate(-9.47 -9.317)" style="fill:#4d66ff"/>
    <path data-name="cog" d="m44.6 24.689-2.14-1.723a7.193 7.193 0 0 0 0-2l2.129-1.624a.529.529 0 0 0 .108-.649l-2.019-3.574a.53.53 0 0 0-.613-.243l-2.489.985a6.922 6.922 0 0 0-1.715-1.035l-.374-2.726a.514.514 0 0 0-.508-.437L35 11.623V18.5a3.315 3.315 0 1 1 0 6.629V32l2.026.045a.491.491 0 0 0 .5-.418l.373-2.7a7.085 7.085 0 0 0 .88-.413 6.95 6.95 0 0 0 .808-.541l2.513 1.076a.5.5 0 0 0 .617-.214l1.995-3.484a.515.515 0 0 0-.111-.661" transform="translate(-8.75 -2.906)" style="fill:#4d66ff"/>
    <path data-name="cog" d="M56.543 29.394a2.857 2.857 0 0 1 .007.383l.914.569a.194.194 0 0 1 .07.247l-.677 1.432a.209.209 0 0 1-.24.107l-1.039-.3a3.029 3.029 0 0 1-.649.451l-.046 1.049a.207.207 0 0 1-.185.187l-1.612.153a.208.208 0 0 1-.217-.148l-.242-1.022a2.931 2.931 0 0 1-.722-.322l-.964.487a.207.207 0 0 1-.256-.061l-.935-1.278a.194.194 0 0 1 .023-.256l.79-.731a2.686 2.686 0 0 1-.065-.378 2.86 2.86 0 0 1-.008-.383l-.913-.569a.2.2 0 0 1-.07-.248l.678-1.431a.2.2 0 0 1 .239-.113l1.04.3a2.717 2.717 0 0 1 .649-.451l.045-1.055a.209.209 0 0 1 .186-.181l1.612-.153a.21.21 0 0 1 .218.143l.242 1.028a2.811 2.811 0 0 1 .721.321l.965-.493a.2.2 0 0 1 .256.067l.935 1.279a.194.194 0 0 1-.022.256l-.79.73a2.687 2.687 0 0 1 .065.378M53.4 28.374a1.312 1.312 0 1 0 1.43 1.183 1.308 1.308 0 0 0-1.43-1.183" transform="translate(-12.372 -6.421)" style="fill:rgba(77,102,255,.5)"/>
    <path style="fill:none" d="M0 0h48v48H0z"/>
</svg>
