<svg xmlns="http://www.w3.org/2000/svg" width="24" height="24" viewBox="0 0 24 24">
    <path d="m2,6c0-.55.45-1,1-1h11v2H3c-.55,0-1-.45-1-1Zm15,3c.55,0,1-.45,1-1v-1h3c.55,0,1-.45,1-1s-.45-1-1-1h-3v-1c0-.55-.45-1-1-1s-1,.45-1,1v4c0,.55.45,1,1,1Zm4,2h-11v2h11c.55,0,1-.45,1-1s-.45-1-1-1ZM3,13h3v1c0,.55.45,1,1,1s1-.45,1-1v-4c0-.55-.45-1-1-1s-1,.45-1,1v1h-3c-.55,0-1,.45-1,1s.45,1,1,1Zm18,4h-8v-1c0-.55-.45-1-1-1s-1,.45-1,1v4c0,.55.45,1,1,1s1-.45,1-1v-1h8c.55,0,1-.45,1-1s-.45-1-1-1Zm-19,1c0,.55.45,1,1,1h6v-2H3c-.55,0-1,.45-1,1Z" fill="#8492c2" />
</svg>