<svg xmlns="http://www.w3.org/2000/svg" viewBox="0 0 24 24">
  <rect width="24" height="24" fill="none"/>
  <path d="M11.00012,21.00235v-6l3,3Zm7-3-3-3v6Zm-9.29-13.34a.62.62,0,1,0-.62-.66.61.61,0,0,0,.62.66Zm-1.78-1.57h.07a.55.55,0,0,0,.52-.57.54.54,0,0,0-.55736-.52206l-.03264.00206a.55.55,0,0,0-.53.52A.56.56,0,0,0,6.93012,3.09235Zm2.68,13.91h-5.74a1.88,1.88,0,0,1-1.87021-1.88973l.00021-.02027,3.28-5.37a2.00131,2.00131,0,0,1,0-.25v-2.62a.74.74,0,0,1,.16-1.46h.25a.89.89,0,0,1,1.75,0h2.1a.75.75,0,0,1,.72.58.73.73,0,0,1-.54516.8767l-.01484.0033v2.62a2.00131,2.00131,0,0,1,0,.25l1.49,2.14a5.51,5.51,0,0,0-1.72,4A5.19025,5.19025,0,0,0,9.61012,17.00235Zm-3.61-3.73a.78.78,0,0,0-.78-.78h0a.78.78,0,1,0,.78.78Zm2.16,1.51a.69.69,0,1,0-.69.69h0A.69.69,0,0,0,8.16012,14.78235Zm.84-3.42a1.15,1.15,0,1,0-1.15,1.15h0A1.15,1.15,0,0,0,9.00012,11.36235Zm13,6.64-3-3v6Z"/>
</svg>
