<svg xmlns="http://www.w3.org/2000/svg" viewBox="0 0 64 64">
  <g>
    <path d="m49,37c1.12,0,2.2.16,3.22.45l5.54-14.2v-.03c.2-.6-.42-1.15-.99-.83h-.01l-15.71,8.3,4.57,6.8c1.07-.31,2.21-.49,3.38-.49Z" fill="#7d353b"/>
    <path d="m45.62,37.49l-4.57-6.8-8.22-12.25c-.4-.59-1.28-.59-1.66,0l-8.22,12.25,9.05,4.78,8.9,4.7c1.33-1.23,2.94-2.16,4.73-2.68Z" fill="#bd4043"/>
    <path d="m40.89,40.17l-8.9-4.7h0s-9.05-4.78-9.05-4.78l-15.71-8.3s-.04-.01-.06-.01c-.57-.27-1.16.3-.95.87l8,20.41h0s.02.04.02.06c.33.76,1.05,1.23,1.83,1.42.07.01.11.03.19.04.08.02.19.04.28.05.02,0,.03,0,.05,0h.01s.02,0,.03,0h.02s.02,0,.03,0h.02s.02,0,.03,0c6.86.75,13.76.98,20.64.71.59-2.26,1.82-4.25,3.49-5.78Z" fill="#ff4b4b"/>
  </g>
  <path d="M49 39C43.48 39 39 43.48 39 49C39 54.52 43.48 59 49 59C54.52 59 59 54.52 59 49C59 43.48 54.52 39 49 39Z" fill="#50BEFF"/>
  <rect x="45" y="45" width="8" height="8" rx="1" fill="white"/>
</svg>