<svg xmlns="http://www.w3.org/2000/svg" width="24" height="24" viewBox="0 0 24 24">
<path d="M21,13c.55,0,1-.45,1-1s-.45-1-1-1H8V7h13c.55,0,1-.45,1-1s-.45-1-1-1H3c-.55,0-1,.45-1,1s.45,1,1,1h3v5c0,.14,.03,.27,.08,.39,.03,.06,.07,.11,.11,.16,.04,.05,.06,.11,.1,.16s.1,.07,.16,.1c.05,.04,.1,.08,.16,.11,.12,.05,.25,.08,.39,.08h4v5c0,.14,.03,.27,.08,.39,.03,.06,.07,.11,.11,.16,.04,.05,.06,.11,.1,.16s.1,.07,.16,.1c.05,.04,.1,.08,.16,.11,.12,.05,.25,.08,.39,.08h9c.55,0,1-.45,1-1s-.45-1-1-1H13v-4h8Z" fill="#8f9dc9"/>
</svg>