<svg xmlns="http://www.w3.org/2000/svg" viewBox="0 0 64 64">
  <path d="M51,55.75a31.88,31.88,0,0,0,8-10.11,29.74,29.74,0,0,0,2.24-6.28A30.17,30.17,0,0,0,62,32.54,29.87,29.87,0,0,0,32.1,2.64h-.2A29.87,29.87,0,0,0,2,32.54a29.75,29.75,0,0,0,3,13.1,31.74,31.74,0,0,0,8,10.11c2.15-1.17,3.37-2.47,3.63-3.86s-.34-2.77-1.85-4.51A22.63,22.63,0,0,1,31.9,9.92h.2A22.62,22.62,0,0,1,49.17,47.38c-1.49,1.73-2.09,3.23-1.83,4.57s1.49,2.66,3.62,3.81m-11,5.6,1.73-.52a30.28,30.28,0,0,0,5-2.2,8.51,8.51,0,0,1-4.47-7.47,9,9,0,0,1,2.39-5.89.29.29,0,0,1,.07-.08h0l.46-.51a15.92,15.92,0,0,0,1.27-1.49,17.92,17.92,0,0,0,3.06-6.52,18.21,18.21,0,0,0,.1-7.81A17.83,17.83,0,0,0,34.64,14.92a17.55,17.55,0,0,0-2.51-.18h-.22a17.83,17.83,0,0,0-9.4,2.69,17.8,17.8,0,0,0-4.86,25.76l1.27,1.49.47.52.07.07a8.91,8.91,0,0,1,2.39,5.89,8.48,8.48,0,0,1-4.47,7.47,29.46,29.46,0,0,0,5,2.2l1.73.52a11,11,0,0,0,2.7-2.7,12.28,12.28,0,0,0,2.34-7.48,16.59,16.59,0,0,0-1.23-5.93,17,17,0,0,0-3.25-5.08h0l-.31-.35a15,15,0,0,1-1.51-2A10.47,10.47,0,0,1,21.67,35,10.55,10.55,0,0,1,31.9,22h.22a10.67,10.67,0,0,1,1.49.11,10.54,10.54,0,0,1,7.09,4.33,10.38,10.38,0,0,1,1.71,3.91A10.59,10.59,0,0,1,42.35,35a10.46,10.46,0,0,1-1.15,2.84,13.77,13.77,0,0,1-1.51,2l-.31.35h0a17,17,0,0,0-3.26,5.08,16.72,16.72,0,0,0-1.23,5.93,12.28,12.28,0,0,0,2.35,7.48,11.07,11.07,0,0,0,2.69,2.7M32,38.72a5.9,5.9,0,1,0-5.9-5.9,5.9,5.9,0,0,0,5.9,5.9" fill="#f0424d"/>
</svg>
