<svg xmlns="http://www.w3.org/2000/svg" viewBox="0 0 64 64">
  <g>
    <path d="M39.7,16.22c-.86-4.65-4.92-8.18-9.82-8.18-4.19,0-7.77,2.59-9.26,6.25-.56-.14-1.14-.25-1.74-.25-3.87,0-7,3.13-7,7,0,.55.08,1.08.2,1.59-2.65,1.16-4.45,3.91-4.17,7.06.33,3.66,3.61,6.68,7.28,6.68h22.25c5.39,0,10.14-4.41,10.42-9.8.27-5.14-3.35-9.47-8.17-10.35ZM31.15,30.52c-.86,0-1.7-.27-2.41-.76l-5.69-3.63c-2.27-2.1-2.4-5.65-.3-7.91,2.1-2.27,5.65-2.4,7.91-.3.1.1.2.19.3.3l3.63,5.69c.5.71.77,1.55.77,2.41,0,2.32-1.88,4.2-4.2,4.2ZM32.88,39.71l5,5h-3.33v1.67c0,.92-.75,1.67-1.67,1.67s-1.67-.75-1.67-1.67v-1.67h-3.33l5-5ZM27.88,43.04l-5,5-5-5h3.33v-1.67c0-.92.75-1.67,1.67-1.67s1.67.75,1.67,1.67v1.67h3.33ZM29.58,22.96l1.07-.38v-.76l-1.06-.38-.15-.38.46-.99-.54-.53-.99.46-.38-.15-.38-1.07h-.76l-.38,1.07-.38.15-.99-.46-.53.53.46.99-.15.38-1.07.38v.76l1.07.38.15.38-.46.99.53.53.99-.46.38.15.38,1.07h.76l.38-1.07.38-.15.99.45.53-.53-.46-.99.15-.38ZM27.18,23.44c-.64,0-1.17-.52-1.17-1.17s.52-1.17,1.17-1.17c.63.02,1.13.54,1.14,1.17,0,.63-.51,1.14-1.14,1.17ZM32.55,26.65c0,.59-.46,1.07-1.05,1.08-.57,0-1.03-.45-1.05-1.02-.01-.58.44-1.06,1.02-1.08s1.06.44,1.08,1.02Z" fill="#afe61e"/>
  </g>
  <path d="m49,39c-5.52,0-10,4.48-10,10s4.48,10,10,10,10-4.48,10-10-4.48-10-10-10Z" fill="#21b553"/>
  <path d="m52.42,48.23l-4.06-3.38c-.65-.54-1.64-.08-1.64.77v6.76c0,.85.99,1.31,1.64.77l4.06-3.38c.48-.4.48-1.14,0-1.54Z" fill="#fff"/>
</svg>