<svg xmlns="http://www.w3.org/2000/svg" viewBox="0 0 24 24">
      <path d="M13.75689,11.18393l1.52089-.54335V9.55437L13.75689,9.011c-.10889-.21728-.10889-.326-.21734-.54308l.6518-1.41243L13.43088,6.295l-1.41243.6518c-.21713-.10867-.3258-.10867-.54308-.21734L10.932,5.20861H9.84581L9.30246,6.7295c-.21734.10889-.326.10889-.54313.21734L7.34668,6.29526l-.76.76.65174,1.41244c-.10867.21707-.10867.32574-.21734.54307L5.5,9.55437v1.08621l1.52089.54335c.10888.21734.10888.326.21734.54313L6.5867,13.13971l.76041.76047,1.41244-.6518c.21712.10867.32579.21734.54313.21734l.54313,1.52067H10.932l.54335-1.52089c.21728-.10888.326-.10888.54308-.21734l1.41243.65175.76047-.76042-.6518-1.41243C13.64822,11.50994,13.75689,11.40127,13.75689,11.18393Zm-3.43311.69135a1.66717,1.66717,0,0,1,0-3.33333,1.66717,1.66717,0,0,1,0,3.33333Z" fill="#8f9dc9"/>
      <ellipse cx="16.5" cy="16.46154" rx="1.5" ry="1.53846" fill="#8f9dc9"/>

    <path d="M20.90747,12.55469,15.72754,4.4209A7.99577,7.99577,0,1,0,4.4209,15.72754l8.13379,5.17993a5.99487,5.99487,0,0,0,8.35278-8.35278ZM16,20a3.953,3.953,0,0,1-1.988-.54987L5.8371,14.31134a5.993,5.993,0,0,1,8.163-8.77441q.161.14447.31128.30017L19.45013,14.012A3.953,3.953,0,0,1,20,16,4.0045,4.0045,0,0,1,16,20Z" fill="#8f9dc9"/>

</svg>
