<svg xmlns="http://www.w3.org/2000/svg" viewBox="0 0 24 24">
  <path d="M24,24H0V0H24Z" fill="none"/>
  <path d="M13.79065,19.79065A7.98035,7.98035,0,0,1,5.02173,8.11145L6.27594,9.36566a.42418.42418,0,0,0,.72412-.29993L7,5.42413A.42412.42412,0,0,0,6.57587,5H2.93433a.42418.42418,0,0,0-.3.72406l.92865.92865A9.97971,9.97971,0,0,0,15.39587,21.39587Z" fill="#8f9dc9"/>
  <path d="M20.02887,17.93915A9.9798,9.9798,0,0,0,8.60413,2.60413l1.60522,1.60522a7.98259,7.98259,0,0,1,8.38654,12.29681l-.87183-.87182a.42419.42419,0,0,0-.72412.29993L17,19.57587A.42412.42412,0,0,0,17.42413,20h3.64154a.42416.42416,0,0,0,.3-.72406Z" fill="#8f9dc9"/>
  <path d="M14.359,12.37389l-3.97017,3.97017a.52875.52875,0,0,1-.90265-.37386V8.02979a.52876.52876,0,0,1,.90265-.37386L14.359,11.62611A.52869.52869,0,0,1,14.359,12.37389Z"  fill="#8f9dc9"/>
</svg>
