<svg xmlns="http://www.w3.org/2000/svg" width="24" height="24" viewBox="0 0 24 24">
<path d="M6,7H3c-.55,0-1-.45-1-1s.45-1,1-1h3c.55,0,1,.45,1,1s-.45,1-1,1Zm16-1c0-.55-.45-1-1-1H10c-.55,0-1,.45-1,1s.45,1,1,1h11c.55,0,1-.45,1-1ZM7,12c0-.55-.45-1-1-1H3c-.55,0-1,.45-1,1s.45,1,1,1h3c.55,0,1-.45,1-1Zm15,0c0-.55-.45-1-1-1H10c-.55,0-1,.45-1,1s.45,1,1,1h11c.55,0,1-.45,1-1Zm-15,6c0-.55-.45-1-1-1H3c-.55,0-1,.45-1,1s.45,1,1,1h3c.55,0,1-.45,1-1Zm15,0c0-.55-.45-1-1-1H10c-.55,0-1,.45-1,1s.45,1,1,1h11c.55,0,1-.45,1-1Z"  fill="#8f9dc9"/>
</svg>