<svg xmlns="http://www.w3.org/2000/svg" width="24" height="24" viewBox="0 0 24 24">
  <path d="M24,20l-2.9837,2.98376h-2.53351l1.98492-1.98376h-5.65143c-.41327,1.16254-1.51196,2-2.81628,2s-2.40302-.83746-2.81628-2h-2.18372c-2.76141,0-5-2.23859-5-5s2.23859-5,5-5h2.18372c.41327-1.16254,1.51196-2,2.81628-2s2.40302,.83746,2.81628,2h2.18372c1.65424,0,3-1.34576,3-3s-1.34576-3-3-3h-2.18372c-.41327,1.16254-1.51196,2-2.81628,2s-2.40302-.83746-2.81628-2h-2.18372l-1.9837,1.98376H2.48279l1.98492-1.98376H1c-.55225,0-1-.44727-1-1s.44775-1,1-1h3.46771l-1.98492-1.98376h2.53351l1.9837,1.98376h2.18372c.41327-1.16254,1.51196-2,2.81628-2s2.40302,.83746,2.81628,2h2.18372c2.76141,0,5,2.23859,5,5s-2.23859,5-5,5h-2.18372c-.41327,1.16254-1.51196,2-2.81628,2s-2.40302-.83746-2.81628-2h-2.18372c-1.65424,0-3,1.34576-3,3s1.34576,3,3,3h2.18372c.41327-1.16254,1.51196-2,2.81628-2s2.40302,.83746,2.81628,2h5.65143l-1.98492-1.98376h2.53351l2.9837,2.98376Z" fill="#8f9dc9"/>
</svg>