<svg xmlns="http://www.w3.org/2000/svg" width="16px" height="16px" viewBox="0 0 13 13">
  <path id="np_vector-path_1158607_000000" d="M17.567,9.044h-1.69L12.8,6.806V5.433A.426.426,0,0,0,12.367,5H10.633a.426.426,0,0,0-.433.433V6.806L7.123,9.044H5.433A.426.426,0,0,0,5,9.478v1.733a.434.434,0,0,0,.433.433h.621L7.282,15.4a.44.44,0,0,0-.4.433v1.733A.434.434,0,0,0,7.311,18H9.044a.434.434,0,0,0,.433-.433v-.433h4.044v.433a.434.434,0,0,0,.433.433h1.733a.434.434,0,0,0,.433-.433V15.833a.429.429,0,0,0-.4-.433l1.228-3.756h.621A.434.434,0,0,0,18,11.211V9.478A.426.426,0,0,0,17.567,9.044ZM14.807,15.4h-.852a.426.426,0,0,0-.433.433v.433H9.478v-.433a.426.426,0,0,0-.433-.433H8.192L6.965,11.644h.2a.434.434,0,0,0,.433-.433V9.767L10.59,7.6h1.82L15.4,9.767v1.444a.434.434,0,0,0,.433.433h.2Z" transform="translate(-5 -5)" fill="#8f9dc9"/>
</svg>
