<svg xmlns="http://www.w3.org/2000/svg" viewBox="0 0 24 24">
  <rect y="0.01788" width="24" height="24" fill="none"/>
  <rect y="0.01788" width="24" height="24" fill="none"/>
  <path d="M8.08777,4.0589a.61783.61783,0,1,1,.61786.61786A.61783.61783,0,0,1,8.08777,4.0589ZM6.92651,3.10577c.01331.00049.02668.00049.04,0a.54416.54416,0,1,0-.04,0ZM9.4942,15.86542a5.522,5.522,0,0,0,.11518,1.12182H3.87292A1.87365,1.87365,0,0,1,2,15.11285L5.27948,9.736a1.92154,1.92154,0,0,1,.0249-.24713V6.86871A.74067.74067,0,0,1,5.46429,5.405h.24787a.88744.88744,0,0,1,1.75116,0H9.53644a.74067.74067,0,0,1,.15991,1.46374V9.48889a2.10762,2.10762,0,0,1,.02344.24713l1.49212,2.14319A5.47946,5.47946,0,0,0,9.4942,15.86542ZM5.972,13.28662a.77961.77961,0,0,0-.77905-.78009H5.192a.77954.77954,0,1,0,.78.78009Zm2.1576,1.50757a.68824.68824,0,1,0-.68823.68823A.68824.68824,0,0,0,8.12958,14.79419Zm.88879-3.41956a1.14877,1.14877,0,1,0-1.14874,1.14881A1.14878,1.14878,0,0,0,9.01837,11.37463Zm11.07849.70789-5.08325,5.08325-2.09-2.09009-1.41406,1.41407,3.50409,3.50415,6.49732-6.49732Z"/>
</svg>
