<svg xmlns="http://www.w3.org/2000/svg" viewBox="0 0 24 24">
  <path d="M16.02,9v6c0,.55-.45,1-1,1h-6c-.55,0-1-.45-1-1v-6c0-.55.45-1,1-1h6c.55,0,1,.45,1,1ZM20.02,13v2h2c.55,0,1,.45,1,1s-.45,1-1,1h-2v.25c0,1.52-1.23,2.75-2.75,2.75h-.25v2c0,.55-.45,1-1,1s-1-.45-1-1v-2h-2v2c0,.55-.45,1-1,1s-1-.45-1-1v-2h-2v2c0,.55-.45,1-1,1s-1-.45-1-1v-2h-.25c-1.52,0-2.75-1.23-2.75-2.75v-.25h-2c-.55,0-1-.45-1-1s.45-1,1-1h2v-2h-2c-.55,0-1-.45-1-1s.45-1,1-1h2v-2h-2c-.55,0-1-.45-1-1s.45-1,1-1h2v-.25c0-1.52,1.23-2.75,2.75-2.75h.25v-2c0-.55.45-1,1-1s1,.45,1,1v2h2v-2c0-.55.45-1,1-1s1,.45,1,1v2h2v-2c0-.55.45-1,1-1s1,.45,1,1v2h.25c1.52,0,2.75,1.23,2.75,2.75v.25h2c.55,0,1,.45,1,1s-.45,1-1,1h-2v2h2c.55,0,1,.45,1,1s-.45,1-1,1h-2ZM18.02,6.75c0-.41-.34-.75-.75-.75H6.77c-.41,0-.75.34-.75.75v10.5c0,.41.34.75.75.75h10.5c.41,0,.75-.34.75-.75V6.75Z" fill="#06B1C3" />
</svg>