<svg xmlns="http://www.w3.org/2000/svg" width="24" height="24" viewBox="0 0 24 24">
  <path d="M6.31,8.61A.45.45,0,0,1,6,8.49a.43.43,0,0,1-.12-.32V7.08A.43.43,0,0,1,6,6.76a.45.45,0,0,1,.31-.12H17.69a.45.45,0,0,1,.31.12.43.43,0,0,1,.12.32V8.17a.43.43,0,0,1-.12.32.45.45,0,0,1-.31.12Zm0,4.37A.41.41,0,0,1,6,12.86a.39.39,0,0,1-.12-.31v-1.1A.39.39,0,0,1,6,11.14.42.42,0,0,1,6.31,11H17.69a.42.42,0,0,1,.31.13.39.39,0,0,1,.12.31v1.1a.39.39,0,0,1-.12.31.42.42,0,0,1-.31.13Zm0,4.38A.45.45,0,0,1,6,17.24a.43.43,0,0,1-.12-.32V15.83A.43.43,0,0,1,6,15.51a.45.45,0,0,1,.31-.12H17.69a.45.45,0,0,1,.31.12.43.43,0,0,1,.12.32v1.09a.43.43,0,0,1-.12.32.45.45,0,0,1-.31.12Z" fill="#8f9dc9"/>
</svg>
