<svg viewBox="0 0 1000 1000" class="icon" height="1em" width="1em" xmlns="http://www.w3.org/2000/svg">
    <path d="M200,250H50a50,50,0,0,1,0-100H200a50,50,0,0,1,0,100Zm800-50a50,50,0,0,0-50-50H400a50,50,0,0,0,0,100H950A50,50,0,0,0,1000,200ZM250,400a50,50,0,0,0-50-50H50a50,50,0,0,0,0,100H200A50,50,0,0,0,250,400Zm750,0a50,50,0,0,0-50-50H400a50,50,0,0,0,0,100H950A50,50,0,0,0,1000,400ZM250,600a50,50,0,0,0-50-50H50a50,50,0,0,0,0,100H200A50,50,0,0,0,250,600Zm750,0a50,50,0,0,0-50-50H400a50,50,0,0,0,0,100H950A50,50,0,0,0,1000,600ZM250,800a50,50,0,0,0-50-50H50a50,50,0,0,0,0,100H200A50,50,0,0,0,250,800Zm750,0a50,50,0,0,0-50-50H400a50,50,0,0,0,0,100H950A50,50,0,0,0,1000,800Z" transform="translate(0, 150)" fill="#8f9dc9">
    </path>
</svg>