<svg viewBox="0 0 1000 1000" class="icon" height="1em" width="1em" xmlns="http://www.w3.org/2000/svg">
    <path d="M797,772a29.4,29.4,0,0,1-3.1-.16c-130-13.31-240.09-51.57-327.17-113.74-70.33-50.2-125.62-115.78-164.34-194.91C236.94,329.34,241.79,203.92,242,198.64A30,30,0,0,1,302,201.31h0c-.05,1.16-4.17,117.36,55.41,237.65,34.47,69.59,83.42,127.19,145.5,171.2,78.3,55.51,178.29,89.82,297.18,102A30,30,0,0,1,797,772Zm111,80.5H147.5V92H38v28H92.5v29H37v28H92.5v41H38v28H92.5v64H38v28H92.5V446H38v28H92.5V639H38v28H92.5V852.5H0v55H92.5V1000h55V907.5H908Z" transform="translate(0, 150)" fill="#8f9dc9">
    </path>
</svg>