<?xml version="1.0" encoding="UTF-8"?>
<!-- Generator: Adobe Illustrator 23.0.1, SVG Export Plug-In . SVG Version: 6.00 Build 0)  -->
<svg version="1.1" id="images" xmlns="http://www.w3.org/2000/svg" xmlns:xlink="http://www.w3.org/1999/xlink" x="0px" y="0px" width="445px" height="388px" viewBox="0 0 445 388" style="enable-background:new 0 0 445 388;" xml:space="preserve">
<style type="text/css">
	.st0{fill-rule:evenodd;clip-rule:evenodd;fill:#CAF2F7;}
	.st1{fill:url(#SVGID_1_);}
	.st2{fill:url(#SVGID_2_);}
	.st3{fill:#AFEBF2;}
	.st4{fill:#9B9BA7;}
	.st5{fill:#171733;}
	.st6{fill:#121233;}
	.st7{fill:#05C5DB;}
	.st8{opacity:0.7;fill:#04A7DB;}
	.st9{fill:#E34998;}
	.st10{opacity:0.7;fill:#C33E98;}
	.st11{fill:#246AFC;}
	.st12{opacity:0.7;fill:#1F5AFC;}
	.st13{fill:#FFCB8A;}
	.st14{opacity:0.7;fill:#DBAC8A;}
	.st15{fill:#FFFFFF;}
	.st16{fill:#0D232B;}
	.st17{opacity:0.22;fill:#FFFFFF;}
	.st18{opacity:0.5;fill:#121233;}
	.st19{opacity:0.7;fill:#CBC7FF;}
	.st20{fill:#5F48DC;}
	.st21{fill:#103FCD;}
	.st22{fill:#FFD6A4;}
	.st23{fill:#E3F5FF;}
	.st24{fill:#F5CFBF;}
	.st25{fill:#1C3038;}
	.st26{fill:#5742DC;}
	.st27{fill:#715CE0;}
	.st28{opacity:0.7;fill:#D2AFBF;}
	.st29{fill:#F29D9D;}
	.st30{fill:url(#SVGID_3_);}
	.st31{fill:#BD422A;}
	.st32{fill:#4C3AB0;}
	.st33{fill:url(#SVGID_4_);}
	.st34{fill:#0D1D7E;}
	.st35{fill:#0D31CD;}
</style>
<path class="st0" d="M247.2,332.1c-1-2.6-1.6-5.4-1.6-8.4c0-10.7,7.2-19.7,17-22.5c-6.6-5.4-10.8-13.5-10.8-22.6  c0-16.1,13.1-29.2,29.3-29.2c0.4,0,0.8,0,1.2,0c-2.7-4.6-4.3-10-4.3-15.7c0-17.2,14-31.2,31.3-31.2c12.5,0,23.3,7.3,28.3,17.9  c3.6-3.7,8.5-6,14.1-6c10.8,0,19.5,8.7,19.5,19.5c0,0.4,0,0.7,0,1.1c3.2-1,6.7-1.5,10.2-1.5c19.6,0,35.5,15.8,35.5,35.4  c0,2.9-0.3,5.6-1,8.3c16.9,6,29,22.1,29,41c0,4.9-0.8,9.6-2.3,13.9H247.2z"/>
<path class="st0" d="M121.4,301.9c4.5,4.5,7.3,10.7,7.3,17.6c0,4.6-1.2,8.9-3.4,12.6H11.4l0-0.4C4.5,326.8,0,318.8,0,309.7  c0-10.7,6.2-19.9,15.2-24.3c-2.8-3.8-4.4-8.5-4.4-13.6c0-11.6,8.5-21.2,19.6-22.9c-0.9-1.9-1.4-4-1.4-6.3c0-7.4,5.5-13.6,12.6-14.7  c-0.1-1-0.2-2-0.2-3.1c0-11.9,9.6-21.5,21.5-21.5c11.9,0,21.5,9.6,21.5,21.5c0,1.5-0.1,2.9-0.4,4.3c2.6-0.9,5.4-1.4,8.4-1.4  c14,0,25.4,11.3,25.4,25.3c0,4.9-1.4,9.5-3.8,13.3c10.2,0,18.5,8.3,18.5,18.6C132.6,292.5,128,299.1,121.4,301.9z"/>
<linearGradient id="SVGID_1_" gradientUnits="userSpaceOnUse" x1="96.338" y1="189.0964" x2="96.338" y2="332.1127">
	<stop offset="0" style="stop-color:#56BFF0"/>
	<stop offset="0.5624" style="stop-color:#6E98FF"/>
	<stop offset="1" style="stop-color:#8566FF"/>
</linearGradient>
<path class="st1" d="M35.1,298.6c-5,5-8.1,11.9-8.1,19.5c0,5.1,1.4,9.9,3.8,14h126.5l0-0.4c7.7-5.5,12.7-14.4,12.7-24.5  c0-11.9-6.9-22.1-16.9-27c3.1-4.2,4.9-9.4,4.9-15.1c0-12.9-9.4-23.5-21.8-25.5c1-2.1,1.5-4.5,1.5-7c0-8.3-6.1-15.1-14-16.3  c0.2-1.1,0.2-2.3,0.2-3.4c0-13.2-10.7-23.8-23.9-23.8s-23.9,10.7-23.9,23.8c0,1.6,0.2,3.2,0.5,4.8c-2.9-1-6-1.6-9.3-1.6  c-15.6,0-28.2,12.6-28.2,28.1c0,5.4,1.5,10.5,4.2,14.8c-11.4,0-20.6,9.3-20.6,20.6C22.8,288.2,27.9,295.4,35.1,298.6z"/>
<linearGradient id="SVGID_2_" gradientUnits="userSpaceOnUse" x1="320.878" y1="184.3928" x2="320.878" y2="332.1127">
	<stop offset="0" style="stop-color:#4DB6F8"/>
	<stop offset="0.5624" style="stop-color:#599FFF"/>
	<stop offset="1" style="stop-color:#6C73FF"/>
</linearGradient>
<path class="st2" d="M432.7,332.1c1.1-3,1.8-6.2,1.8-9.6c0-12.2-8.2-22.4-19.3-25.7c7.5-6.1,12.3-15.4,12.3-25.8  c0-18.4-15-33.3-33.4-33.3c-0.4,0-0.9,0-1.3,0c3.1-5.3,4.9-11.4,4.9-17.9c0-19.6-16-35.5-35.7-35.5c-14.3,0-26.6,8.4-32.3,20.4  c-4.1-4.2-9.7-6.8-16-6.8c-12.3,0-22.3,9.9-22.3,22.2c0,0.4,0,0.8,0,1.2c-3.7-1.1-7.6-1.7-11.7-1.7c-22.4,0-40.5,18.1-40.5,40.3  c0,3.3,0.4,6.4,1.1,9.5c-19.2,6.9-33,25.2-33,46.8c0,5.6,0.9,10.9,2.6,15.9H432.7z"/>
<path class="st3" d="M414,97.8c-2.9,0-5.2-2.3-5.2-5.2c0-2.9,2.3-5.2,5.2-5.2c0.1,0,0.3,0,0.4,0c1.1-3,3.9-5.2,7.3-5.2  c3.4,0,6.3,2.2,7.3,5.2c0.2,0,0.4,0,0.6,0c0.8,0,1.6,0.2,2.3,0.5c1.1-2.1,3.3-3.5,5.9-3.5c3.7,0,6.7,3,6.7,6.6c0,3.7-3,6.6-6.7,6.6  H414z"/>
<path class="st3" d="M81.4,29.9c-2.9,0-5.2-2.3-5.2-5.2s2.3-5.2,5.2-5.2c0.1,0,0.3,0,0.4,0c1.1-3,3.9-5.2,7.3-5.2  c3.4,0,6.3,2.2,7.3,5.2c0.2,0,0.4,0,0.6,0c0.8,0,1.6,0.2,2.3,0.5c1.1-2.1,3.3-3.5,5.9-3.5c3.7,0,6.7,3,6.7,6.6c0,3.7-3,6.6-6.7,6.6  H81.4z"/>
<path class="st3" d="M48.9,92.2c5.5,0,9.9-4.4,9.9-9.9s-4.4-9.9-9.9-9.9c-1.2,0-2.3,0.2-3.4,0.6c-1.7-6.6-7.7-11.4-14.8-11.4  c-6.9,0-12.7,4.5-14.6,10.8c-1.6-1-3.5-1.5-5.5-1.5C4.8,70.9,0,75.6,0,81.5c0,5.9,4.8,10.7,10.7,10.7H48.9z"/>
<g>
	<path class="st4" d="M158.1,332.1V16.3c0-9,7.3-16.3,16.3-16.3h161.8c9.5,0,17.2,7.7,17.2,17.2v293.3c0,11.9-9.7,21.6-21.6,21.6   H158.1z"/>
	<path class="st5" d="M157.2,332.1V17.3c0-9,7.3-16.3,16.3-16.3h162.7c9,0,16.3,7.3,16.3,16.3v293.2c0,11.9-9.7,21.6-21.6,21.6   H157.2z"/>
	<path class="st6" d="M149.4,289.4v-254c0-9.6,7.8-17.3,17.3-17.3h160.6c9.6,0,17.3,7.7,17.3,17.3v278.2c0,10.2-8.3,18.4-18.4,18.4   H166.7C157.2,332.1,149.4,299,149.4,289.4z"/>
	<rect x="332.1" y="161.8" class="st7" width="44.5" height="14.8"/>
	<rect x="332.1" y="161.8" class="st8" width="5.8" height="14.8"/>
	<rect x="332.1" y="32.1" class="st9" width="44.5" height="33.6"/>
	<rect x="332.1" y="32.1" class="st10" width="6.6" height="33.6"/>
	<path class="st4" d="M140.9,332.1V30.3c0-9,7.3-16.3,16.3-16.3h162.7c9,0,16.3,7.3,16.3,16.3v280.3c0,11.9-9.7,21.6-21.6,21.6   H140.9z"/>
	<path class="st5" d="M139.6,332.1V30.6c0-8.6,7-15.6,15.6-15.6h164c8.6,0,15.6,7,15.6,15.6v280c0,11.9-9.7,21.6-21.6,21.6H139.6z"/>
	<path class="st6" d="M132.1,303V49c0-9.6,7.8-17.3,17.3-17.3H310c9.6,0,17.3,7.7,17.3,17.3v265.6c0,9.6-7.8,17.4-17.5,17.4H149.4   C139.8,332.1,132.1,312.6,132.1,303z"/>
	<rect x="312.8" y="195" class="st11" width="49.6" height="33.6"/>
	<rect x="312.8" y="195" class="st12" width="10.8" height="33.6"/>
	<path class="st4" d="M125.5,331.9V43.6c0-9.6,7.8-17.3,17.3-17.3h160.6c8.5,0,17.3,6.7,17.3,17.3v266.7c0,11.9-9.7,21.5-21.6,21.5   H126.6C126,331.9,125.5,332.4,125.5,331.9z"/>
	<path class="st5" d="M124.1,332.1V43.6c0-9,7.3-16.3,16.3-16.3h162.7c9,0,16.3,7.3,16.3,16.3v266.9c0,11.9-9.7,21.6-21.6,21.6   H124.1z"/>
	<path class="st6" d="M115.3,316.6v-254c0-9.6,7.8-17.3,17.3-17.3h160.6c9.6,0,17.3,7.7,17.3,17.3v256.1c0,7.3-5.9,13.4-13.2,13.4   H132.6C123.1,332.1,115.3,326.1,115.3,316.6z"/>
	<rect x="293.1" y="260.2" class="st9" width="49.6" height="14.8"/>
	<rect x="294.1" y="260.2" class="st10" width="11.7" height="14.8"/>
	<rect x="294.7" y="97.8" class="st13" width="49.6" height="33.6"/>
	<rect x="294.7" y="97.8" class="st14" width="10.6" height="33.6"/>
	<g>
		<g>
			<g>
				<path class="st5" d="M105.1,313.8V60.6c0-10.1,8.2-18.3,18.3-18.3H284c10.1,0,18.3,8.2,18.3,18.3v253.2      c0,10.1-8.2,18.3-18.3,18.3H123.4C113.3,332.1,105.1,323.9,105.1,313.8z"/>
				<path class="st4" d="M108.2,314.8V60.9c0-9.6,7.8-17.3,17.3-17.3h160.6c9.6,0,17.3,7.8,17.3,17.3v253.9      c0,9.6-7.8,17.3-17.3,17.3H125.5C116,332.1,108.2,324.4,108.2,314.8z"/>
				<path class="st5" d="M107,315.9V59.8c0-9,7.3-16.3,16.3-16.3H286c9,0,16.3,7.3,16.3,16.3v256.1c0,9-7.3,16.3-16.3,16.3H123.3      C114.3,332.1,107,324.8,107,315.9z"/>
				
					<rect x="79.1" y="93.8" transform="matrix(-1.836970e-16 1 -1 -1.836970e-16 391.9857 -17.3043)" class="st15" width="251.1" height="187.1"/>
				<path d="M298.2,61.8v251.1H111.1V61.8H298.2z M299.2,60.8H110.1v253.1h189.1V60.8z"/>
				<path class="st7" d="M196.7,322.6c0-0.6,0.5-1,1-1h12.2c0.6,0,1,0.5,1,1s-0.5,1-1,1h-12.2C197.1,323.7,196.7,323.2,196.7,322.6z      "/>
				<path class="st7" d="M203.8,54.5c-0.9,0-1.6-0.7-1.6-1.6c0-0.9,0.7-1.6,1.6-1.6c0.9,0,1.6,0.7,1.6,1.6      C205.4,53.8,204.7,54.5,203.8,54.5z"/>
			</g>
			<rect x="111.1" y="61.2" class="st16" width="187.1" height="6.7"/>
			<path class="st7" d="M124.5,64.4c0,0.6-0.5,1.1-1.1,1.1s-1.1-0.5-1.1-1.1c0-0.6,0.5-1.1,1.1-1.1S124.5,63.8,124.5,64.4z"/>
			<path class="st7" d="M132.2,64.4c0,0.6-0.5,1.1-1.1,1.1c-0.6,0-1.1-0.5-1.1-1.1c0-0.6,0.5-1.1,1.1-1.1     C131.7,63.3,132.2,63.8,132.2,64.4z"/>
			<path class="st7" d="M117.2,64.4c0,0.6-0.5,1.1-1.1,1.1s-1.1-0.5-1.1-1.1c0-0.6,0.5-1.1,1.1-1.1S117.2,63.8,117.2,64.4z"/>
			<path class="st7" d="M291.2,64.4c0,0.6-0.5,1.1-1.1,1.1S289,65,289,64.4c0-0.6,0.5-1.1,1.1-1.1S291.2,63.8,291.2,64.4z"/>
			<path class="st7" d="M285.6,64.4c0,0.6-0.5,1.1-1.1,1.1s-1.1-0.5-1.1-1.1c0-0.6,0.5-1.1,1.1-1.1S285.6,63.8,285.6,64.4z"/>
		</g>
		<path class="st17" d="M107,240.2V59.3c0-9,7.3-16.2,16.3-16.2h156.3L107,240.2z"/>
	</g>
	<rect x="310.5" y="131.4" class="st18" width="10.2" height="6.1"/>
	<rect x="344.6" y="176.7" class="st18" width="8.7" height="6"/>
	<rect x="344.6" y="65.7" class="st18" width="8.7" height="4.7"/>
	<rect x="327.3" y="228.6" class="st18" width="8.8" height="4.9"/>
	<rect x="310.3" y="275" class="st18" width="10.4" height="5.1"/>
	<path class="st19" d="M170.8,117.5H132V87.6h38.8V117.5z M226,87.6h-38.8v29.9H226V87.6z M281.2,87.6h-38.8v29.9h38.8V87.6z    M170.8,133.2H132v29.9h38.8V133.2z M226,133.2h-38.8v29.9H226V133.2z M281.2,133.2h-38.8v29.9h38.8V133.2z M170.8,178.9H132v29.9   h38.8V178.9z M226,178.9h-38.8v29.9H226V178.9z M281.2,178.9h-38.8v29.9h38.8V178.9z M170.8,224.5H132v29.9h38.8V224.5z M226,224.5   h-38.8v29.9H226V224.5z M281.2,224.5h-38.8v29.9h38.8V224.5z M170.8,270.1H132v29.9h38.8V270.1z M226,270.1h-38.8v29.9H226V270.1z    M281.2,270.1h-38.8v29.9h38.8V270.1z"/>
	<g>
		<rect x="129.4" y="84.8" class="st20" width="38.8" height="29.9"/>
		<rect x="184.5" y="84.8" class="st21" width="38.8" height="29.9"/>
		<rect x="239.7" y="84.8" class="st20" width="38.8" height="29.9"/>
		<rect x="129.4" y="130.5" class="st22" width="38.8" height="29.9"/>
		<rect x="184.5" y="130.5" class="st7" width="38.8" height="29.9"/>
		<rect x="239.7" y="130.5" class="st7" width="38.8" height="29.9"/>
		<rect x="129.4" y="176.1" class="st23" width="38.8" height="29.9"/>
		<rect x="184.5" y="176.1" class="st9" width="38.8" height="29.9"/>
		<rect x="239.7" y="176.1" class="st11" width="38.8" height="29.9"/>
		<rect x="129.4" y="221.8" class="st11" width="38.8" height="29.9"/>
		<rect x="184.5" y="221.8" class="st20" width="38.8" height="29.9"/>
		<rect x="239.7" y="221.8" class="st13" width="38.8" height="29.9"/>
		<rect x="129.4" y="267.4" class="st7" width="38.8" height="29.9"/>
		<rect x="184.5" y="267.4" class="st21" width="38.8" height="29.9"/>
		<rect x="239.7" y="267.4" class="st7" width="38.8" height="29.9"/>
	</g>
</g>
<g>
	<g>
		<path class="st24" d="M84.3,366.4c0,0,0.5,13-0.2,17.1c-0.6,3.4,2.7,3.4,5.8,3.3c3-0.2,16.5-0.1,16.5-0.1s0.5-1.9-2.4-2.4    c-2.6-0.4-9.2-4-9.2-4v-12.9L84.3,366.4z"/>
		<rect x="84.3" y="386.5" class="st16" width="22.3" height="1.5"/>
		<path class="st25" d="M84.4,380.5c0,0,2-0.1,3.8,1.4c1.9,1.5,5.5,1,5.5,1l1.9-2.5c0,0,6,3,7.4,3.3s3.3,0.6,3.4,1.7    c0.1,1.1,0,2,0,2l-22.1-0.3c0,0-1-1.3-0.9-2.6C83.6,383.3,84.4,380.5,84.4,380.5z"/>
		<rect x="83.3" y="386.5" class="st16" width="23.2" height="1.5"/>
	</g>
	<g>
		<path class="st24" d="M53.6,366.4c0,0-1.9,12.1-3.5,17.1c-1,3.3,2.7,3.4,5.8,3.3c3-0.2,16.5-0.1,16.5-0.1s0.5-1.9-2.4-2.4    c-2.6-0.4-9.3-4-9.3-4l2.5-12.7L53.6,366.4z"/>
		<path class="st25" d="M50.6,380.5c0,0,2-0.1,3.8,1.4c1.9,1.5,5.5,1,5.5,1l1.9-2.5c0,0,6,3,7.4,3.3s3.3,0.6,3.4,1.7    c0.1,1.1,0,2,0,2l-22.1-0.3c0,0-1-1.3-0.9-2.6C49.7,383.3,50.6,380.5,50.6,380.5z"/>
		<rect x="49.5" y="386.5" class="st16" width="23.2" height="1.5"/>
	</g>
	<path class="st24" d="M86.2,232.9c0,0,9.3,0,10.5-0.6c1.3-0.6-4.2-8.9-4.2-8.9l-11.5,1.2L86.2,232.9z"/>
	<path class="st20" d="M57.5,253.5c-3,10-2,17.4,0.2,32.7c2.2,15-5.9,82.8-5.9,82.8l11.2,1.2c0,0,9.7-43.2,13.2-66.7   c3.5-23.5,4.1-51.1,4.1-51.1L57.5,253.5z"/>
	<path class="st26" d="M76.1,304.5c1.1-9.1,2.8-24.9,3.3-32.7L62,260.9c-0.3,7.9,1.4,15,6.5,22.7C72.8,290.1,75.1,301.6,76.1,304.5z   "/>
	<path class="st27" d="M91.6,251c6.3,24.9,8.8,44.3,7.5,79.4c-1.3,35.1-2.2,39.2-2.2,39.2l-13.2,0.2c0,0-5-41.5-5.3-66.6   c-0.3-26.3-20.1-23.8-17.1-50.8L91.6,251z"/>
	<path class="st24" d="M98,222.9c-1.5-3-6.2-9.5-8.6-12.6l-9.8,7c0,0,4.2,5.4,10.9,12.7c0.7,0.7,2.4,2.5,5.5,2.4   C99.1,232.4,100.4,227.7,98,222.9z"/>
	<path class="st24" d="M67.3,183.7c-1-0.2-0.9,1.1-0.9,1.1c-1-0.2-2.3,1-1.5,1.1s2.8,2.1,2.8,2.1s-3-1-3.1-0.3   c-0.1,0.7,4.6,2.8,5.9,4.6c1.4,1.8,2.8,5.4,6.7,11.7c3.1,5,17.9,18.5,20.9,20.6c-1.5-12.4-25.5-41.1-27.6-42.2   c-1-0.5-1.7,0.4-1.7,0.4C67.6,182.3,67.3,183.7,67.3,183.7z"/>
	<path class="st28" d="M84.1,224.4l5.6,8.4c0,0,0.9-9.3,1.9-10.7c2.2-3,3.8-3.1,3.8-3.1l-1.2-1.6L84.1,224.4z"/>
	<path class="st24" d="M65.8,173.1l2,2.7c0.2,0.3,0.1,0.8-0.3,0.9l-1.8,0.3L65.8,173.1z"/>
	<path class="st24" d="M66.2,174.1c0.2,6.3,0,11.9-6.4,11.5c-2.5-0.2-5.4-6.7-5.9-12.9c-0.5-6.3-2.9-9.5,3.6-9.7   C66.7,162.7,66,167.8,66.2,174.1z"/>
	<path class="st5" d="M66,170.7c-0.2,0-0.5,0.1-0.7,0.1l-0.7,0.1c-0.2,0-0.5,0-0.7,0.1c-0.1,0-0.2,0-0.3,0l-0.4,0.1c0,0,0,0,0,0   c0,0,0,0,0,0c0,0-0.1,0-0.1-0.1c0-0.1,0-0.1,0.1-0.2c0.1,0,0.1,0,0.2,0.1c0,0,0-0.1-0.1-0.1c0,0,0,0,0,0c0,0,0,0,0,0l0,0   c0,0,0,0,0,0l0,0l0.1-0.1c0.1,0,0.1-0.1,0.2-0.1c0.1-0.1,0.2-0.1,0.4-0.1c0.2-0.1,0.5-0.1,0.8-0.1c0.3,0,0.5,0,0.8,0   c0.3,0,0.5,0.1,0.7,0.2c0.1,0,0.1,0.1,0.1,0.2C66.1,170.6,66.1,170.7,66,170.7z"/>
	<path class="st29" d="M65.3,176.7c0,1-0.7,1.8-1.7,1.8c-1,0-1.8-0.7-1.8-1.7c0-1,0.7-1.8,1.7-1.8C64.4,175,65.2,175.7,65.3,176.7z"/>
	<path class="st24" d="M46.4,202.2c7.9,4,17,4.7,25.8,5.5c0-0.3-0.1-0.6-0.1-0.9c-0.1-1.3-1.5-2.8-2.6-4.3c-1.1-1.5-2.7-2.7-4.6-3.1   c-1.1-0.2-1.7-0.5-2.1-2.1c-0.8-3-4.1-22.2-4.1-22.2l-10.3,2.6c0,0,0.8,16.9,0.5,19.5C48.7,198.9,48.1,200.6,46.4,202.2z"/>
	
		<linearGradient id="SVGID_3_" gradientUnits="userSpaceOnUse" x1="373.3908" y1="643.0212" x2="371.4476" y2="664.8825" gradientTransform="matrix(0.9996 -2.960000e-02 2.960000e-02 0.9996 -335.8384 -454.8054)">
		<stop offset="0" style="stop-color:#E9A688"/>
		<stop offset="1" style="stop-color:#F5CFBF;stop-opacity:0"/>
	</linearGradient>
	<path class="st30" d="M63.1,198.1c-0.1-0.2-0.2-0.4-0.3-0.7c-0.8-3-4.1-22.2-4.1-22.2l-10.3,2.6c0,0,0.8,16.9,0.5,19.5   c-0.1,0.4-0.2,0.8-0.5,1.2L63.1,198.1z"/>
	<path class="st16" d="M65.4,172.8c0,0.2-0.2,0.4-0.5,0.4c-0.2,0-0.4-0.2-0.4-0.5c0-0.2,0.2-0.4,0.5-0.4   C65.2,172.4,65.4,172.6,65.4,172.8z"/>
	<path class="st21" d="M48.2,185.1c-2.9-0.5-4.5-3.5-3.6-6.3c0.7-2,1-4.5-0.2-6.4c-3.1-5.2,0.5-12.2,6.7-11.5   c6.5,0.7,9.3-1.8,12.3-0.9c1.9,0.6,2.1,2.9,0.8,4.2c-0.3,0.3,0.4,0.6,0,0.6c-1.4,0.1-3.1,1-2.4,3.8c0.9,3.5-1.9,4.3-1.5,6.5   l-1.1,0.1c0,0-0.3-3.5-0.3-4.9c-1.6,0.2-3.3,3.3-3.3,7C55.4,184.8,51.6,185.8,48.2,185.1z"/>
	<g>
		<path class="st29" d="M59.3,179.3c-2.5,0.1-4.5-1.9-4.6-4.3c-0.1-2.5,1.9-4.5,4.3-4.6L59.3,179.3z"/>
		<path class="st31" d="M59.2,177.2c-1.3,0-2.4-1-2.4-2.3s1-2.4,2.3-2.4L59.2,177.2z"/>
	</g>
	<path class="st9" d="M43.4,214.2c-0.9-4.6,0-11.6,5.2-16.5c0,0,7.7-2.1,13.2-2.3c5.4-0.2,17,0.4,22,6.6c5,6.2,11.3,15.9,11.3,15.9   c-1.9,2.3-8.2,6.4-10.6,7c0,0,8.7,15.9,7.2,26.1c0,0-1.6,3-15.4,5c-10.4,1.5-19.6-1.7-19.6-1.7s2.8-7.4-1.7-18.2   C49.2,222.6,44.8,221.2,43.4,214.2z"/>
	<path class="st10" d="M76.8,212.5c0,0,8,21.6,13,39.9c1.5-0.8,1.8-1.4,1.8-1.4c1.1-7-2.7-16.7-5.2-22.1c-1.2-2.5-2-4.1-2-4.1   C80.9,219.3,76.8,212.5,76.8,212.5z"/>
	<path class="st24" d="M86.1,228.3c-2.6,0.5-4.2,2-3.5,2.6c0.7,0.5,4.1-0.5,4.1-0.5s-3.8,0.7-3.6,1.9c0.2,1.3,4.3,0,4.3,0   s-3,0.8-2.7,2c0.3,1.2,3-0.1,3-0.1s-2.2,0.9-1.8,1.6c0.4,0.8,2.4,0.4,3.2-1c0.9-1.4,1.2-5.3-0.8-7.7c-2.1-2.4-3.7-2.1-3.7-2.1   L86.1,228.3z"/>
</g>
<g>
	<path class="st16" d="M113,381l0.8,7h1.7v-5.2c0,0,2.5,1.7,3.9,3.2c1.4,1.4,3.9,2.5,7.1,1.7l-0.2-0.7l-10.2-6.1L113,381z"/>
	<path class="st16" d="M143.5,381l1.1,7h1.7l0.1-5.2c0,0,2.5,1.7,3.9,3.2c1.4,1.4,3.9,2.5,7.1,1.7l-0.2-0.7l-10.2-6.1L143.5,381z"/>
	<path class="st24" d="M126.3,387.3c-0.3,0.1-1.2,0.3-2,0.2c-1.2-0.2-3.1-0.2-6-3.2c-2.2-2.2-4.1-2.6-5.3-3.2   c0.4-3.1,0.6-8.4,0.7-14.7h10c-0.7,7.3-1.1,12.6-1,13.4C123.1,383.8,126.3,386.2,126.3,387.3z"/>
	<path class="st24" d="M157.1,387c-0.2,0.1-0.7,0.4-1.6,0.4c-1.2,0.1-3.4-0.3-5.8-2.6c-2.3-2.3-3.9-3.1-6.3-3.8   c-0.2-3.3-0.8-8.4-1.5-14.7h9.6c0.3,7.4,0.7,12.8,0.9,13.6C153.6,383.8,156.9,386,157.1,387z"/>
	<path class="st20" d="M129.4,283.4c0,0-1,6.6-1.5,18c-0.4,11.3-0.4,18.8-2,39.6c-0.7,8.7-1.5,18-2.2,25.4h-10   c0.2-11.2,0-25.1,0.2-33.5c0.3-16-0.6-35.6,1.3-50.5L129.4,283.4z"/>
	<path class="st20" d="M150.9,340.5c0.1,8.7,0.3,18.3,0.7,25.8h-9.6c-1.1-10.1-2.6-23.3-3.5-36.7c-1.1-17-1.3-30.1-1.5-45.4l15-1.7   c0,0-0.6,12.4-0.9,24.8C150.7,319.9,150.7,322.7,150.9,340.5z"/>
	<path class="st32" d="M137.1,292.8c1.4-0.7,3.8-1.7,6.8-2c2.7-0.3,5.6,0.5,7.6,1.3c0.3-6.8,0.5-11.9,0.5-11.9l-15,1.7   C137,285.7,137,289.3,137.1,292.8z"/>
	<path class="st32" d="M114.3,292.6c1.4-0.7,3.3-1.4,6.3-1.8c2.7-0.3,5.9,0.6,7.9,1.4c0.6-6.9,0.6-7.2,0.6-7.2l-14.6,3.4   C114.3,291,114.5,288.9,114.3,292.6z"/>
	<path class="st29" d="M143.1,179.4l2.1,2.2c0.2,0.3,0.1,0.7-0.2,0.8l-1.6,0.5L143.1,179.4z"/>
	<path class="st24" d="M143.6,180.3c0.8,5.6-0.2,10.8-4.7,10.9c-2.2,0.1-5.4-5.5-6.5-11.1c-1-5.6-3.5-8.3,2.3-9.1   C143,169.9,142.8,174.6,143.6,180.3z"/>
	<path class="st29" d="M143.6,182.2c0.1,1-0.6,1.9-1.5,2c-1,0.1-1.9-0.6-2-1.5c-0.1-1,0.6-1.9,1.5-2   C142.6,180.5,143.5,181.2,143.6,182.2z"/>
	<path class="st24" d="M115.2,246.6c0.9-2.5,2.6-17.5,6-23.9c0.6-1.1,1.7-2.9,2.2-4c0.3-3.8,2.3-13.6-4.1-10.1   c-6,3.3-11.2,17.6-12.2,32.8c-0.3,4.1-1.3,6.7,1.7,8.6C111.8,251.9,114.5,248.6,115.2,246.6z"/>
	<path class="st29" d="M110.1,248.3c-0.9-0.2-1.8,0.2-2.3,0.8c0.3,0.3,0.6,0.6,1,0.8c1.2,0.8,2.3,0.7,3.3,0.3   C111.9,249.2,111.1,248.4,110.1,248.3z"/>
	<path class="st24" d="M138.7,216.5c4.1-0.1,7.8,0.3,10,0.7c0.4-2.1,0.1-4,0-6.1c-0.1-1.2-1.3-2.6-2.2-3.9c-1-1.4-2.4-2.5-4.1-2.9   c-1-0.2-1.5-0.5-1.8-1.9c-0.7-2.7-3.1-20.1-3.1-20.1l-9.3,2.1c0,0,0.3,15.3-0.1,17.6c-0.3,2.2-3.9,3.3-8.2,5.2   c2.4,3.2,3.2,8,2.8,12C127.4,215.6,133.5,216.6,138.7,216.5z"/>
	<linearGradient id="SVGID_4_" gradientUnits="userSpaceOnUse" x1="135.295" y1="183.5603" x2="133.5391" y2="203.3136">
		<stop offset="0" style="stop-color:#E9A688"/>
		<stop offset="1" style="stop-color:#F5CFBF;stop-opacity:0"/>
	</linearGradient>
	<path class="st33" d="M140.7,202.9c-0.1-0.2-0.1-0.4-0.2-0.7c-0.7-2.7-3.1-20.1-3.1-20.1l-9.3,2.1c0,0,0.3,15.3-0.1,17.6   c-0.1,0.4-0.2,0.7-0.5,1.1H140.7z"/>
	<path class="st16" d="M142.5,204.2c1.5,1.1,4.7,10.7,4.7,10.7l4.1,0.6c0,0-2.7-6.7-4.6-8.8C144.8,204.6,142.5,204.2,142.5,204.2z"/>
	<path class="st34" d="M155.2,263.5c-2.4-16.6-6-24.4-6.8-29.6l-0.9-5.5c0,0,3.8-0.9,5.3-5.2c1.5-4.3-2.1-8.6-2.1-8.6   s-2.5-0.5-12.3-0.2c-9.8,0.2-17.3,2-17.3,2l-2.2,6.8l0.7,9.6c-0.7,4-4.2,9.4-8.1,20.7c-3.9,11.4-4.9,35.3-4.9,35.3s8.6,1.9,27,1.4   c18.1-0.5,24.9-2.2,24.9-2.2S157.6,280.1,155.2,263.5z"/>
	<path class="st24" d="M140.6,208.2c-0.4,7.2,9.7,19.9,22.9,29.3c13.2,9.4,26-15.3,29.8-21.4c3.8-6.2,3.3-9.3,2.8-8.5   c0.3-0.9-1-1.6-1.5-0.8c0.4-0.9-1.2-1.6-1.8-0.5c0.4-0.9,1.4-2.6,0.5-3c-0.9-0.4-3.8,5.1-4.5,6.5c0.3-0.7,1-2,1.2-2.6   c0.2-0.5-0.2-1-0.5-1.1c-0.3-0.1-0.5,0.2-1.2,1.3c-1.3,2.1-6.4,13.7-17.4,22.9c-2.7,0.3-12.9-9.7-18.7-20.2   C149.8,205.6,141,200.5,140.6,208.2z"/>
	<path class="st29" d="M169.9,237.2c-1.2,0.1-2.1,1-2.3,2.2c1.7,0.4,3.5,0.3,5.1-0.3C172.4,237.9,171.2,237,169.9,237.2z"/>
	<g>
		<path class="st29" d="M137.8,185.6c-2.2,0.3-4.2-1.3-4.5-3.5c-0.3-2.2,1.3-4.2,3.5-4.5L137.8,185.6z"/>
		<path class="st31" d="M137.6,183.7c-1.2,0.2-2.2-0.7-2.4-1.8c-0.2-1.2,0.7-2.2,1.8-2.4L137.6,183.7z"/>
	</g>
	<path class="st21" d="M142.9,168.6c-0.7-1.7-3.2-3-6.2-2.7c-1.4-1.1-3.2-1.7-5.6-1.3c-5.3,0.8-4.5,3.9-9.5,5.9   c-5,2-6.4,0.9-11.2,1.4c-4.8,0.5-7.7,2.2-10.8,5.6c-3.1,3.4-3.7,5.8-8.2,6.6c-4.4,0.8-6.2,0.2-10.6,3.4c-4.3,3.2-4.4,4.7-6.8,7.3   c-2.4,2.6-2.4,7.5,2.1,10c1.6,0.9,5.1,0.6,8.1-1.3c3-1.9,5.5-2.6,8.9-1.7c3.4,0.9,7.3,0.3,9.7-1.7c2.4-1.9,5.2-3.6,10.8-2.9   c5.6,0.6,7.5,0,11-3.5c3.4-3.5,4.8-4.5,4.8-4.5s10.1-10,10.3-15c0-0.4,0-0.8,0-1.2c0.3-0.1,0.7-0.1,1,0   C143,173.6,143.6,170.5,142.9,168.6z"/>
	<path class="st35" d="M127.6,183.6c-4.8,0-10.3-2.7-13.2,0c-2.8,2.7-5.7,5.5-8.4,6c-2.8,0.5-6.9-1.1-10.4,1c-3.5,2.2-4.4,5.7-8,6.9   c-3.6,1.2-5.3,0.3-8.1,3.4c-1.1,1.2-1.7,2.8-1.9,4.2c1.8,0.3,4.4-0.3,6.8-1.7c3-1.9,5.5-2.6,8.9-1.7c3.4,0.9,7.3,0.3,9.7-1.7   c2.4-1.9,5.2-3.6,10.8-2.9c5.6,0.6,7.5,0,11-3.5c3.4-3.5,4.8-4.5,4.8-4.5s4.3-4.3,7.3-8.6C136.8,180.6,132.3,183.6,127.6,183.6z"/>
	<circle class="st16" cx="142.3" cy="179.2" r="0.4"/>
	<path class="st34" d="M125.8,204.2c0,0,12.2-1.4,15.6-0.6c3.4,0.8,5.9,0.5,9.5,4.3c0,0-0.1,5.8-7.2,9.6c-7.1,3.8-24.6,6.3-24.6,6.3   s-4.5-7.5-3.7-12.7C115.5,211.1,118.6,206.5,125.8,204.2z"/>
	<path class="st16" d="M147.2,383L147.2,383c-0.2,0-0.3-0.1-0.3-0.3c0-1-0.4-2-1.1-2.8c-0.7-0.7-1.6-1.1-2.5-1   c-0.2,0-0.3-0.1-0.3-0.3c0-0.1,0.1-0.3,0.3-0.3c1.1-0.1,2.1,0.4,2.9,1.2c0.9,0.9,1.3,2,1.3,3.2C147.4,382.8,147.3,383,147.2,383z"/>
	<path class="st16" d="M153,387.4c-0.1,0-0.1,0-0.2-0.1c-0.1-0.1-0.1-0.3,0-0.4c0.6-0.5,1.9-2.1,1.5-3c-0.1-0.1,0-0.3,0.1-0.4   c0.1-0.1,0.3,0,0.4,0.1c0.6,1.4-1.4,3.4-1.6,3.6C153.1,387.4,153.1,387.4,153,387.4z"/>
	<path class="st16" d="M116.8,383.2C116.8,383.2,116.8,383.2,116.8,383.2c-0.2,0-0.3-0.2-0.3-0.3c0.2-1.1,0-2-0.7-2.8   c-0.6-0.8-1.6-1.2-2.7-1.3c-0.1,0-0.3-0.1-0.3-0.3c0-0.1,0.1-0.3,0.3-0.3c1.2,0.1,2.3,0.6,3,1.5c0.7,0.9,1,2,0.8,3.2   C117.1,383.1,117,383.2,116.8,383.2z"/>
	<path class="st16" d="M122.2,387.4c-0.1,0-0.2-0.1-0.2-0.2c-0.1-0.1,0-0.3,0.1-0.4c0,0,2.5-1.3,2.1-2.7c0-0.1,0-0.3,0.2-0.3   c0.1,0,0.3,0,0.3,0.2c0.5,1.9-2.3,3.3-2.4,3.3C122.3,387.4,122.2,387.4,122.2,387.4z"/>
</g>
</svg>