<svg xmlns="http://www.w3.org/2000/svg" viewBox="0 0 64 64">
  <circle cx="16.50001" cy="25.50001" r="4" fill="none" stroke="#14aa8c" stroke-miterlimit="10"/>
  <line x1="28" y1="39.5" x2="20.5" y2="39.5" fill="none" stroke="#14aa8c" stroke-miterlimit="10"/>
  <line x1="43.5" y1="39.5" x2="36" y2="39.5" fill="none" stroke="#14aa8c" stroke-miterlimit="10"/>
  <path d="M51.5,25.5h2a7.02058,7.02058,0,0,1,7,7v0a7.02058,7.02058,0,0,1-7,7h-2" fill="none" stroke="#14aa8c" stroke-miterlimit="10"/>
  <line x1="36" y1="25.5" x2="43.5" y2="25.5" fill="none" stroke="#14aa8c" stroke-miterlimit="10"/>
  <line x1="20.5" y1="25.5" x2="28" y2="25.5" fill="none" stroke="#14aa8c" stroke-miterlimit="10"/>
  <path d="M12.5,39.5h-1a7.02058,7.02058,0,0,1-7-7v0a7.02058,7.02058,0,0,1,7-7h1" fill="none" stroke="#14aa8c" stroke-miterlimit="10"/>
  <circle cx="32" cy="25.5" r="4" fill="none" stroke="#14aa8c" stroke-miterlimit="10"/>
  <circle cx="47.5" cy="25.5" r="4" fill="none" stroke="#14aa8c" stroke-miterlimit="10"/>
  <circle cx="16.5" cy="39.5" r="4" fill="none" stroke="#14aa8c" stroke-miterlimit="10"/>
  <circle cx="32" cy="39.5" r="4" fill="none" stroke="#14aa8c" stroke-miterlimit="10"/>
  <circle cx="47.5" cy="39.5" r="4" fill="none" stroke="#14aa8c" stroke-miterlimit="10"/>
  <polyline points="7.568 35.727 8.091 38.506 5.525 38.989" fill="none" stroke="#14aa8c" stroke-linecap="round" stroke-linejoin="round"/>
  <polyline points="57.048 28.989 56.525 26.21 59.091 25.727" fill="none" stroke="#14aa8c" stroke-linecap="round" stroke-linejoin="round"/>
  <circle cx="16.50001" cy="25.50001" r="0.99991" fill="none" stroke="#0096ff" stroke-miterlimit="10" stroke-width="0.68211"/>
  <circle cx="31.99991" cy="25.50001" r="0.99991" fill="none" stroke="#0096ff" stroke-miterlimit="10" stroke-width="0.68211"/>
  <circle cx="47.50001" cy="25.50001" r="0.99991" fill="none" stroke="#0096ff" stroke-miterlimit="10" stroke-width="0.68211"/>
  <circle cx="16.50001" cy="39.50001" r="0.99991" fill="none" stroke="#0096ff" stroke-miterlimit="10" stroke-width="0.68211"/>
  <circle cx="31.99991" cy="39.50001" r="0.99991" fill="none" stroke="#0096ff" stroke-miterlimit="10" stroke-width="0.68211"/>
  <circle cx="47.50001" cy="39.50001" r="0.99991" fill="none" stroke="#0096ff" stroke-miterlimit="10" stroke-width="0.68211"/>
</svg>
