<svg xmlns="http://www.w3.org/2000/svg" viewBox="0 0 64 64">
  <path d="M23.335,52.42688C20.52677,47.476,18.75,40.16082,18.75,32,18.75,17.08831,24.68223,5,32,5S45.25,17.08831,45.25,32,39.31777,59,32,59c-2.394,0-4.63963-1.29372-6.57783-3.55678" fill="none" stroke="#14aa8c" stroke-miterlimit="10" stroke-width="0.90687" fill-rule="evenodd"/>
  <circle cx="17.5" cy="14" r="2" fill="none" stroke="#14aa8c" stroke-miterlimit="10"/>
  <circle cx="55" cy="28" r="2" fill="none" stroke="#14aa8c" stroke-miterlimit="10"/>
  <circle cx="24" cy="54" r="2" fill="none" stroke="#14aa8c" stroke-miterlimit="10"/>
  <path d="M31.77382,23.87524a5.40479,5.40479,0,0,1,5.33694,4.90906,2.11272,2.11272,0,0,0,.30357.935l1.31678,2.00453h-.39089a1.21759,1.21759,0,0,0-1.21627,1.216l-.00069,2.56227a.05626.05626,0,0,1-.06395.06405h-1.9125a1.308,1.308,0,0,0-1.30646,1.30672l.00056,2.11641-4.56626-.40612V35.33936a1.85385,1.85385,0,0,0-.65406-1.3892,6.32168,6.32168,0,0,1-2.21371-4.708,5.37237,5.37237,0,0,1,5.36564-5.36694h.0013m-.00129-1a6.36508,6.36508,0,0,0-6.36565,6.36694,7.36113,7.36113,0,0,0,2.56121,5.46577.85215.85215,0,0,1,.30656.63141V38.9829a.56591.56591,0,0,0,.50522.55952l5.46577.48682a.52563.52563,0,0,0,.058.00323.55292.55292,0,0,0,.53739-.56274l-.00069-2.59711a.3162.3162,0,0,1,.30646-.30645h1.9125a1.05463,1.05463,0,0,0,1.06395-1.06405l.00069-2.562a.219.219,0,0,1,.21627-.21627h.93786l.02284.00036a.69874.69874,0,0,0,.57256-1.0827l.0001-.0002-1.62345-2.471a1.10112,1.10112,0,0,1-.14448-.48692,6.37345,6.37345,0,0,0-6.33183-5.80812Z" fill="#0096ff"/>
  <path d="M34.16,29.31441a1.455,1.455,0,0,1-.613-.14448,1.43164,1.43164,0,0,1-1.01034.415,1.82088,1.82088,0,0,1-.451-.07189A1.12673,1.12673,0,0,1,31.16536,30h-.05419a6.09768,6.09768,0,0,0-.55951,2.59711.3466.3466,0,0,1-.43264.32485l-.21627-.05419a.34939.34939,0,0,1-.27056-.36085,12.9818,12.9818,0,0,0-.19876-2.20046,1.27619,1.27619,0,0,1-1.064-1.24432c0-.09019.0183-.16208.0183-.25226a1.26526,1.26526,0,0,1-.59541-1.08234,1.29969,1.29969,0,0,1,.92026-1.22671,1.34557,1.34557,0,0,1,1.3345-1.281,1.42182,1.42182,0,0,1,.6314.16208,1.31017,1.31017,0,0,1,1.13653-.613,1.32775,1.32775,0,0,1,1.11823.59541,1.53863,1.53863,0,0,1,.415-.07189,1.34847,1.34847,0,0,1,1.3345,1.20842A1.45827,1.45827,0,0,1,34.16,29.31441Z" fill="#0096ff"/>
  <path d="M19.11783,13.93377c5.68856.19465,12.85322,2.50472,19.80977,6.7715C51.6388,28.50166,58.84168,39.8787,55.01568,46.11661S37.78361,51.09112,25.0724,43.29473,5.15832,24.1213,8.98432,17.88339c1.25165-2.04069,3.52858-3.27856,6.47105-3.74754" fill="none" stroke="#14aa8c" stroke-miterlimit="10" stroke-width="0.90687" fill-rule="evenodd"/>
  <path d="M54.04838,29.50843c-2.93182,4.87874-8.42966,10.021-15.53712,14.03133C25.5243,50.8676,12.0811,51.64146,8.485,45.26823s4.01675-17.48014,17.00371-24.808S51.9189,12.35854,55.515,18.73177c1.17643,2.08495,1.15326,4.67652.13477,7.47665" fill="none" stroke="#14aa8c" stroke-miterlimit="10" stroke-width="0.90687" fill-rule="evenodd"/>
</svg>
