<svg xmlns="http://www.w3.org/2000/svg" viewBox="0 0 24 24">
  <path d="M22,5.89a8.16,8.16,0,0,1-2.36.64,4.07,4.07,0,0,0,1.81-2.24,8.14,8.14,0,0,1-2.61,1,4.13,4.13,0,0,0-3-1.27,4.08,4.08,0,0,0-4.11,4,4,4,0,0,0,.11.92A11.75,11.75,0,0,1,3.39,4.74a4,4,0,0,0,1.27,5.39,4.19,4.19,0,0,1-1.86-.5v0a4.07,4.07,0,0,0,3.3,4A4.32,4.32,0,0,1,5,13.78a4.92,4.92,0,0,1-.78-.07,4.1,4.1,0,0,0,3.84,2.8A8.3,8.3,0,0,1,3,18.24c-.33,0-.66,0-1,0A11.8,11.8,0,0,0,8.29,20,11.49,11.49,0,0,0,20,8.51c0-.17,0-.35,0-.52A8.31,8.31,0,0,0,22,5.9Z" fill="#f6f6f6"/>
</svg>
