<svg xmlns="http://www.w3.org/2000/svg" viewBox="0 0 64 64">
  <circle cx="8.00018" cy="17.00018" r="1.5" fill="none" stroke="#0096ff" stroke-miterlimit="10"/>
  <circle cx="8.00018" cy="23.00018" r="1.5" fill="none" stroke="#0096ff" stroke-miterlimit="10"/>
  <circle cx="8.00018" cy="29.00018" r="1.5" fill="none" stroke="#0096ff" stroke-miterlimit="10"/>
  <circle cx="8.00018" cy="35.00018" r="1.5" fill="none" stroke="#0096ff" stroke-miterlimit="10"/>
  <circle cx="8.00018" cy="41.00018" r="1.5" fill="none" stroke="#0096ff" stroke-miterlimit="10"/>
  <circle cx="8.00018" cy="47.00018" r="1.5" fill="none" stroke="#0096ff" stroke-miterlimit="10"/>
  <circle cx="14.00018" cy="17.00018" r="1.5" fill="none" stroke="#0096ff" stroke-miterlimit="10"/>
  <circle cx="14.00018" cy="23.00018" r="1.5" fill="none" stroke="#0096ff" stroke-miterlimit="10"/>
  <circle cx="14.00018" cy="29.00018" r="1.5" fill="none" stroke="#0096ff" stroke-miterlimit="10"/>
  <circle cx="14.00018" cy="35.00018" r="1.5" fill="none" stroke="#0096ff" stroke-miterlimit="10"/>
  <circle cx="14.00018" cy="41.00018" r="1.5" fill="none" stroke="#0096ff" stroke-miterlimit="10"/>
  <circle cx="14.00018" cy="47.00018" r="1.5" fill="none" stroke="#0096ff" stroke-miterlimit="10"/>
  <circle cx="20.00018" cy="23.00018" r="1.5" fill="none" stroke="#0096ff" stroke-miterlimit="10"/>
  <circle cx="20.00018" cy="29.00018" r="1.5" fill="none" stroke="#0096ff" stroke-miterlimit="10"/>
  <circle cx="20.00018" cy="35.00018" r="1.5" fill="none" stroke="#0096ff" stroke-miterlimit="10"/>
  <circle cx="20.00018" cy="41.00018" r="1.5" fill="none" stroke="#0096ff" stroke-miterlimit="10"/>
  <circle cx="20.00018" cy="17.00018" r="1.5" fill="none" stroke="#0096ff" stroke-miterlimit="10"/>
  <circle cx="20.00018" cy="47.00018" r="1.5" fill="none" stroke="#0096ff" stroke-miterlimit="10"/>
  <rect x="24.5" y="15.5" width="9" height="3" rx="1.125" fill="none" stroke="#14aa8c" stroke-miterlimit="10"/>
  <rect x="24.5" y="21.5" width="9" height="3" rx="1.125" fill="none" stroke="#14aa8c" stroke-miterlimit="10"/>
  <rect x="24.5" y="27.5" width="9" height="3" rx="1.125" fill="none" stroke="#14aa8c" stroke-miterlimit="10"/>
  <rect x="24.5" y="33.5" width="9" height="3" rx="1.125" fill="none" stroke="#14aa8c" stroke-miterlimit="10"/>
  <rect x="24.5" y="39.5" width="9" height="3" rx="1.125" fill="none" stroke="#14aa8c" stroke-miterlimit="10"/>
  <rect x="24.5" y="45.5" width="9" height="3" rx="1.125" fill="none" stroke="#14aa8c" stroke-miterlimit="10"/>
  <rect x="36.5" y="21.5" width="9" height="3" rx="1.125" fill="none" stroke="#14aa8c" stroke-miterlimit="10"/>
  <rect x="36.5" y="27.5" width="9" height="3" rx="1.125" fill="none" stroke="#14aa8c" stroke-miterlimit="10"/>
  <rect x="36.5" y="33.5" width="9" height="3" rx="1.125" fill="none" stroke="#14aa8c" stroke-miterlimit="10"/>
  <rect x="36.5" y="39.5" width="9" height="3" rx="1.125" fill="none" stroke="#14aa8c" stroke-miterlimit="10"/>
  <rect x="48.5" y="27.5" width="9" height="3" rx="1.125" fill="none" stroke="#14aa8c" stroke-miterlimit="10"/>
  <rect x="48.5" y="33.5" width="9" height="3" rx="1.125" fill="none" stroke="#14aa8c" stroke-miterlimit="10"/>
</svg>
