<svg xmlns="http://www.w3.org/2000/svg" viewBox="0 0 24 24">
  <path d="M10,15l5.19-3L10,9v6M21.56,7.17a10.34,10.34,0,0,1,.28,1.9c.07.8.1,1.49.1,2.09L22,12a19.87,19.87,0,0,1-.44,4.83,2.34,2.34,0,0,1-1.73,1.73,14.1,14.1,0,0,1-2.65.28c-1.3.07-2.49.1-3.59.1L12,19a40.93,40.93,0,0,1-7.83-.44,2.34,2.34,0,0,1-1.73-1.73,10.34,10.34,0,0,1-.28-1.9c-.07-.8-.1-1.49-.1-2.09L2,12a19.87,19.87,0,0,1,.44-4.83A2.34,2.34,0,0,1,4.17,5.44a14.1,14.1,0,0,1,2.65-.28c1.3-.07,2.49-.1,3.59-.1L12,5a40.93,40.93,0,0,1,7.83.44A2.34,2.34,0,0,1,21.56,7.17Z" fill="#f6f6f6"/>
</svg>
