<svg xmlns="http://www.w3.org/2000/svg" width="460" height="376" viewBox="0 0 460 376">
  <g>
    <g id="dots" opacity=".85">
      <path id="Path_1" data-name="Path 1" d="m259.5,322.1c2.54.02,4.62-2.01,4.64-4.55.02-2.54-2.01-4.62-4.55-4.64-2.54-.02-4.62,2.01-4.64,4.55,0,.01,0,.03,0,.04-.01,2.53,2.03,4.59,4.56,4.6" fill="#1761ac"/>
      <path id="Path_2" data-name="Path 2" d="m17.98,5.2c1.05.01,1.91-.83,1.92-1.88.01-1.05-.83-1.91-1.88-1.92-1.05-.01-1.91.83-1.92,1.88,0,0,0,.02,0,.02,0,1.04.83,1.89,1.87,1.9,0,0,0,0,0,0" fill="#1761ac"/>
      <path id="Path_3" data-name="Path 3" d="m361,375.44c.67,0,1.22-.53,1.23-1.21s-.53-1.22-1.21-1.23c-.67,0-1.22.53-1.23,1.21,0,0,0,0,0,.01,0,.67.54,1.21,1.21,1.22h0" fill="#abc025"/>
      <path id="Path_4" data-name="Path 4" d="m96.38,8.06c1.31.01,2.39-1.04,2.4-2.35.01-1.31-1.04-2.39-2.35-2.4s-2.39,1.04-2.4,2.35c0,0,0,.02,0,.02,0,1.31,1.05,2.37,2.35,2.38" fill="#ffd600"/>
      <path id="Path_5" data-name="Path 5" d="m312.27,321.77c2.36.02,4.29-1.87,4.32-4.23.02-2.36-1.87-4.29-4.23-4.32-2.36-.02-4.29,1.87-4.32,4.23,0,.01,0,.03,0,.04-.01,2.35,1.88,4.26,4.23,4.27,0,0,0,0,0,0" fill="#acbf13"/>
      <path id="Path_6" data-name="Path 6" d="m175.2,114.44c1.64.02,2.99-1.3,3-2.94s-1.3-2.99-2.94-3c-1.64-.02-2.99,1.3-3,2.94,0,0,0,.02,0,.03,0,1.63,1.31,2.96,2.94,2.97,0,0,0,0,0,0" fill="#43b9e0"/>
      <path id="Path_7" data-name="Path 7" d="m172.25,54.77c1.64.02,2.99-1.3,3-2.94.02-1.64-1.3-2.99-2.94-3-1.64-.02-2.99,1.3-3,2.94,0,.01,0,.02,0,.03,0,1.63,1.31,2.96,2.94,2.97" fill="#1157a3"/>
      <path id="Path_8" data-name="Path 8" d="m121.19,56.49c3.78.04,6.87-2.99,6.91-6.77.04-3.78-2.99-6.87-6.77-6.91-3.78-.04-6.87,2.99-6.91,6.77,0,.02,0,.05,0,.07-.02,3.76,3.01,6.82,6.76,6.84,0,0,0,0,0,0" fill="#1761ac"/>
      <path id="Path_9" data-name="Path 9" d="m391.77,374.22c1.64.02,2.99-1.3,3-2.94.02-1.64-1.3-2.99-2.94-3s-2.99,1.3-3,2.94c0,0,0,.02,0,.03,0,1.63,1.31,2.96,2.94,2.97,0,0,0,0,0,0" fill="#f17809"/>
      <path id="Path_10" data-name="Path 10" d="m47.5,6.27c1.63,0,2.95-1.34,2.94-2.97h0c0-1.63-1.32-2.94-2.94-2.94-1.63,0-2.94,1.32-2.94,2.94h0c0,1.64,1.31,2.97,2.94,2.98" fill="#c4bc26"/>
      <path id="Path_11" data-name="Path 11" d="m27.58,63.58c2.42.02,4.41-1.92,4.43-4.34.02-2.42-1.92-4.41-4.34-4.43s-4.41,1.92-4.43,4.34c0,.02,0,.03,0,.05-.01,2.41,1.93,4.37,4.34,4.38h0" fill="#1761ac"/>
      <path id="Path_12" data-name="Path 12" d="m171.48,85.14c1.96.02,3.57-1.55,3.59-3.52.02-1.96-1.55-3.57-3.52-3.59-1.96-.02-3.57,1.55-3.59,3.52,0,.01,0,.02,0,.04-.01,1.95,1.56,3.55,3.52,3.56,0,0,0,0,0,0" fill="#4c9dd8"/>
      <path id="Path_13" data-name="Path 13" d="m358.06,347.67c1.64.02,2.99-1.3,3-2.94.02-1.64-1.3-2.99-2.94-3-1.64-.02-2.99,1.3-3,2.94,0,0,0,.02,0,.03,0,1.63,1.31,2.96,2.94,2.97,0,0,0,0,0,0" fill="#acbf13"/>
      <path id="Path_14" data-name="Path 14" d="m93.02,30.46c1.81.02,3.29-1.43,3.31-3.24.02-1.81-1.43-3.29-3.24-3.31s-3.29,1.43-3.31,3.24c0,.01,0,.02,0,.04,0,1.8,1.44,3.26,3.24,3.27,0,0,0,0,0,0" fill="#f3efb4"/>
      <path id="Path_15" data-name="Path 15" d="m286.23,261.02c1.81.02,3.29-1.43,3.31-3.24.02-1.81-1.43-3.29-3.24-3.31-1.81-.02-3.29,1.43-3.31,3.24,0,.01,0,.02,0,.04,0,1.8,1.44,3.26,3.24,3.27h0" fill="#c0bca9"/>
      <path id="Path_17" data-name="Path 17" d="m107.85,91.38c3.45.04,6.27-2.73,6.31-6.18s-2.73-6.27-6.18-6.31c-3.45-.04-6.27,2.73-6.31,6.18,0,.02,0,.04,0,.06-.02,3.43,2.75,6.22,6.18,6.24" fill="#acbf13"/>
      <path id="Path_18" data-name="Path 18" d="m137.76,71.95c1.64.02,2.99-1.3,3-2.94.02-1.64-1.3-2.99-2.94-3s-2.99,1.3-3,2.94c0,0,0,.02,0,.03,0,1.63,1.31,2.96,2.94,2.97,0,0,0,0,0,0" fill="#acbf13"/>
      <path id="Path_19" data-name="Path 19" d="m326.33,291.39c3.78.04,6.87-2.99,6.91-6.77.04-3.78-2.99-6.87-6.77-6.91-3.78-.04-6.87,2.99-6.91,6.77,0,.02,0,.05,0,.07-.02,3.76,3.01,6.82,6.76,6.84,0,0,0,0,0,0" fill="#1761ac"/>
      <path id="Path_20" data-name="Path 20" d="m42.89,33.28c1.56.02,2.83-1.23,2.85-2.79.02-1.56-1.23-2.83-2.79-2.85-1.56-.02-2.83,1.23-2.85,2.79,0,.01,0,.02,0,.03,0,1.55,1.24,2.81,2.78,2.82,0,0,0,0,0,0" fill="#1761ac"/>
      <path id="Path_21" data-name="Path 21" d="m75.63,59.19c1.96.02,3.57-1.55,3.59-3.52.02-1.96-1.55-3.57-3.52-3.59-1.96-.02-3.57,1.55-3.59,3.52,0,.01,0,.02,0,.04,0,1.95,1.57,3.54,3.52,3.56" fill="#4c9dd8"/>
      <path id="Path_22" data-name="Path 22" d="m206.92,97.99c1.64.02,2.99-1.3,3-2.94.02-1.64-1.3-2.99-2.94-3s-2.99,1.3-3,2.94c0,.01,0,.02,0,.03,0,1.63,1.31,2.96,2.94,2.97" fill="#acbf13"/>
      <path id="Path_24" data-name="Path 24" d="m186.75,58.73c1.81.02,3.29-1.43,3.31-3.24.02-1.81-1.43-3.29-3.24-3.31-1.81-.02-3.29,1.43-3.31,3.24,0,.01,0,.02,0,.04,0,1.8,1.44,3.26,3.24,3.27h0" fill="#c0bca9"/>
    </g>
    <path id="infinity-3" d="m6.21,261.55c-27.27-77.32,38.99-160.13,126.83-142.01,28.94,5.97,56.42,19.94,86.07,35.32,1.35.7,1.78.44,2.41-.84,23.17-46.98,55.84-117.72,133.15-120.25,32.54-1.06,59.5,11.5,79.63,37.27,67.37,86.24-7.44,201.22-111.92,176.42-26.35-6.26-51.41-18.66-81.3-34.22-1.59-.83-2.08-.48-2.81,1-16.95,34.39-35.11,71.67-65.05,94.73-60.93,46.93-140.4,27.53-167-47.43h-.01Zm42.54-15.86c16.91,44.28,58.03,53.82,91.93,33.66,29.3-17.43,46.6-54.29,61.49-85.23.51-1.04-.03-1.22-.71-1.54-25.62-11.94-52.11-28.11-80-31.67-54.06-6.91-87.26,40.77-72.7,84.79m362.54-123.1c-15.61-43.03-57.32-55.4-93.42-33.06-28.41,17.57-45.6,54.26-60.04,84.25-.51,1.04-.09,1.31.72,1.69,35.76,16.65,81.32,46.58,122.47,24.62,27.41-14.63,40.23-47.24,30.27-77.49h0Z" fill="#2b548b" isolation="isolate" opacity=".5"/>
    <path id="arc_b" data-name="arc b" d="m17.98,261.61c-.02-2.92,2.34-5.31,5.26-5.32,0,0,0,0,0,0,2.92.01,5.28,2.4,5.27,5.32h0c.01,2.93-2.34,5.31-5.27,5.33-2.92-.02-5.28-2.4-5.27-5.32Zm-1.75-12.28c-6.87-40.03,6.06-74,37.39-98.25,1.11-.86,2.71-.66,3.58.46.86,1.11.66,2.71-.45,3.57,0,0,0,0,0,0-30.17,23.35-42.11,54.76-35.49,93.35.24,1.39-.69,2.7-2.08,2.94,0,0,0,0,0,0-.14.03-.29.04-.43.04-1.24,0-2.3-.9-2.51-2.12h0Zm395.9-37.57c-.98-1.01-.96-2.62.05-3.6,0,0,0,0,0,0,27.41-26.6,35.82-59.15,24.98-96.76-.39-1.35.39-2.77,1.75-3.15,1.35-.39,2.76.39,3.15,1.74,0,0,0,0,0,0,11.23,39,2.13,74.22-26.33,101.83-.48.46-1.11.72-1.78.72-.69,0-1.35-.28-1.83-.77h0Zm16.34-113.19c-.02-2.92,2.34-5.31,5.26-5.32,2.92.01,5.28,2.4,5.27,5.32h0c.01,2.93-2.34,5.31-5.27,5.33-2.92-.02-5.28-2.4-5.26-5.32h0Z" fill="#47ace4"/>
    <path id="arc_y" data-name="arc y" d="m39.17,270.47c-12.61-21.5-15.06-50.16-6.09-71.32.55-1.3,2.05-1.9,3.34-1.35,1.3.55,1.9,2.04,1.36,3.34,0,0,0,0,0,0-8.37,19.75-6.04,46.57,5.79,66.75,18.06,30.79,59.79,49.45,98.38,27.36,1.22-.7,2.78-.27,3.48.95.7,1.22.28,2.78-.94,3.48,0,0,0,0,0,0-11.46,6.71-24.49,10.28-37.78,10.35-28.34,0-54.09-16.62-67.53-39.55Zm113.61,19.41c-.01-2.92,2.34-5.31,5.27-5.32,2.92.02,5.28,2.4,5.27,5.32.01,2.92-2.34,5.31-5.27,5.32-2.92-.02-5.28-2.4-5.27-5.32Zm274.91-126.43c-1.35-.4-2.12-1.82-1.71-3.17,6.14-20.56.87-46.96-13.11-65.67-21.34-28.57-64.87-42.4-100.77-16.11-1.13.83-2.73.59-3.56-.55,0,0,0,0,0,0-.83-1.14-.58-2.73.55-3.56,38.46-28.16,85.04-13.38,107.87,17.17,14.9,19.95,20.49,48.15,13.92,70.19-.33,1.08-1.32,1.82-2.45,1.82-.25,0-.49-.04-.73-.11Zm-136.29-77.81c-.02-2.92,2.34-5.31,5.26-5.32,0,0,0,0,0,0,2.92.01,5.28,2.4,5.27,5.32h0c.01,2.93-2.34,5.31-5.27,5.33-2.92-.02-5.28-2.4-5.27-5.32Z" fill="#abbf11"/>
  </g>
  <path id="Supercharge" d="M119.8,159.9c0,5.6-5,9-11.1,9c-3.4,0-6.9-1-9.3-2.3l1-4.9c2.3,1.4,5.4,2.4,8.3,2.4
  c3.7,0,5.8-1.6,5.8-3.9c0-5.7-14.8-2.4-14.8-12.9c0-5.4,4.3-9.1,10.6-9.1c3.3,0,7.2,1,8.9,2.3l-1.3,4.6c-1.9-1-4.6-2.1-7.5-2.1
  c-3.6,0-5.3,1.8-5.3,3.7C105.1,153.1,119.8,150,119.8,159.9z M140,158c-1.6,4.2-3.8,6.2-6.7,6.2c-2.6,0-4-1.6-4-5.4v-12.7h-5.3v13
  c0,7.2,3.4,9.6,8,9.6c3.4,0,6.1-1.6,8.1-4.6v4.1h5.3v-22.2H140V158z M174.9,157.4c0,7.6-5.2,11.6-10.9,11.6c-3.4,0-5.9-1.5-7.7-4.1
  v12.4h-5.4v-31h5.2v3.6c1.8-2.7,4.5-4.1,7.9-4.1C169.9,145.6,174.9,149.8,174.9,157.4z M169.2,157.3c0-4.7-2.6-7.2-6.1-7.2
  c-3.4,0-6.1,2.9-7.1,7.2c1,4.2,3.6,7.1,7.1,7.1C166.6,164.4,169.2,161.8,169.2,157.3z M200.3,157.3c0,0.7,0,1.3-0.1,1.7h-16.6
  c0.5,3.8,2.9,5.7,7.2,5.7c2.7,0,5-0.5,7.6-1.8l0.9,3.9c-2.4,1.4-5.5,2.3-9.3,2.3c-7.7,0-11.9-4.4-11.9-11.5
  c0-7.2,4.8-11.8,11.4-11.8C195.5,145.6,200.3,149.3,200.3,157.3z M194.8,155.6c-0.4-3.9-2.2-5.8-5.5-5.8s-5.3,2-5.7,5.8H194.8z
   M209.9,150.3v-4.1h-5.4v22.2h5.4v-11.9c1.5-3.8,3.9-6.2,6.7-6.2c0.6,0,1.4,0.1,2,0.3l0.8-4.6c-0.6-0.2-1.4-0.3-2.2-0.3
  C214,145.8,211.6,147.7,209.9,150.3z M232.3,150.1c2.4,0,3.9,0.7,5.7,1.8l1.3-4.3c-1.9-1.3-4.3-2.1-7.3-2.1
  c-6.4,0-11.8,4.3-11.8,11.9c0,7.3,5.2,11.4,11.6,11.4c3.2,0,5.6-0.8,7.2-1.9l-0.8-4.1c-2.1,1.1-3.9,1.5-6,1.5c-3.6,0-6.4-2.6-6.4-7
  C225.7,152.7,228.6,150.1,232.3,150.1z M256.6,145.6c-3.4,0-6.2,1.6-8.3,4.7v-11.4H243v29.5h5.4v-11.9c1.8-4.2,4-6.3,7-6.3
  c2.6,0,4.1,1.6,4.1,5.4v12.8h5.3v-13.2C264.7,148,261.3,145.6,256.6,145.6z M287.6,146.2h5.3v22.2h-5.3v-4c-1.8,2.9-4.4,4.5-7.9,4.5
  c-5.7,0-10.9-4-10.9-11.6c0-7.6,5-11.7,10.9-11.7c3.4,0,6,1.4,7.9,4V146.2z M287.6,157c-1.1-4.3-3.9-6.9-7.1-6.9
  c-3.4,0-6.1,2.4-6.1,7.1c0,4.5,2.6,7.1,6.1,7.1c3.6,0,6.1-2.9,7.1-7.1V157z M303.9,150.3v-4.1h-5.4v22.2h5.4v-11.9
  c1.5-3.8,3.9-6.2,6.7-6.2c0.6,0,1.4,0.1,2,0.3l0.8-4.6c-0.6-0.2-1.4-0.3-2.2-0.3C308,145.8,305.6,147.7,303.9,150.3z M333.1,146.2
  h5.3v22.1c0,5.5-5.1,9.4-12.2,9.4c-3.9,0-8-1.1-10.5-2.7l0.8-4.7c2.7,1.7,6.7,2.7,9.7,2.7c3.7,0,6.9-1.7,6.9-5.4v-3.6
  c-1.8,2.8-4.5,4.1-8,4.1c-5.7,0-10.9-3.5-10.9-11.1c0-7.6,5-11.3,10.9-11.3c3.4,0,6.1,1.4,8,4.1V146.2z M333.1,156.9
  c-1.1-4.2-3.9-6.7-7.2-6.7c-3.4,0-6.1,2.1-6.1,6.7c0,4.3,2.7,6.6,6.1,6.6c3.4,0,6.1-2.3,7.1-6.4V156.9z M365,159h-16.6
  c0.5,3.8,2.9,5.7,7.2,5.7c2.7,0,5-0.5,7.6-1.8l0.9,3.9c-2.4,1.4-5.5,2.3-9.3,2.3c-7.7,0-11.9-4.4-11.9-11.5
  c0-7.2,4.8-11.8,11.4-11.8c6.1,0,10.9,3.7,10.9,11.7C365.2,157.9,365.1,158.5,365,159z M359.6,155.6c-0.4-3.9-2.2-5.8-5.5-5.8
  s-5.3,2-5.7,5.8H359.6z" fill="#86b117"/>
<path id="yourAIDelivery" d="M88.4,204h5.9l-13,31h-5.7l3.9-8.7L70.3,204h6.2l5.8,16.3L88.4,204z M119.5,215
  c0,7.5-5.7,11.7-12.4,11.7c-6.5,0-12-4-12-11.6c0-7.5,5.7-11.8,12.1-11.8C113.5,203.4,119.5,207.5,119.5,215z M113.9,215.1
  c0-4.7-3-7.2-6.6-7.2c-3.5,0-6.6,2.3-6.6,7.1s2.9,7.2,6.5,7.2C111,222.2,113.9,219.8,113.9,215.1z M139.6,215.8
  c-1.6,4.2-3.8,6.2-6.7,6.2c-2.6,0-4-1.6-4-5.4V204h-5.3v13c0,7.2,3.4,9.6,8,9.6c3.4,0,6.1-1.6,8.1-4.6v4.1h5.3V204h-5.3V215.8z
   M155.9,208.1V204h-5.4v22.2h5.4v-11.9c1.5-3.8,3.9-6.2,6.7-6.2c0.6,0,1.4,0.1,2,0.3l0.8-4.6c-0.6-0.2-1.4-0.3-2.2-0.3
  C160,203.6,157.6,205.5,155.9,208.1z M189.7,196.7l10.8,29.5h-5.8l-2.6-7.4h-11l-2.6,7.4H173l10.9-29.5H189.7z M190.5,214.2
  l-3.9-11.3l-3.9,11.3H190.5z M202.2,199.8h3.7v23.3h-3.7v3.1h13v-3.1h-3.7v-23.3h3.7v-3.1h-13V199.8z M254.1,211.5
  c0,9-6.5,14.7-15.1,14.7h-9.5v-29.5h9.5C247.6,196.7,254.1,202.5,254.1,211.5z M248.4,211.6c0-6.2-4.1-10.2-9.3-10.2h-4v20.1h4
  C244.3,221.5,248.4,217.8,248.4,211.6z M279.6,215.1c0,0.7,0,1.3-0.1,1.7h-16.6c0.5,3.8,2.9,5.7,7.2,5.7c2.7,0,5-0.5,7.6-1.8
  l0.9,3.9c-2.4,1.4-5.5,2.3-9.3,2.3c-7.7,0-11.9-4.4-11.9-11.5c0-7.2,4.8-11.8,11.4-11.8C274.8,203.4,279.6,207.1,279.6,215.1z
   M274.1,213.5c-0.4-3.9-2.2-5.8-5.5-5.8c-3.3,0-5.3,2-5.7,5.8H274.1z M283.9,226.2h5.4v-29.5h-5.4V226.2z M294.9,226.2h5.4V204h-5.4
  V226.2z M297.5,194.1c-1.8,0-3.3,1.3-3.3,3.2c0,1.9,1.6,3.2,3.3,3.2c1.8,0,3.4-1.3,3.4-3.2C300.9,195.4,299.3,194.1,297.5,194.1z
   M315.2,220.1l-5.8-16.1h-6.2l9.2,22.2h5.3l9.6-22.2h-6L315.2,220.1z M350.4,215.1c0,0.7,0,1.3-0.1,1.7h-16.6
  c0.5,3.8,2.9,5.7,7.2,5.7c2.7,0,5-0.5,7.6-1.8l0.9,3.9c-2.4,1.4-5.5,2.3-9.3,2.3c-7.7,0-11.9-4.4-11.9-11.5
  c0-7.2,4.8-11.8,11.4-11.8C345.6,203.4,350.4,207.1,350.4,215.1z M344.9,213.5c-0.4-3.9-2.2-5.8-5.5-5.8s-5.3,2-5.7,5.8H344.9z
   M360.1,208.1V204h-5.4v22.2h5.4v-11.9c1.5-3.8,3.9-6.2,6.7-6.2c0.6,0,1.4,0.1,2,0.3l0.8-4.6c-0.6-0.2-1.4-0.3-2.2-0.3
  C364.2,203.6,361.8,205.5,360.1,208.1z M388.4,204l-6.1,16.3l-5.8-16.3h-6.2l9.2,22.3l-3.9,8.7h5.7l13-31H388.4z"  fill="#fff"/>
</svg>