<svg xmlns="http://www.w3.org/2000/svg" width="460" height="376" viewBox="0 0 460 376">
  <g>
    <g id="dots" opacity=".85">
      <path id="Path_1" data-name="Path 1" d="m259.5,322.1c2.54.02,4.62-2.01,4.64-4.55.02-2.54-2.01-4.62-4.55-4.64-2.54-.02-4.62,2.01-4.64,4.55,0,.01,0,.03,0,.04-.01,2.53,2.03,4.59,4.56,4.6" fill="#1761ac"/>
      <path id="Path_2" data-name="Path 2" d="m17.98,5.2c1.05.01,1.91-.83,1.92-1.88.01-1.05-.83-1.91-1.88-1.92-1.05-.01-1.91.83-1.92,1.88,0,0,0,.02,0,.02,0,1.04.83,1.89,1.87,1.9,0,0,0,0,0,0" fill="#1761ac"/>
      <path id="Path_3" data-name="Path 3" d="m361,375.44c.67,0,1.22-.53,1.23-1.21s-.53-1.22-1.21-1.23c-.67,0-1.22.53-1.23,1.21,0,0,0,0,0,.01,0,.67.54,1.21,1.21,1.22h0" fill="#abc025"/>
      <path id="Path_4" data-name="Path 4" d="m96.38,8.06c1.31.01,2.39-1.04,2.4-2.35.01-1.31-1.04-2.39-2.35-2.4s-2.39,1.04-2.4,2.35c0,0,0,.02,0,.02,0,1.31,1.05,2.37,2.35,2.38" fill="#ffd600"/>
      <path id="Path_5" data-name="Path 5" d="m312.27,321.77c2.36.02,4.29-1.87,4.32-4.23.02-2.36-1.87-4.29-4.23-4.32-2.36-.02-4.29,1.87-4.32,4.23,0,.01,0,.03,0,.04-.01,2.35,1.88,4.26,4.23,4.27,0,0,0,0,0,0" fill="#acbf13"/>
      <path id="Path_6" data-name="Path 6" d="m175.2,114.44c1.64.02,2.99-1.3,3-2.94s-1.3-2.99-2.94-3c-1.64-.02-2.99,1.3-3,2.94,0,0,0,.02,0,.03,0,1.63,1.31,2.96,2.94,2.97,0,0,0,0,0,0" fill="#43b9e0"/>
      <path id="Path_7" data-name="Path 7" d="m172.25,54.77c1.64.02,2.99-1.3,3-2.94.02-1.64-1.3-2.99-2.94-3-1.64-.02-2.99,1.3-3,2.94,0,.01,0,.02,0,.03,0,1.63,1.31,2.96,2.94,2.97" fill="#1157a3"/>
      <path id="Path_8" data-name="Path 8" d="m121.19,56.49c3.78.04,6.87-2.99,6.91-6.77.04-3.78-2.99-6.87-6.77-6.91-3.78-.04-6.87,2.99-6.91,6.77,0,.02,0,.05,0,.07-.02,3.76,3.01,6.82,6.76,6.84,0,0,0,0,0,0" fill="#1761ac"/>
      <path id="Path_9" data-name="Path 9" d="m391.77,374.22c1.64.02,2.99-1.3,3-2.94.02-1.64-1.3-2.99-2.94-3s-2.99,1.3-3,2.94c0,0,0,.02,0,.03,0,1.63,1.31,2.96,2.94,2.97,0,0,0,0,0,0" fill="#f17809"/>
      <path id="Path_10" data-name="Path 10" d="m47.5,6.27c1.63,0,2.95-1.34,2.94-2.97h0c0-1.63-1.32-2.94-2.94-2.94-1.63,0-2.94,1.32-2.94,2.94h0c0,1.64,1.31,2.97,2.94,2.98" fill="#c4bc26"/>
      <path id="Path_11" data-name="Path 11" d="m27.58,63.58c2.42.02,4.41-1.92,4.43-4.34.02-2.42-1.92-4.41-4.34-4.43s-4.41,1.92-4.43,4.34c0,.02,0,.03,0,.05-.01,2.41,1.93,4.37,4.34,4.38h0" fill="#1761ac"/>
      <path id="Path_12" data-name="Path 12" d="m171.48,85.14c1.96.02,3.57-1.55,3.59-3.52.02-1.96-1.55-3.57-3.52-3.59-1.96-.02-3.57,1.55-3.59,3.52,0,.01,0,.02,0,.04-.01,1.95,1.56,3.55,3.52,3.56,0,0,0,0,0,0" fill="#4c9dd8"/>
      <path id="Path_13" data-name="Path 13" d="m358.06,347.67c1.64.02,2.99-1.3,3-2.94.02-1.64-1.3-2.99-2.94-3-1.64-.02-2.99,1.3-3,2.94,0,0,0,.02,0,.03,0,1.63,1.31,2.96,2.94,2.97,0,0,0,0,0,0" fill="#acbf13"/>
      <path id="Path_14" data-name="Path 14" d="m93.02,30.46c1.81.02,3.29-1.43,3.31-3.24.02-1.81-1.43-3.29-3.24-3.31s-3.29,1.43-3.31,3.24c0,.01,0,.02,0,.04,0,1.8,1.44,3.26,3.24,3.27,0,0,0,0,0,0" fill="#f3efb4"/>
      <path id="Path_15" data-name="Path 15" d="m286.23,261.02c1.81.02,3.29-1.43,3.31-3.24.02-1.81-1.43-3.29-3.24-3.31-1.81-.02-3.29,1.43-3.31,3.24,0,.01,0,.02,0,.04,0,1.8,1.44,3.26,3.24,3.27h0" fill="#c0bca9"/>
      <path id="Path_17" data-name="Path 17" d="m107.85,91.38c3.45.04,6.27-2.73,6.31-6.18s-2.73-6.27-6.18-6.31c-3.45-.04-6.27,2.73-6.31,6.18,0,.02,0,.04,0,.06-.02,3.43,2.75,6.22,6.18,6.24" fill="#acbf13"/>
      <path id="Path_18" data-name="Path 18" d="m137.76,71.95c1.64.02,2.99-1.3,3-2.94.02-1.64-1.3-2.99-2.94-3s-2.99,1.3-3,2.94c0,0,0,.02,0,.03,0,1.63,1.31,2.96,2.94,2.97,0,0,0,0,0,0" fill="#acbf13"/>
      <path id="Path_19" data-name="Path 19" d="m326.33,291.39c3.78.04,6.87-2.99,6.91-6.77.04-3.78-2.99-6.87-6.77-6.91-3.78-.04-6.87,2.99-6.91,6.77,0,.02,0,.05,0,.07-.02,3.76,3.01,6.82,6.76,6.84,0,0,0,0,0,0" fill="#1761ac"/>
      <path id="Path_20" data-name="Path 20" d="m42.89,33.28c1.56.02,2.83-1.23,2.85-2.79.02-1.56-1.23-2.83-2.79-2.85-1.56-.02-2.83,1.23-2.85,2.79,0,.01,0,.02,0,.03,0,1.55,1.24,2.81,2.78,2.82,0,0,0,0,0,0" fill="#1761ac"/>
      <path id="Path_21" data-name="Path 21" d="m75.63,59.19c1.96.02,3.57-1.55,3.59-3.52.02-1.96-1.55-3.57-3.52-3.59-1.96-.02-3.57,1.55-3.59,3.52,0,.01,0,.02,0,.04,0,1.95,1.57,3.54,3.52,3.56" fill="#4c9dd8"/>
      <path id="Path_22" data-name="Path 22" d="m206.92,97.99c1.64.02,2.99-1.3,3-2.94.02-1.64-1.3-2.99-2.94-3s-2.99,1.3-3,2.94c0,.01,0,.02,0,.03,0,1.63,1.31,2.96,2.94,2.97" fill="#acbf13"/>
      <path id="Path_24" data-name="Path 24" d="m186.75,58.73c1.81.02,3.29-1.43,3.31-3.24.02-1.81-1.43-3.29-3.24-3.31-1.81-.02-3.29,1.43-3.31,3.24,0,.01,0,.02,0,.04,0,1.8,1.44,3.26,3.24,3.27h0" fill="#c0bca9"/>
    </g>
    <path id="infinity-3" d="m6.21,261.55c-27.27-77.32,38.99-160.13,126.83-142.01,28.94,5.97,56.42,19.94,86.07,35.32,1.35.7,1.78.44,2.41-.84,23.17-46.98,55.84-117.72,133.15-120.25,32.54-1.06,59.5,11.5,79.63,37.27,67.37,86.24-7.44,201.22-111.92,176.42-26.35-6.26-51.41-18.66-81.3-34.22-1.59-.83-2.08-.48-2.81,1-16.95,34.39-35.11,71.67-65.05,94.73-60.93,46.93-140.4,27.53-167-47.43h-.01Zm42.54-15.86c16.91,44.28,58.03,53.82,91.93,33.66,29.3-17.43,46.6-54.29,61.49-85.23.51-1.04-.03-1.22-.71-1.54-25.62-11.94-52.11-28.11-80-31.67-54.06-6.91-87.26,40.77-72.7,84.79m362.54-123.1c-15.61-43.03-57.32-55.4-93.42-33.06-28.41,17.57-45.6,54.26-60.04,84.25-.51,1.04-.09,1.31.72,1.69,35.76,16.65,81.32,46.58,122.47,24.62,27.41-14.63,40.23-47.24,30.27-77.49h0Z" fill="#2b548b" isolation="isolate" opacity=".5"/>
    <path id="arc_b" data-name="arc b" d="m17.98,261.61c-.02-2.92,2.34-5.31,5.26-5.32,0,0,0,0,0,0,2.92.01,5.28,2.4,5.27,5.32h0c.01,2.93-2.34,5.31-5.27,5.33-2.92-.02-5.28-2.4-5.27-5.32Zm-1.75-12.28c-6.87-40.03,6.06-74,37.39-98.25,1.11-.86,2.71-.66,3.58.46.86,1.11.66,2.71-.45,3.57,0,0,0,0,0,0-30.17,23.35-42.11,54.76-35.49,93.35.24,1.39-.69,2.7-2.08,2.94,0,0,0,0,0,0-.14.03-.29.04-.43.04-1.24,0-2.3-.9-2.51-2.12h0Zm395.9-37.57c-.98-1.01-.96-2.62.05-3.6,0,0,0,0,0,0,27.41-26.6,35.82-59.15,24.98-96.76-.39-1.35.39-2.77,1.75-3.15,1.35-.39,2.76.39,3.15,1.74,0,0,0,0,0,0,11.23,39,2.13,74.22-26.33,101.83-.48.46-1.11.72-1.78.72-.69,0-1.35-.28-1.83-.77h0Zm16.34-113.19c-.02-2.92,2.34-5.31,5.26-5.32,2.92.01,5.28,2.4,5.27,5.32h0c.01,2.93-2.34,5.31-5.27,5.33-2.92-.02-5.28-2.4-5.26-5.32h0Z" fill="#47ace4"/>
    <path id="arc_y" data-name="arc y" d="m39.17,270.47c-12.61-21.5-15.06-50.16-6.09-71.32.55-1.3,2.05-1.9,3.34-1.35,1.3.55,1.9,2.04,1.36,3.34,0,0,0,0,0,0-8.37,19.75-6.04,46.57,5.79,66.75,18.06,30.79,59.79,49.45,98.38,27.36,1.22-.7,2.78-.27,3.48.95.7,1.22.28,2.78-.94,3.48,0,0,0,0,0,0-11.46,6.71-24.49,10.28-37.78,10.35-28.34,0-54.09-16.62-67.53-39.55Zm113.61,19.41c-.01-2.92,2.34-5.31,5.27-5.32,2.92.02,5.28,2.4,5.27,5.32.01,2.92-2.34,5.31-5.27,5.32-2.92-.02-5.28-2.4-5.27-5.32Zm274.91-126.43c-1.35-.4-2.12-1.82-1.71-3.17,6.14-20.56.87-46.96-13.11-65.67-21.34-28.57-64.87-42.4-100.77-16.11-1.13.83-2.73.59-3.56-.55,0,0,0,0,0,0-.83-1.14-.58-2.73.55-3.56,38.46-28.16,85.04-13.38,107.87,17.17,14.9,19.95,20.49,48.15,13.92,70.19-.33,1.08-1.32,1.82-2.45,1.82-.25,0-.49-.04-.73-.11Zm-136.29-77.81c-.02-2.92,2.34-5.31,5.26-5.32,0,0,0,0,0,0,2.92.01,5.28,2.4,5.27,5.32h0c.01,2.93-2.34,5.31-5.27,5.33-2.92-.02-5.28-2.4-5.27-5.32Z" fill="#abbf11"/>
  </g>
  <path id="txt" d="m106.96,171.96c6.13,0,11.17-3.44,11.17-9.03,0-9.91-14.74-6.85-14.74-13.06,0-1.97,1.64-3.74,5.29-3.74,2.63.08,5.2.82,7.48,2.14l1.26-4.62c-1.72-1.34-5.59-2.35-8.9-2.35-6.34,0-10.63,3.7-10.63,9.11,0,10.5,14.78,7.14,14.78,12.89,0,2.27-2.1,3.86-5.8,3.86-2.94-.07-5.8-.91-8.32-2.44l-.96,4.87c2.88,1.54,6.1,2.35,9.36,2.35Zm20.58-22.76h-5.33v13.06c0,7.22,3.4,9.58,7.98,9.58,3.34.04,6.44-1.71,8.15-4.58v4.16h5.33v-22.22h-5.33v11.84c-1.64,4.24-3.82,6.26-6.76,6.26-2.6,0-4.03-1.64-4.03-5.38v-12.73Zm26.92,0h-5.16v31.08h5.38v-12.43c1.67,2.65,4.6,4.23,7.73,4.16,5.76,0,10.92-3.99,10.92-11.59s-5-11.8-10.92-11.8c-3.19-.09-6.2,1.48-7.94,4.16v-3.58Zm7.14,3.95c3.44,0,6.09,2.48,6.09,7.18s-2.65,7.1-6.13,7.1-6.13-2.86-7.1-7.1c1.01-4.28,3.79-7.18,7.15-7.18h0Zm35.24,12.68c-2.33,1.27-4.95,1.91-7.6,1.85-4.28,0-6.68-1.89-7.22-5.67h16.67c.09-.57.13-1.15.13-1.72,0-7.98-4.83-11.68-10.96-11.68-6.59,0-11.42,4.66-11.42,11.84s4.24,11.55,11.97,11.55c3.27.08,6.51-.71,9.37-2.31l-.92-3.86Zm-9.07-12.98c3.28,0,5.12,1.93,5.5,5.8h-11.25c.46-3.83,2.48-5.8,5.75-5.8Zm15.33,18.56h5.38v-11.89c1.47-3.82,3.95-6.17,6.68-6.17.67,0,1.34.09,1.97.29l.76-4.58c-.71-.21-1.45-.31-2.18-.29-3.11,0-5.5,1.89-7.22,4.54v-4.12h-5.38v22.22Zm32.76-5.5c-1.83,1.03-3.91,1.53-6.01,1.47-3.61,0-6.43-2.65-6.43-7.06s2.9-7.18,6.55-7.18c2.03,0,4,.61,5.67,1.76l1.34-4.28c-2.17-1.44-4.74-2.16-7.35-2.06-6.43,0-11.84,4.33-11.84,11.97s5.21,11.42,11.59,11.42c2.56.11,5.09-.55,7.27-1.89l-.8-4.16Zm4.87,5.5h5.38v-11.89c1.81-4.24,4.03-6.34,6.97-6.34,2.65,0,4.07,1.64,4.07,5.38v12.85h5.33v-13.19c0-7.22-3.44-9.62-8.11-9.62-3.36,0-6.17,1.64-8.27,4.75v-11.47h-5.38v29.53Zm25.87-11.09c0,7.6,5.17,11.59,10.92,11.59,3.27.04,6.31-1.69,7.93-4.54v4.03h5.33v-22.22h-5.33v3.44c-1.78-2.61-4.78-4.13-7.94-4.03-5.92,0-10.92,4.12-10.92,11.72Zm5.63-.08c0-4.7,2.65-7.1,6.09-7.1s6.05,2.65,7.14,6.93v.21c-1.01,4.16-3.57,7.1-7.14,7.1-3.44,0-6.09-2.6-6.09-7.14Zm24.19,11.17h5.38v-11.89c1.47-3.82,3.95-6.17,6.68-6.17.67,0,1.34.09,1.97.29l.76-4.58c-.71-.21-1.45-.31-2.18-.29-3.11,0-5.5,1.89-7.22,4.54v-4.12h-5.38v22.22Zm15.03-11.47c0,7.56,5.17,11.09,10.88,11.09,3.22.16,6.27-1.43,7.98-4.16v3.65c0,3.78-3.15,5.46-6.89,5.46-3.42-.05-6.78-.97-9.74-2.69l-.76,4.75c3.2,1.84,6.85,2.79,10.54,2.73,7.1,0,12.18-3.91,12.18-9.41v-22.18h-5.33v3.49c-1.79-2.63-4.8-4.17-7.98-4.07-5.88,0-10.88,3.74-10.88,11.34Zm5.59-.08c0-4.58,2.69-6.72,6.09-6.72s6.09,2.56,7.18,6.76v.17c-1.05,4.12-3.7,6.43-7.14,6.43s-6.13-2.31-6.13-6.64h0Zm43.39,5.96c-2.33,1.27-4.95,1.91-7.6,1.85-4.28,0-6.68-1.89-7.22-5.67h16.67c.09-.57.13-1.15.13-1.72,0-7.98-4.83-11.68-10.96-11.68-6.59,0-11.42,4.66-11.42,11.84s4.24,11.55,11.97,11.55c3.27.08,6.51-.71,9.37-2.31l-.93-3.86Zm-9.07-12.98c3.28,0,5.12,1.93,5.5,5.8h-11.25c.46-3.83,2.48-5.8,5.75-5.8Z" fill="#86b117"/>
  <path id="txt-2" d="m86.25,203.51h-5.92l-6.09,16.34-5.84-16.34h-6.22l9.24,22.34-3.91,8.69h5.67l13.06-31.04Zm.04,11.17c0,7.56,5.58,11.59,12.05,11.59s12.39-4.16,12.39-11.72-5.96-11.68-12.31-11.68-12.14,4.24-12.14,11.8Zm5.63-.17c0-4.83,3.11-7.14,6.59-7.14s6.59,2.48,6.59,7.22-2.9,7.14-6.68,7.14c-3.66,0-6.51-2.39-6.51-7.22Zm28.18-11h-5.33v13.06c0,7.22,3.4,9.58,7.98,9.58,3.34.04,6.44-1.71,8.15-4.58v4.16h5.33v-22.22h-5.33v11.84c-1.64,4.24-3.82,6.26-6.76,6.26-2.6,0-4.03-1.64-4.03-5.38v-12.72Zm21.76,22.21h5.38v-11.89c1.47-3.82,3.95-6.17,6.68-6.17.67,0,1.34.09,1.97.29l.76-4.58c-.71-.21-1.45-.31-2.18-.29-3.11,0-5.5,1.89-7.22,4.54v-4.12h-5.38v22.22Zm25.83,0h5.33v-19.66l8.02,13.86h3.61l8.23-14.11v19.91h5.38v-29.53h-5.12l-10.08,17.18-10.21-17.09v-.08h-5.17v29.53Zm37.09,0h17.43v-4.75h-11.89v-24.78h-5.54v29.53Zm28.35,0h9.49c8.65,0,15.16-5.71,15.16-14.74s-6.47-14.78-15.16-14.78h-9.49v29.53Zm9.58-24.82c5.21,0,9.37,3.99,9.37,10.21s-4.07,9.91-9.41,9.91h-3.99v-20.12h4.03Zm38.72,19.24c-2.33,1.27-4.95,1.91-7.6,1.85-4.28,0-6.68-1.89-7.22-5.67h16.67c.09-.57.13-1.15.13-1.72,0-7.98-4.83-11.68-10.96-11.68-6.59,0-11.42,4.66-11.42,11.84s4.24,11.55,11.97,11.55c3.27.08,6.51-.71,9.37-2.31l-.92-3.86Zm-9.07-12.98c3.28,0,5.12,1.93,5.5,5.8h-11.25c.46-3.83,2.48-5.8,5.75-5.8h0Zm15.33,18.56h5.38v-29.53h-5.38v29.53Zm10.37-28.9c.02,1.79,1.5,3.22,3.29,3.2.01,0,.02,0,.03,0,1.78.07,3.29-1.31,3.36-3.1,0-.03,0-.06,0-.09.01-1.77-1.41-3.22-3.19-3.24-.06,0-.12,0-.17,0-1.78-.05-3.27,1.35-3.32,3.13,0,.03,0,.06,0,.09h0Zm.63,28.9h5.38v-22.22h-5.38v22.22Zm17.6,0h5.33l9.58-22.22h-5.96l-6.13,16.13-5.8-16.13h-6.22l9.2,22.22Zm35.36-5.59c-2.33,1.27-4.95,1.91-7.6,1.85-4.28,0-6.68-1.89-7.22-5.67h16.67c.09-.57.13-1.15.13-1.72,0-7.98-4.83-11.68-10.96-11.68-6.59,0-11.42,4.66-11.42,11.84s4.23,11.55,11.97,11.55c3.27.08,6.51-.71,9.37-2.31l-.92-3.86Zm-9.08-12.98c3.28,0,5.12,1.93,5.5,5.8h-11.25c.46-3.83,2.48-5.8,5.75-5.8Zm15.33,18.56h5.38v-11.89c1.47-3.82,3.95-6.17,6.68-6.17.67,0,1.34.09,1.97.29l.76-4.58c-.71-.21-1.45-.31-2.18-.29-3.11,0-5.5,1.89-7.22,4.54v-4.12h-5.38v22.22Zm39.9-22.22h-5.92l-6.09,16.34-5.84-16.34h-6.22l9.24,22.34-3.91,8.69h5.67l13.06-31.04Z" fill="#fff"/>
  <rect id="canvas" y=".33" width="460" height="376" fill="none"/>
</svg>