<?xml version="1.0" encoding="UTF-8"?>
<!-- Generator: Adobe Illustrator 25.0.1, SVG Export Plug-In . SVG Version: 6.00 Build 0)  -->
<svg version="1.1" id="Layer_1" xmlns="http://www.w3.org/2000/svg" xmlns:xlink="http://www.w3.org/1999/xlink" x="0px" y="0px" viewBox="0 0 120 42" enable-background="new 0 0 120 42" xml:space="preserve">
<path fill="#FFFFFF" d="M32.04,29.04C29.6,31.49,26.22,33,22.5,33c-3.72,0-7.1-1.51-9.54-3.96l2.12-2.12  c-1.9-1.9-3.08-4.53-3.08-7.42C12,13.71,16.71,9,22.5,9c2.89,0,5.52,1.18,7.42,3.08l2.12-2.12l2.12-2.12h0l2.13-2.13  C32.76,2.18,27.88,0,22.5,0C11.73,0,3,8.73,3,19.5H0C0,31.93,10.07,42,22.5,42v-3c5.38,0,10.26-2.18,13.79-5.71l-2.13-2.13  L32.04,29.04z"/>
<g>
	<path fill="#FFFFFF" d="M18,20.53V20.5c0-3.08,2.37-5.5,5.58-5.5c2.16,0,3.55,0.91,4.49,2.21l-2.21,1.71   c-0.6-0.76-1.3-1.24-2.31-1.24c-1.48,0-2.52,1.25-2.52,2.8v0.03c0,1.59,1.04,2.83,2.52,2.83c1.1,0,1.75-0.51,2.39-1.28l2.21,1.57   c-1,1.37-2.34,2.39-4.68,2.39C20.43,26,18,23.69,18,20.53z"/>
	<path fill="#FFFFFF" d="M33,15h3v8h5v3h-8V15z"/>
	<path fill="#FFFFFF" d="M45,15h9v3h-6l0,1.5h5v2h-5l0,1.5h6v3h-9V15z"/>
	<path fill="#FFFFFF" d="M62.86,15h2.92l4.65,11h-3.17l-0.82-2h-4.32l-0.8,2h-3.11L62.86,15z M65.5,22l-1.2-3.06L63.08,22H65.5z"/>
	<path fill="#FFFFFF" d="M90,26V15h1v11H90z"/>
	<path fill="#FFFFFF" d="M96,15h3l3,4l2.97-4H108v11h-3v-6.28L102,24l-3-4.25V26h-3V15z"/>
	<path fill="#FFFFFF" d="M112,15h3v8h5v3h-8V15z"/>
	<path fill="#FFFFFF" d="M81.64,22.55C83.07,22.02,84,21.02,84,19.5v-0.75c0-1.08-0.34-1.93-1-2.56C82.24,15.44,81.05,15,79.33,15   H74v11h3v-3h1.36h0.03l2.31,3h3.67L81.64,22.55z M80.57,19.11c0,0.78-0.58,1.28-1.6,1.28H77V17.8h1.95c1,0,1.62,0.43,1.62,1.28   V19.11z"/>
</g>
<g>
	<path fill="#82DD22" d="M22.5,39C11.75,39,3,30.25,3,19.5H0C0,31.93,10.07,42,22.5,42V39z"/>
	<path fill="#14AA8C" d="M22.5,3c4.55,0,8.67,1.85,11.66,4.84l2.13-2.13C32.76,2.18,27.88,0,22.5,0C11.73,0,3,8.73,3,19.5h3   C6,10.4,13.4,3,22.5,3z"/>
	<path fill="#AFE61E" d="M22.5,36C13.4,36,6,28.6,6,19.5H3C3,30.27,11.73,39,22.5,39V36z"/>
	<path fill="#14AA8C" d="M36.29,33.29l-2.13-2.13h0l-2.12-2.12C29.6,31.49,26.22,33,22.5,33s-7.1-1.51-9.54-3.96l-2.13,2.13   C13.82,34.15,17.94,36,22.5,36v3C27.88,39,32.76,36.82,36.29,33.29z"/>
	<path fill="#0096FF" d="M12.95,29.05l2.12-2.12c-1.9-1.9-3.08-4.53-3.08-7.42C12,13.71,16.71,9,22.5,9c2.89,0,5.52,1.18,7.42,3.08   l2.12-2.12C29.6,7.51,26.23,6,22.5,6C15.04,6,9,12.04,9,19.5C9,23.23,10.51,26.6,12.95,29.05z"/>
	<path fill="#50BEFF" d="M12.96,29.04C10.51,26.6,9,23.22,9,19.5C9,12.06,15.06,6,22.5,6c3.72,0,7.1,1.51,9.54,3.96l2.13-2.13   C31.18,4.85,27.06,3,22.5,3C13.39,3,6,10.39,6,19.5c0,4.56,1.85,8.68,4.83,11.67L12.96,29.04z"/>
</g>
</svg>