<?xml version="1.0" encoding="UTF-8"?>
<!-- Generator: Adobe Illustrator 23.0.1, SVG Export Plug-In . SVG Version: 6.00 Build 0)  -->
<svg version="1.1" id="Layer_1" xmlns="http://www.w3.org/2000/svg" xmlns:xlink="http://www.w3.org/1999/xlink" x="0px" y="0px" viewBox="0 0 689.2 368.5" style="enable-background:new 0 0 689.2 368.5;" xml:space="preserve">
<style type="text/css">
	.st0{fill:url(#SVGID_1_);}
	.st1{fill:url(#SVGID_2_);}
	.st2{fill:url(#SVGID_3_);}
	.st3{fill:url(#SVGID_4_);}
	.st4{fill:url(#SVGID_5_);}
	.st5{fill:url(#SVGID_6_);}
	.st6{fill:url(#SVGID_7_);}
	.st7{fill:url(#SVGID_8_);}
	.st8{fill:none;stroke:#F4CB89;stroke-width:10;stroke-miterlimit:10;}
	.st9{fill:none;stroke:#F4CB89;stroke-width:10;stroke-miterlimit:10;stroke-dasharray:14.1532,14.1532;}
</style>
<g id="Form_1_2_">
	<g id="Form_1_3_">
		
			<linearGradient id="SVGID_1_" gradientUnits="userSpaceOnUse" x1="142.0824" y1="11.9219" x2="125.3021" y2="74.5467" gradientTransform="matrix(1 0 0 -1 0 260.646)">
			<stop offset="0" style="stop-color:#FF4567"/>
			<stop offset="0.1587" style="stop-color:#FA4264"/>
			<stop offset="0.3589" style="stop-color:#EA3A5A"/>
			<stop offset="0.5813" style="stop-color:#D02D4B"/>
			<stop offset="0.8181" style="stop-color:#AD1B36"/>
			<stop offset="1" style="stop-color:#8C0A22"/>
		</linearGradient>
		<polygon class="st0" points="141.3,181.8 100,260 176.8,210   "/>
	</g>
</g>
<g id="Form_2_2_">
	<g id="Form_2_3_">
		
			<linearGradient id="SVGID_2_" gradientUnits="userSpaceOnUse" x1="305.5801" y1="18.2182" x2="242.0032" y2="255.4906" gradientTransform="matrix(1 0 0 -1 0 260.646)">
			<stop offset="0" style="stop-color:#BA0D2C"/>
			<stop offset="1" style="stop-color:#ED3659"/>
		</linearGradient>
		<polygon class="st1" points="0,70 240,260 500,0   "/>
	</g>
</g>
<g id="Form_3_2_">
	<g id="Form_3_3_">
		
			<linearGradient id="SVGID_3_" gradientUnits="userSpaceOnUse" x1="319.1025" y1="59.3543" x2="280.8975" y2="201.9378" gradientTransform="matrix(1 0 0 -1 0 260.646)">
			<stop offset="0" style="stop-color:#CF1D3E"/>
			<stop offset="1" style="stop-color:#960B25"/>
		</linearGradient>
		<polygon class="st2" points="83.7,136.3 100,260 141.3,181.8 500,0   "/>
	</g>
</g>
<linearGradient id="SVGID_4_" gradientUnits="userSpaceOnUse" x1="253.9806" y1="85.5045" x2="242.4983" y2="128.3572">
	<stop offset="0" style="stop-color:#C42543"/>
	<stop offset="1" style="stop-color:#A31F36"/>
</linearGradient>
<path class="st3" d="M248.6,102.7c5-3.7,7.4-8.1,7.2-13.1c-0.1-4.6-2.1-5.4-5.9-2.6c-3.8,2.9-5.7,7.4-5.5,13.7l0.8,28.3l4-2  L248.6,102.7z"/>
<linearGradient id="SVGID_5_" gradientUnits="userSpaceOnUse" x1="237.2459" y1="91.7219" x2="224.1617" y2="35.0478">
	<stop offset="0" style="stop-color:#E83152"/>
	<stop offset="1" style="stop-color:#F56B86"/>
</linearGradient>
<path class="st4" d="M210.4,51.9c-16,4.7-42.9,1.3-75.6,3.8c46.4,20,53.9,33.3,43.3,49.7l43.2-14.1c0-0.3,0-0.6,0-1  c0.4-5.1,1.9-10,4.6-14.8c2.7-4.8,6.2-8.8,10.5-12.1c7.8-5.9,16.3-8.2,25.5-7c9.2,1.2,16.8,5.7,22.7,13.4c0.2,0.2,0.3,0.4,0.4,0.6  l32.8-10.7c-1.4-8.9-1.4-20.2-1.6-33.9l-22.6,3.2c-10.4,11.6-19.5,11.3-30,4.2L225,38.5C222.9,45.7,217.8,49.7,210.4,51.9z"/>
<linearGradient id="SVGID_6_" gradientUnits="userSpaceOnUse" x1="-412.1064" y1="440.9277" x2="-311.6685" y2="465.6587" gradientTransform="matrix(0.7073 0.1729 -0.4955 1.2927 664.4407 -392.4564)">
	<stop offset="0" style="stop-color:#C42543"/>
	<stop offset="1" style="stop-color:#A31F36"/>
</linearGradient>
<path class="st5" d="M221,104c0.9-4.9-2-7.4,0.2-12.8l-43.2,14.1c-12.5,15.4-24.1,25.4-49.9,49.9c37-12.5,48.1-9.1,46,9.8l46.6-23.6  l-0.9-19C219.7,115.5,220.1,109.3,221,104z"/>
<linearGradient id="SVGID_7_" gradientUnits="userSpaceOnUse" x1="-263.6378" y1="403.2867" x2="-216.9699" y2="414.7778" gradientTransform="matrix(0.7073 0.1729 -0.4955 1.2927 664.4407 -392.4564)">
	<stop offset="0" style="stop-color:#C42543"/>
	<stop offset="1" style="stop-color:#A31F36"/>
</linearGradient>
<path class="st6" d="M317.8,59.6l-32.8,10.7c0.2,10.4-6.8,21.4-11.6,31.6c-3.7,7.8-9,14.8-16,20.9L310.9,96  C303.7,90.2,313.1,76.1,317.8,59.6z"/>
<linearGradient id="SVGID_8_" gradientUnits="userSpaceOnUse" x1="300.6271" y1="215.9522" x2="273.2542" y2="97.3868">
	<stop offset="0" style="stop-color:#E83152"/>
	<stop offset="1" style="stop-color:#F56B86"/>
</linearGradient>
<path class="st7" d="M303.8,175c6.3-1.9,14.4-2.5,23.8-2.7l17.7-17.7c-38-22.4-10.7-32.8,28.7-73.2c-16.8,2.7-28.7,3.1-37.1,1.2  l-69.2,35.1l21.8,28.7l-22.7,17.3l-25.1-32.8l-48.4,24.5c6.7,13.7,3.6,39.3,5.6,72.1l2.7,2.1c29.3-62.3,44.4-43.3,77.5-8.7  l10.5-10.5C285.1,188.1,290.8,178.8,303.8,175z"/>
<g>
	<g>
		<path class="st8" d="M83.3,273.8c-1.6,1.7-3.2,3.5-4.8,5.1"/>
		<path class="st9" d="M69.2,289.6c-166.9,198.8,502.3-61.8,605-102.6"/>
		<path class="st8" d="M680.8,184.4c4.2-1.7,6.5-2.6,6.5-2.6"/>
	</g>
</g>
</svg>