<?xml version="1.0" encoding="utf-8"?> <!-- Generator: IcoMoon.io --> <!DOCTYPE svg PUBLIC "-//W3C//DTD SVG 1.1//EN" "http://www.w3.org/Graphics/SVG/1.1/DTD/svg11.dtd"> <svg version="1.1" id="Layer_2_copy" xmlns="http://www.w3.org/2000/svg" xmlns:xlink="http://www.w3.org/1999/xlink" x="0px" y="0px" width="16" height="16" viewBox="0 0 16 16" enable-background="new 0 0.028 24 16" xml:space="preserve" data-license="&amp;nbsp;" data-author="&amp;nbsp;" fill="#666666"> <g><path d="M 16,14l-4-4.017c 0.641-1.008, 1-2.201, 1-3.483c0-3.589-2.912-6.5-6.5-6.5c-3.589,0-6.5,2.911-6.5,6.5 s 2.923,6.5, 6.512,6.5c 1.287,0, 2.487-0.355, 3.495-1L 14,15.993L 16,14z M 3,10l0-7 l 7,0 l0,7 L 3,10 z M 4,4l 5,0 l0,5 L 4,9 L 4,4 z"></path></g></svg>
